<svg xmlns="http://www.w3.org/2000/svg" viewBox="0 0 868.6 833"><defs><style>.clslogo-1{fill:#fff;}.clslogo-2{fill:#b8808d;}</style></defs><title>Asset 2</title><g id="Layer_2" data-name="Layer 2"><g id="Layer_3" data-name="Layer 3"><path class="clslogo-1" d="M786.26,594.54a23.59,23.59,0,0,0-20,11.08A379.43,379.43,0,0,1,628.4,736.4c-.6.32-1.19.66-1.79,1s-1.05.58-1.62.88c-1.08.58-2.16,1.17-3.36,1.78-4.44,2.39-9.21,4.81-14.56,7.39l-6.82,3.2a398.08,398.08,0,0,1-138.11,34.94l-2.7.17-2,.1c-5.23.31-10,.53-14.42.65l-4.74,0c-2.32,0-4.59,0-6.88,0A396.42,396.42,0,0,1,279.1,755.7l-.14-.09c-.81-.3-1.6-.63-2.37-1l-1.11-.49c-.72-.28-1.42-.58-2.14-.88l-1.18-.53c-4.78-2.13-9.68-4.44-15-7l-6.71-3.38C127.78,678.75,50.1,556.63,47.71,423.63c-2.26-124.29,60.6-240.83,168.17-311.75l7.09-4.7L189.25,73.46l-4.75,3.23C66.55,156.65-2.38,286.67.06,424.49,2.83,576.42,92,714.8,232.77,785.58c1.2.58,2.4,1.2,3.59,1.74s2.31,1.19,3.48,1.7c5.12,2.49,10.35,4.89,15.45,7.08,1.25.55,2.51,1.09,3.64,1.56l3.62,1.53a445.72,445.72,0,0,0,168.87,33.66V833l7-.17h.09l2.31,0,2.3,0c.7,0,1.44,0,2.19,0,1.8,0,3.64-.11,5.56-.2.88,0,1.79,0,2.69-.08l.29,0c1.42-.06,2.87-.15,4.36-.23,2.2-.11,4.39-.25,6.59-.41A447.05,447.05,0,0,0,618.66,793.6l7.05-3.25c4.9-2.33,10-4.83,15.25-7.54l4.65-2.46c.74-.38,1.45-.77,2.17-1.15,65.6-35.56,119.75-86.42,158.56-148.49a23.65,23.65,0,0,0-20.08-36.17Z"/><path class="clslogo-1" d="M477.72,40.2v0c-.27,0-.55,0-.86,0Z"/><path class="clslogo-2" d="M477.72,40.2v0c-.27,0-.55,0-.86,0Z"/><path class="clslogo-2" d="M476.86,40.2c.31,0,.59,0,.86,0v0Z"/><path class="clslogo-2" d="M651.28,55.34C583.4,17.76,505.77-1.4,426.76.08A447.25,447.25,0,0,0,204.11,63.67l-8,4.81,30.66,30.66,4,3.65,4.63-2.67a398.68,398.68,0,0,1,179.2-52.68V654.66a21.23,21.23,0,0,0,42.46,0V47.58l.37,0A392.52,392.52,0,0,1,619.9,92.93l4.59,2.45L659.77,60Zm-180.15-8.4-.36,0h-.33v-.07h.69Z"/><path class="clslogo-2" d="M471.13,46.83v.07l-.36,0h-.33v-.05Z"/><path class="clslogo-1" d="M868.6,418.9l-.06,13-233.21,4.15a23.11,23.11,0,0,1-23.52-22.69h0a23.12,23.12,0,0,1,22.69-23.53l185.2-3.34c-9.66-115-76.76-220.45-180.63-283.1l-7.61-4.59L666,64.28l4.67,2.92a435.89,435.89,0,0,1,61.56,46.36c83,75,131.28,176.21,136,285,.19,3.62.27,7.21.33,10.22C868.6,412.19,868.6,415.59,868.6,418.9Z"/></g></g></svg>