<svg id="Layer_1" class="mailman" data-name="Layer 1" xmlns="http://www.w3.org/2000/svg" xmlns:xlink="http://www.w3.org/1999/xlink" viewBox="0 0 712.25 527.14"><defs><style>.cls-1,.cls-19,.cls-8{fill:none;}.cls-2{fill:#faf0ca;}.cls-3{clip-path:url(#clip-path);}.cls-4{fill:#eed9b4;}.cls-5{fill:#d62828;}.cls-6{fill:#b51c1c;}.cls-7{fill:#0f0e0d;}.cls-8{stroke:#b51c1c;}.cls-19,.cls-8{stroke-miterlimit:10;}.cls-9{fill:#d5dee2;}.cls-10{fill:#b7bfc4;}.cls-11{fill:#8a817c;}.cls-12{fill:#463f3a;}.cls-13{fill:#dae2d5;}.cls-14{fill:#293241;}.cls-15{fill:#98c1d9;}.cls-16{fill:#fff;}.cls-17{fill:#ccc192;}.cls-18{fill:#eae2b7;}.cls-19{stroke:#252422;}.cls-20{fill:#252422;}.cls-21{fill:#8c6239;}.cls-22{fill:#f77f00;}.cls-23{fill:#003049;}.cls-24{fill:#002c3f;}.cls-25{fill:#a67c52;}.cls-26{fill:#754c24;}.cls-27{fill:#42210b;}.cls-28{fill:#db6800;}.cls-29{fill:#ffba08;}.cls-30{fill:#004360;}.cls-31{fill:#603813;}.cls-32{fill:#ccc;}.cls-33{fill:#999;}</style><clipPath id="clip-path" transform="translate(-65.76 -36.43)"><path class="cls-1" d="M720.12,365.75c-6.49-24.75-18.06-47.84-26.44-72-13.59-39.24-18.64-81-31.12-120.58-13.3-42.22-32.82-85.58-69.89-112.4-18-13-45.73-17.59-67.23-21-54.29-8.56-111.29-.67-160.69,23.63C327.4,81.77,295.59,108.08,265.54,137L99.43,144.56V302a130.52,130.52,0,0,0-11.37,19.25c-12.58,26.42-14.8,56.59-13.65,85.83,1.38,35.06,8.11,71.73,30.48,98.77,20.56,24.85,51.87,38.42,83.22,46,41.14,10,83.85,11.15,126.18,11.52q122.22,1.08,244.31-6.12c31.06-1.83,63-4.28,91-17.82,30.5-14.73,54.18-42.19,66.26-73.84S728.72,398.52,720.12,365.75Z"/></clipPath></defs><title>Mail Man Illustration</title><path class="cls-2" d="M662.56,173.15c-13.3-42.22-32.82-85.58-69.89-112.4-18-13-45.73-17.59-67.23-21-54.29-8.56-111.29-.67-160.69,23.63C285,102.61,230.54,178,164.49,237.44c-28.32,25.48-60.05,49.45-76.43,83.85-12.58,26.42-14.8,56.59-13.65,85.83,1.38,35.06,8.11,71.73,30.48,98.77,20.56,24.85,51.87,38.42,83.22,46,41.14,10,83.85,11.15,126.18,11.52q122.22,1.08,244.31-6.11c31.06-1.84,63-4.29,91-17.83,30.5-14.73,54.18-42.19,66.26-73.84s12.87-67.13,4.27-99.9c-6.49-24.75-18.06-47.84-26.44-72C680.09,254.49,675,212.76,662.56,173.15Z" transform="translate(-65.76 -36.43)"/><path class="cls-2" d="M118.19,201.71c-7.07.83-14.49.12-20.76-3.25a33.23,33.23,0,0,1-11.25-10.4c-15.57-22.24-6.94-54.66,12-74.07s45.58-29,71.21-37.9l77.57-27c14.72-5.14,29.73-7,27.35,14.5-.87,7.81-4.73,14.94-8.84,21.63-16.65,27.13-38.82,48.75-62.37,69.69S150.29,197.93,118.19,201.71Z" transform="translate(-65.76 -36.43)"/><g class="cls-3"><rect class="cls-4" x="593.41" y="126.37" width="66.69" height="323.14"/><rect class="cls-4" x="519.23" y="126.37" width="66.69" height="323.14"/><rect class="cls-4" x="445.06" y="126.37" width="66.69" height="323.14"/><rect class="cls-4" x="370.88" y="126.37" width="66.69" height="323.14"/><rect class="cls-4" x="296.71" y="126.37" width="66.69" height="323.14"/><rect class="cls-4" x="222.53" y="126.37" width="66.69" height="323.14"/><rect class="cls-4" x="148.35" y="126.37" width="66.69" height="323.14"/><rect class="cls-4" x="74.18" y="126.37" width="66.69" height="323.14"/><rect class="cls-4" y="126.37" width="66.69" height="323.14"/><rect class="cls-5" x="67.32" y="146.92" width="144.96" height="264.7"/><path class="cls-6" d="M133.07,441.28l4.39-.56s9.27-224.18,17.77-229.27c7.32-4.4,98-11.3,122.8-13.12v-15h-145Z" transform="translate(-65.76 -36.43)"/><rect class="cls-7" x="64.15" y="387.03" width="151.29" height="63.1"/><rect class="cls-7" x="92.72" y="184.26" width="100.41" height="13.59"/><rect class="cls-8" x="92.72" y="218.7" width="100.41" height="146.53"/><path class="cls-6" d="M155.06,170.72l-22,11.66H284.29l-22-11.66a77.6,77.6,0,0,0-36.36-9.05H191.42A77.6,77.6,0,0,0,155.06,170.72Z" transform="translate(-65.76 -36.43)"/><rect class="cls-5" x="57.44" y="137.05" width="170.96" height="19.74" rx="2.4"/><rect class="cls-7" x="174.26" y="280.28" width="8.43" height="16.13"/><path class="cls-9" d="M66.1,497.68V541H778V497.68a16,16,0,0,0-16-16h-680A16,16,0,0,0,66.1,497.68Z" transform="translate(-65.76 -36.43)"/><rect class="cls-10" x="471.24" y="445.28" width="2.31" height="59.31"/><rect class="cls-10" x="138.46" y="445.28" width="2.31" height="59.31"/><path class="cls-7" d="M236.3,513.24V541h262V513.24a6,6,0,0,0-6-6H242.3A6,6,0,0,0,236.3,513.24Z" transform="translate(-65.76 -36.43)"/></g><path class="cls-11" d="M698.18,555.38c-98.13,5.07-197.87,2.51-296.12,4.21-104.76,1.82-209.6,2.6-314.32-.82-3.62-.12-7.46-.33-10.41-2.11s-4.39-5.71-1.94-8c39.16-12,79.46-7.18,120.23-8.44,45.24-1.39,90.5-2.06,135.76-2.25,90.57-.39,181.13,1.17,271.67,2.71,40.37.69,80.69-1,120.8,3.18,3.09,1.73,2.35,6.08-.47,8.1s-6.78,2.36-10.47,2.58Q705.56,555,698.18,555.38Z" transform="translate(-65.76 -36.43)"/><path class="cls-12" d="M177.58,550c73.2,1.75,147.6.87,220.88,1.46,78.15.62,156.35.89,234.47-.29a33.09,33.09,0,0,0,7.76-.72c2.2-.62,3.27-2,1.45-2.75-29.22-4.12-59.27-2.47-89.69-2.91q-50.61-.72-101.27-.77c-67.55-.14-135.1.4-202.64.93-30.12.24-60.19-.34-90.11,1.1-2.3.59-1.75,2.09.36,2.79a29.85,29.85,0,0,0,7.8.88C170.25,549.83,173.91,549.93,177.58,550Z" transform="translate(-65.76 -36.43)"/><path class="cls-13" d="M384.87,457.6l-3.95-45.1,9-1.17,7.73,44.61a6.45,6.45,0,0,1-5.52,7.49h0A6.45,6.45,0,0,1,384.87,457.6Z" transform="translate(-65.76 -36.43)"/><rect class="cls-14" x="379.25" y="391.75" width="12.32" height="40.33" transform="translate(-243.57 407.05) rotate(-50.11)"/><path class="cls-13" d="M382.73,415.13a4.19,4.19,0,1,1,5.9-.53A4.2,4.2,0,0,1,382.73,415.13Z" transform="translate(-65.76 -36.43)"/><path class="cls-13" d="M411.27,418.49A67.25,67.25,0,0,1,399,412c-1.05-.75-9.25-7.89-8-9.49,3.88-4.89,8-9.6,11.7-14.66s7-10.38,11.18-15a1.34,1.34,0,0,1,2.13-.29c6.17,3.95,12.16,8.07,18.13,12.33-1.05,2.86-3.35,5.53-5.29,7.83a82,82,0,0,0-5.67,7.85C422.18,402.11,411.78,418.71,411.27,418.49Z" transform="translate(-65.76 -36.43)"/><path class="cls-15" d="M401.87,441.85a64.49,64.49,0,0,1-6.39-7.25,17.46,17.46,0,0,1-3.18-9.45L389,426.74a4.43,4.43,0,0,1-1.85.57c-2.21,0-6.08-4.22-7.47-5.77a25.74,25.74,0,0,1-4.95-7.6,1.25,1.25,0,0,1-.12-.84,1.18,1.18,0,0,1,.39-.47,39.27,39.27,0,0,1,4.21-3.17c3.57,3.05,7.76,5.34,11.52,8.15,8.65,6.49,16,14.44,23.55,22.15,3.86,4,7.77,7.87,11.93,11.51,1.79,1.57,3.88,3,5.53,4.63,2,2,3.61,4.08,5.95,5.74a36.22,36.22,0,0,1-3.19,5.27c-7.55-3.55-13.42-9-20-13.93-3.87-2.91-8.25-6.08-11.39-9.78Q402.49,442.51,401.87,441.85Z" transform="translate(-65.76 -36.43)"/><path class="cls-7" d="M437.6,450.45a17.35,17.35,0,0,1,2.27,4.88,6.93,6.93,0,0,1-1.13,6.19,2.47,2.47,0,0,1-1.86,1,3,3,0,0,1-1.05-.3c-4.28-1.85-7.93-4.86-11.52-7.83-4.14-3.43-8.13-7-12.15-10.49-4.54-3.94-9.22-7.84-12.62-12.86a61.6,61.6,0,0,0-4.23-6.12c-4.4-5-11.37-7.22-15.8-12.22a3,3,0,0,1-.34-4.3,20,20,0,0,1,13.57-9.26c4,5.8,10.55,15,18.87,12.07,2-.71,3.75-2.13,5.71-3.06s4.46-1.28,6.14.08a20.54,20.54,0,0,0-2.84,6.3c-1.11,5.6,2,11.45,4.63,16.16,3.64,6.43,7.79,12.58,11.74,18.82Z" transform="translate(-65.76 -36.43)"/><path class="cls-16" d="M426.06,431.83a17.54,17.54,0,0,1-7.24,3.45c-.63.14-.36,1.1.27,1a18.54,18.54,0,0,0,7.68-3.7c.5-.4-.21-1.11-.71-.71Z" transform="translate(-65.76 -36.43)"/><path class="cls-16" d="M423.08,426.07a21.13,21.13,0,0,1-8.24,3c-.64.09-.37,1.05.26,1a21.47,21.47,0,0,0,8.48-3.08c.55-.34.05-1.21-.5-.86Z" transform="translate(-65.76 -36.43)"/><path class="cls-16" d="M421.18,420.72c-2.69.6-5.41,1.08-8.14,1.42-.63.08-.64,1.08,0,1,2.82-.35,5.63-.83,8.4-1.45.63-.14.37-1.1-.26-1Z" transform="translate(-65.76 -36.43)"/><path class="cls-17" d="M404,374.49c-1.46,2.68-3,5.32-4.5,7.95-.43.74,10.67,8.15,11.46,8.65,4.78,3,10.06,5.62,14.56,9.06,9.44-8.18,16.66-18.55,23.78-28.81,12.49-18,28.89-37.52,29.18-60.49.07-5.35-.63-10.83-3.07-15.59-5.33-10.38-17.42-15-28.58-18.45-29-8.88-59-14.88-88.84-19.89l-38.32-6.43c-2.72,16.54-2.78,36.93,13.67,46.47,4.59,2.66,9.79,4.06,14.93,5.36,26.61,6.77,54.64,8.82,80.74,16.62-.93-.27-6.92,16.41-7.45,17.75-1.18,3-2.35,6-3.66,8.89-.85,1.89-1.21,3.87-2.13,5.73-1.68,3.38-3.95,6.44-5.55,9.87C408.12,365.64,406.34,370.15,404,374.49Z" transform="translate(-65.76 -36.43)"/><path class="cls-18" d="M478.46,310.85c.07-5.35-.63-10.83-3.07-15.59-5.33-10.38-17.42-15-28.58-18.45-8.71-2.67-17.51-5.07-26.36-7.26l30.31,16.72c5.09,2.81,10.45,5.89,13.21,11,3.27,6.08,2.07,13.56.12,20.18-5,17.16-14.32,32.63-24.6,47.11-7.07,9.94-15.75,19.63-22.51,30.1a82.46,82.46,0,0,1,8.52,5.48c9.44-8.18,16.66-18.55,23.78-28.81C461.77,353.35,478.17,333.82,478.46,310.85Z" transform="translate(-65.76 -36.43)"/><path class="cls-17" d="M428.7,404a5.93,5.93,0,0,1-2,1.87c-1.74.85-3.77-.13-5.44-1.1-9-5.23-18.85-10.74-25.82-18.62a1.56,1.56,0,0,1-.22-2.33,60.76,60.76,0,0,1,7.47-9.79q16.69,10,32.37,21.5C434.87,395.32,429.2,403.36,428.7,404Z" transform="translate(-65.76 -36.43)"/><line class="cls-19" x1="207.75" y1="414.83" x2="207.75" y2="323.72"/><line class="cls-19" x1="194.64" y1="507.58" x2="194.64" y2="414.83"/><line class="cls-19" x1="194.64" y1="414.83" x2="194.64" y2="323.72"/><line class="cls-19" x1="207.75" y1="507.58" x2="207.75" y2="414.83"/><line class="cls-19" x1="195.93" y1="411.66" x2="241.48" y2="332.76"/><line class="cls-19" x1="160.9" y1="498.54" x2="207.28" y2="418.22"/><line class="cls-19" x1="198.62" y1="409.56" x2="277.53" y2="364.01"/><line class="cls-19" x1="124.86" y1="467.29" x2="205.18" y2="420.92"/><line class="cls-19" x1="202.01" y1="409.09" x2="293.12" y2="409.09"/><line class="cls-19" x1="109.26" y1="422.2" x2="202.01" y2="422.2"/><line class="cls-19" x1="205.18" y1="410.38" x2="284.08" y2="455.94"/><line class="cls-19" x1="118.3" y1="375.36" x2="198.62" y2="421.73"/><line class="cls-19" x1="207.28" y1="413.08" x2="252.84" y2="491.98"/><line class="cls-19" x1="149.55" y1="339.31" x2="195.93" y2="419.63"/><line class="cls-19" x1="207.28" y1="418.22" x2="252.84" y2="339.31"/><line class="cls-19" x1="149.55" y1="491.98" x2="195.93" y2="411.66"/><line class="cls-19" x1="205.18" y1="420.92" x2="284.08" y2="375.36"/><line class="cls-19" x1="118.3" y1="455.94" x2="198.62" y2="409.56"/><line class="cls-19" x1="202.01" y1="422.2" x2="293.12" y2="422.2"/><line class="cls-19" x1="109.26" y1="409.09" x2="202.01" y2="409.09"/><line class="cls-19" x1="198.62" y1="421.73" x2="277.53" y2="467.29"/><line class="cls-19" x1="124.86" y1="364.01" x2="205.18" y2="410.38"/><line class="cls-19" x1="195.93" y1="419.63" x2="241.48" y2="498.54"/><line class="cls-19" x1="160.9" y1="332.76" x2="207.28" y2="413.08"/><path class="cls-7" d="M262.08,464.49l-.36-.09-11.29-15.08,16.15-13H397v62.27Zm5.24-26-14,11.24L263,462.56l131.94,33.38V438.45Z" transform="translate(-65.76 -36.43)"/><circle class="cls-7" cx="201.19" cy="415.65" r="18.21"/><polygon class="cls-14" points="298.33 425.94 314.12 425.94 302.95 414.78 310.88 406.86 322.04 418.02 322.04 402.23 333.24 402.23 333.24 418.02 344.4 406.86 352.33 414.78 341.17 425.94 356.95 425.94 356.95 437.15 341.17 437.15 352.33 448.31 344.4 456.23 333.24 445.07 333.24 460.86 322.04 460.86 322.04 445.07 310.88 456.23 302.95 448.31 314.12 437.15 298.33 437.15 298.33 425.94"/><path class="cls-13" d="M464.18,452.08a91.36,91.36,0,1,0,91.35-91.36A91.35,91.35,0,0,0,464.18,452.08Zm9.31,0a82,82,0,1,1,82,82A82,82,0,0,1,473.49,452.08Z" transform="translate(-65.76 -36.43)"/><path class="cls-13" d="M175.59,452.08A91.36,91.36,0,1,0,267,360.72,91.35,91.35,0,0,0,175.59,452.08Zm9.31,0a82.05,82.05,0,1,1,82,82A82,82,0,0,1,184.9,452.08Z" transform="translate(-65.76 -36.43)"/><line class="cls-19" x1="496.33" y1="414.83" x2="496.33" y2="323.72"/><line class="cls-19" x1="483.22" y1="507.58" x2="483.22" y2="414.83"/><line class="cls-19" x1="483.22" y1="414.83" x2="483.22" y2="323.72"/><line class="cls-19" x1="496.33" y1="507.58" x2="496.33" y2="414.83"/><line class="cls-19" x1="484.51" y1="411.66" x2="530.07" y2="332.76"/><line class="cls-19" x1="449.49" y1="498.54" x2="495.86" y2="418.22"/><line class="cls-19" x1="487.21" y1="409.56" x2="566.11" y2="364.01"/><line class="cls-19" x1="413.44" y1="467.29" x2="493.76" y2="420.92"/><line class="cls-19" x1="490.59" y1="409.09" x2="581.71" y2="409.09"/><line class="cls-19" x1="397.85" y1="422.2" x2="490.59" y2="422.2"/><line class="cls-19" x1="493.76" y1="410.38" x2="572.67" y2="455.94"/><line class="cls-19" x1="406.89" y1="375.36" x2="487.21" y2="421.73"/><line class="cls-19" x1="495.86" y1="413.08" x2="541.42" y2="491.98"/><line class="cls-19" x1="438.14" y1="339.31" x2="484.51" y2="419.63"/><line class="cls-19" x1="495.86" y1="418.22" x2="541.42" y2="339.31"/><line class="cls-19" x1="438.14" y1="491.98" x2="484.51" y2="411.66"/><line class="cls-19" x1="493.76" y1="420.92" x2="572.67" y2="375.36"/><line class="cls-19" x1="406.89" y1="455.94" x2="487.21" y2="409.56"/><line class="cls-19" x1="490.59" y1="422.2" x2="581.71" y2="422.2"/><line class="cls-19" x1="397.85" y1="409.09" x2="490.59" y2="409.09"/><line class="cls-19" x1="487.21" y1="421.73" x2="566.11" y2="467.29"/><line class="cls-19" x1="413.44" y1="364.01" x2="493.76" y2="410.38"/><line class="cls-19" x1="484.51" y1="419.63" x2="530.07" y2="498.54"/><line class="cls-19" x1="449.49" y1="332.76" x2="495.86" y2="413.08"/><rect class="cls-14" x="349.7" y="277.15" width="6.9" height="134.68" transform="translate(-144.61 69.81) rotate(-15.41)"/><path class="cls-7" d="M458.07,452.08a97.47,97.47,0,1,0,97.46-97.46A97.47,97.47,0,0,0,458.07,452.08Zm9.94,0a87.53,87.53,0,1,1,87.52,87.52A87.52,87.52,0,0,1,468,452.08Z" transform="translate(-65.76 -36.43)"/><path class="cls-7" d="M169.49,452.08A97.46,97.46,0,1,0,267,354.62,97.46,97.46,0,0,0,169.49,452.08Zm9.93,0A87.53,87.53,0,1,1,267,539.6,87.53,87.53,0,0,1,179.42,452.08Z" transform="translate(-65.76 -36.43)"/><path class="cls-14" d="M360.1,467.34a33.3,33.3,0,1,0,33.3-33.29A33.3,33.3,0,0,0,360.1,467.34Zm6.32,0a27,27,0,1,1,27,27A27,27,0,0,1,366.42,467.34Z" transform="translate(-65.76 -36.43)"/><path class="cls-7" d="M518.83,345.43l-16.64-59.77,38.54-7a10.26,10.26,0,0,1,10.2,11.23c-.5,5.3-5.2,8.65-10.5,9.25s-20.51,4.74-20.51,4.74a3.64,3.64,0,0,0,1.63,7.09s14.29-3.83,19.18-4.38c9.92-1.12,18.06-8.31,17.68-18.37a18,18,0,0,0-18.11-17l-44.19,7a2.71,2.71,0,0,0-2.14,1.05,2.75,2.75,0,0,0-.46,2.37l18,64.69A21.3,21.3,0,0,0,518.83,345.43Z" transform="translate(-65.76 -36.43)"/><path class="cls-5" d="M263.61,455.21l2,.21,2.75,1.58.7-1.21,112.78,11.95.42,1.56,9.35-.52,0-.27.06.06,119-119,2.71,9.85,9.58-2.64-16-58.17-9.57,2.64L500.55,313,353.46,329l-8-30.38-9.58,2.64,8.44,31.1L265.27,448.43l-.93-.1-.23,2.13-1.78,3.1,1.37.78Zm91.9-118.74,147.1-16,5.75,20.88L389.92,459.79ZM272.79,449.23l74.15-107.46,32.89,118.81Z" transform="translate(-65.76 -36.43)"/><path class="cls-7" d="M353,280.5A51.54,51.54,0,0,1,367.2,279c2.28.12,9.29,2.54,8-2.22-1.4-5.1-7.83-5.43-12.05-5.29l-56.24,1.87c-2.1.06-4.74.55-5.22,2.59a4.18,4.18,0,0,0,.28,2.31c2.12,6,8.21,9.87,14.45,10.87s12.63-.46,18.62-2.5S346.83,282,353,280.5Z" transform="translate(-65.76 -36.43)"/><circle class="cls-20" cx="489.78" cy="415.65" r="8.08"/><circle class="cls-20" cx="201.19" cy="415.65" r="8.08"/><path class="cls-13" d="M400.39,477.09l3.95,45.1-9,1.17-7.73-44.61a6.46,6.46,0,0,1,5.52-7.49h0A6.44,6.44,0,0,1,400.39,477.09Z" transform="translate(-65.76 -36.43)"/><rect class="cls-14" x="379.68" y="516.61" width="40.33" height="12.32" transform="translate(-126.5 16.21) rotate(-7)"/><path class="cls-13" d="M399.34,518.62a4.19,4.19,0,1,1-3.65,4.67A4.18,4.18,0,0,1,399.34,518.62Z" transform="translate(-65.76 -36.43)"/><path class="cls-7" d="M522,357.07l13.08,50.46,6.54,25.23.41,1.58.41,1.39a23,23,0,0,0,1.09,2.69,22.37,22.37,0,0,0,7.53,8.74,23.5,23.5,0,0,0,2.52,1.49c.44.22.89.41,1.33.62l.69.27.34.13.17.07.09,0,0,0h0c-.32,1,.77-2.27-.73,2.28s-.43,1.25-.77,2.26h0l-.05,0-.11,0-.21-.07-.42-.15-.84-.3c-.55-.23-1.1-.45-1.64-.7a29,29,0,0,1-3.14-1.72,27.76,27.76,0,0,1-5.48-4.61,28.05,28.05,0,0,1-4.13-5.88,32.58,32.58,0,0,1-1.46-3.31l-.56-1.72-.46-1.56-7.31-25-14.63-50Z" transform="translate(-65.76 -36.43)"/><path class="cls-21" d="M561.2,138.81c-2.66,1.95-4.2,5.44-6.28,8a26.87,26.87,0,0,1-8.38,7.18c-1.75.9-3.64,1.52-5.38,2.44-2.37,1.24-4.63,3.06-7.3,3.08-2.1,0-4-1.1-5.81-2.19a20.35,20.35,0,0,1-4.68-3.48,6.78,6.78,0,0,1-1.92-5.34c.31-2.19,1.94-3.74,3-5.56,1.2-2,1.21-4.09,1.76-6.34a76.08,76.08,0,0,1,5.52-15.29,10,10,0,0,1,2.89-4,10.91,10.91,0,0,1,3.13-1.35,290.39,290.39,0,0,1,33-8,3.75,3.75,0,0,1,2.3.07c1.29.62,1.42,2.53.64,3.72a7.57,7.57,0,0,1-3.47,2.4c1.27.48,2.65,1.1,3.21,2.34a3.63,3.63,0,0,1-1,3.85,10.59,10.59,0,0,1-3.61,2.12,4.07,4.07,0,0,1-2.4,7.54c.94,1.65.32,3.81-.88,5.28A22.77,22.77,0,0,1,561.2,138.81Z" transform="translate(-65.76 -36.43)"/><path class="cls-22" d="M531.48,167.18l-.84,1a1.1,1.1,0,0,1-1.95.19c-1.31-1.25-16.46-17.52-17.16-16.36,2.58-4.23,6.24-7,9.91-10.25a3.83,3.83,0,0,1,2-1.17c1.12-.12,2.09.75,2.87,1.57,2.52,2.65,12.18,12.15,11.8,15.76a6.18,6.18,0,0,1-1.62,3.05Z" transform="translate(-65.76 -36.43)"/><path class="cls-23" d="M440.57,186.39c6.92,7,11.19,10.64,19.39,2.67l13.87-13.48c6.64-6.46,13.06-13.21,20.34-19,5.45-4.33,12.46-12,20.2-10.38,3.15.64,5.52,3.15,7.68,5.53,3.69,4.07,10.33,9.59,10.65,15.57a10.26,10.26,0,0,1-.15,2.07c-.95,5.7-5.35,11.38-9.23,15.49-2.37,2.51-4.89,4.46-7.14,7.2a106.22,106.22,0,0,1-8.51,9.47c-8.58,8.24-17.22,16.52-27.16,23s-21.36,11.27-33.25,11.63c-10.89.33-19.07-8.12-27.08-14.4a294.1,294.1,0,0,1-26.72-23.27c-6.51-6.51-12.7-13.63-16.22-22.15C372.66,165.3,373,142.47,389.79,143c11.25.32,21.39,10.91,28.58,18.5C426,169.57,432.72,178.51,440.57,186.39Z" transform="translate(-65.76 -36.43)"/><path class="cls-24" d="M471.48,177.86,460,189.06c-8.2,8-12.47,4.28-19.39-2.67-7.85-7.88-14.53-16.82-22.2-24.94-7.19-7.59-17.33-18.18-28.58-18.5-16.79-.48-17.13,22.35-12.55,33.46,3.52,8.52,9.71,15.64,16.22,22.15a294.1,294.1,0,0,0,26.72,23.27c8,6.28,16.19,14.73,27.08,14.4,11.89-.36,23.31-5.1,33.25-11.63.62-.41,1.23-.85,1.85-1.27A63.46,63.46,0,0,1,471.48,177.86Z" transform="translate(-65.76 -36.43)"/><path class="cls-16" d="M386,498.13a66.32,66.32,0,0,1-13.53,3.09c-1.29.12-12.16.06-12.24-2-.24-6.24-.17-12.52-.7-18.74s-1.49-12.42-1.33-18.68a1.73,1.73,0,0,1,.33-1.18,1.75,1.75,0,0,1,1.09-.42c7.26-1,14.48-1.83,21.78-2.5,1.08,2.85,1.08,6.38,1.1,9.38a84.72,84.72,0,0,0,.84,9.65C383.53,478.6,386.49,498,386,498.13Z" transform="translate(-65.76 -36.43)"/><path class="cls-15" d="M399.34,517.2a65.16,65.16,0,0,1-9.66.39,17.46,17.46,0,0,1-9.34-3.49l-.88,3.6a4.38,4.38,0,0,1-.72,1.8c-1.38,1.73-7.11,2.06-9.19,2.17a25.91,25.91,0,0,1-9-.95,1.25,1.25,0,0,1-.72-.44,1.23,1.23,0,0,1-.13-.6,38.64,38.64,0,0,1,.2-5.27c4.61-.85,9-2.66,13.59-3.8,10.48-2.63,21.3-3.34,32-4.32,5.5-.51,11-1.07,16.46-2,2.35-.4,4.74-1.15,7.08-1.38,2.8-.28,5.44-.24,8.2-1a35.17,35.17,0,0,1,2.08,5.8c-7.51,3.62-15.43,4.74-23.41,6.74-4.7,1.17-9.92,2.57-14.78,2.68C400.54,517.13,399.94,517.16,399.34,517.2Z" transform="translate(-65.76 -36.43)"/><path class="cls-7" d="M428.53,494.88a17.19,17.19,0,0,1,5.22,1.31,6.9,6.9,0,0,1,4.09,4.78,2.44,2.44,0,0,1-.41,2.06,2.94,2.94,0,0,1-.89.63c-4.13,2.15-8.77,3.09-13.35,4-5.26,1.05-10.55,1.89-15.79,2.82-5.92,1-11.9,2.21-17.94,1.69a61.61,61.61,0,0,0-7.42-.57c-6.68.24-12.77,4.28-19.44,4.57a3,3,0,0,1-3.56-2.45,20,20,0,0,1,1.37-16.37c7,.51,18.27,1.24,21.26-7.05.74-2,.71-4.26,1.22-6.36s1.82-4.27,3.94-4.72a20.14,20.14,0,0,0,3.09,6.18c3.65,4.39,10.14,5.69,15.47,6.59,7.29,1.23,14.68,1.88,22,2.74Z" transform="translate(-65.76 -36.43)"/><path class="cls-16" d="M406.8,492.05a17.39,17.39,0,0,1-1.86,7.79c-.28.58.58,1.09.87.51a18.69,18.69,0,0,0,2-8.3.5.5,0,0,0-1,0Z" transform="translate(-65.76 -36.43)"/><path class="cls-16" d="M400.44,490.86A20.78,20.78,0,0,1,397.6,499a.5.5,0,0,0,.86.51,21.91,21.91,0,0,0,3-8.66c.08-.64-.92-.63-1,0Z" transform="translate(-65.76 -36.43)"/><path class="cls-16" d="M395.13,488.84q-1.87,3.77-4.1,7.33c-.34.54.53,1.05.87.5q2.22-3.57,4.09-7.32c.29-.58-.57-1.09-.86-.51Z" transform="translate(-65.76 -36.43)"/><path class="cls-18" d="M387.22,344.92c2.59,10.27,5.19,20.6,6.15,31.15.85,9.47.37,19-.17,28.49q-2.25,39.94-5.78,79.81A80.19,80.19,0,0,1,350.36,482c0-48.54-.15-98.32-17.25-143.75-6-15.85-13.94-31-18.11-47.4-3-11.7-5.16-27-.48-38.41,4.09-9.94,6-16.8,15.41-25.17-.78.87,10.29,10.87,11.19,11.73,6.11,5.82,12.22,10.2,20.25,13.31,1.39.54,2.9,1.1,3.69,2.36a7,7,0,0,1,.78,3c1.39,12.53,5.77,25.34,8.85,37.57Z" transform="translate(-65.76 -36.43)"/><path class="cls-17" d="M342.71,238.38c-2.8,7.23-6.42,14.62-6.48,22.52,0,4,0,8.07,0,12.09s.26,8,.68,11.92a114.67,114.67,0,0,0,4.92,23.26c2.34,7.27,5.3,14.32,8.24,21.35s5.87,14.08,8.17,21.35a108.12,108.12,0,0,1,4.64,23.57c1.37,16.24-.24,32.53-.78,48.76-.57,16.76-.43,33.53.12,50.29.07,2.08.15,4.15.23,6.23,0,.64,1,.65,1,0-.64-16.68-.93-33.37-.54-50.06.38-16.24,2-32.5,1.36-48.75a116.09,116.09,0,0,0-3.16-23.62,161.08,161.08,0,0,0-7.4-21.58c-5.83-14.29-12.22-28.33-14.82-43.66a137,137,0,0,1-1.61-24.36c0-4-.45-8.07.4-12a77.69,77.69,0,0,1,3.77-11.5c.72-1.84,1.46-3.67,2.17-5.51.24-.6-.73-.86-1-.27Z" transform="translate(-65.76 -36.43)"/><path class="cls-17" d="M329.93,227.26c-.79.86,10.63,11.2,11.57,12.09,6.15,5.85,11.5,10.64,20.43,11.93a2.43,2.43,0,0,1,2.87,2.26c1.15,6.4,1.7,14.06,3.8,20.16-11.91.43-23.47.55-35.31,2.18-2.73.38-5.77.94-7.35,3.2-2.8,4.05.35,14.53,1.16,19q1.92,10.62,4.86,21a221.36,221.36,0,0,0,15.29,39.28,34.7,34.7,0,0,0,4.49,7.23c4.35,5,11.05,7.45,15.79,12.12,1.63,1.62,2.91,4.56,1.08,5.94a3.61,3.61,0,0,1-1.87.6c-2.48.2-4.92-.68-7.41-.86-7.58-.55-6.26,11.5-5.83,16.41a563.58,563.58,0,0,1,1,83.3c-1.4-.35-2.79-.73-4.17-1.16,0-48.54-.15-98.32-17.25-143.75-6-15.85-13.94-31-18.11-47.4-3-11.7-5.16-27-.48-38.41C318.61,242.49,320.52,235.63,329.93,227.26Z" transform="translate(-65.76 -36.43)"/><path class="cls-14" d="M313.06,256.83c3.86,1.32,7.7,2.7,11.51,4.17.94.36,1.88.72,2.82,1.1.47.18.94.36,1.4.56a1.37,1.37,0,0,0,1,.16.66.66,0,0,0,.26-1.15.59.59,0,0,0-1,.39c0,.64,1,.64,1,0V262l-.25.43,0,0-.38.05-.14-.19.15-.35s-1.64-.72-1.75-.77l-2-.79c-1.36-.53-2.72-1-4.08-1.55q-4.1-1.52-8.22-2.92c-.61-.21-.87.76-.27,1Z" transform="translate(-65.76 -36.43)"/><path class="cls-17" d="M351.25,483.47a2.7,2.7,0,0,1-2.19-3.32,86.16,86.16,0,0,1,.5-9.77A175,175,0,0,0,370,473.73c6.66.68,13.33.53,20,1.08a99.88,99.88,0,0,1-2.49,10.66.71.71,0,0,1-.21.4.76.76,0,0,1-.47.13c-5.9.24-11.58,1.34-17.6.93A75,75,0,0,1,351.25,483.47Z" transform="translate(-65.76 -36.43)"/><path class="cls-25" d="M412.52,162.5c1.65,1.93,3.21,3.85,3.06,4.11l15.15-24c1.94-3.07,4-6.22,6.94-8.31C430.29,124.81,420.86,119.8,410,115a2.6,2.6,0,0,0-2.22-.26,2.65,2.65,0,0,0-1,1.43,67.74,67.74,0,0,1-12.51,19.31c2.09,3,3.54,6.39,5.37,9.56,1.53,2.66,3.55,4.51,5.35,6.91,1.52,2,2.37,4.37,4,6.4C409.27,158.78,410.94,160.64,412.52,162.5Z" transform="translate(-65.76 -36.43)"/><path class="cls-26" d="M406.79,116.2a2.65,2.65,0,0,1,1-1.43A2.6,2.6,0,0,1,410,115c10.82,4.77,20.25,9.78,27.63,19.31-2.91,2-4.91,5.1-6.81,8.1a84.39,84.39,0,0,0-9.58-5.17c-3-1.33-6.27-2.46-9.52-2-3.94.59-7.1,3.43-10.2,5.94-.93.75-1.87,1.47-2.82,2.18a79.78,79.78,0,0,0-4.46-7.91A67.74,67.74,0,0,0,406.79,116.2Z" transform="translate(-65.76 -36.43)"/><path class="cls-21" d="M464,105.84l.17.15c1.18,1,2.61,1.61,3.85,2.52a5.1,5.1,0,0,1,2.36,3.76,4.49,4.49,0,0,1-.89,2.58,7.54,7.54,0,0,1-10,2,1.55,1.55,0,0,1-.55-.53,1.69,1.69,0,0,1-.13-.81c0-4.45.18-8.59-.9-12.88-.28-1.13-1.92-6.65.44-6.65.45,0,.71.51.88.93C460.46,100.09,461.45,103.6,464,105.84Z" transform="translate(-65.76 -36.43)"/><path class="cls-22" d="M412.39,172.58c-4.38-1.73-8.24-9-10.88-12.58-5.06-6.87-10.7-11.46-16.84-17.41l6.25-10.52a9.88,9.88,0,0,1,2.18-2.82c8.77-6.94,25.88,19.93,30.52,25.13a4.76,4.76,0,0,1,1.46,2.57c.11,1.24-.75,2.34-1.57,3.3L413,172.52C412.89,172.68,412.68,172.69,412.39,172.58Z" transform="translate(-65.76 -36.43)"/><path class="cls-25" d="M424.16,133.75c-2.4-2-4.7-4.11-7.27-6-4.12-3.11-8.77-5.57-12.48-9.17-6.28-6.08-8.19-13.4-7.46-21.86a25.52,25.52,0,0,1,3.34-11.25c3.28-5.28,9-8.42,14.5-11.34,13.36-7.12,32.06-5.9,40.95,7.4,5,7.41,5.11,16.93,5.09,25.84l0,16c0,9.1-3.28,24.68-15.55,23.82-2.38-.16-4.56-1.34-6.64-2.5C433.08,141.59,428.94,137.74,424.16,133.75Z" transform="translate(-65.76 -36.43)"/><path class="cls-27" d="M440,95.21c5.11-1.3,10.24-2.5,15.35-3.78.8-2.06-.94-4.39-3-5-4.51-1.38-9.05,2.35-12.52,4.74a4.49,4.49,0,0,0-1.84,2,1.67,1.67,0,0,0,.93,2.23A2.57,2.57,0,0,0,440,95.21Z" transform="translate(-65.76 -36.43)"/><path class="cls-27" d="M449.75,97.83a4.4,4.4,0,0,1,.57,1c-.08-.24,0,.09.05.13s.07.2.1.3a5.44,5.44,0,0,1,.15.54,3.22,3.22,0,0,1,.1.54c0-.27,0,.08,0,.13s0,.21,0,.32a5,5,0,0,1,0,.55c0,.11,0,.21,0,.32s0,.1,0,.15c0-.13,0-.14,0,0h1.93l-1-4.45a1,1,0,0,0-1.23-.7,1,1,0,0,0-.7,1.23l1,4.46a1,1,0,0,0,1,.73,1,1,0,0,0,1-.73,7.78,7.78,0,0,0-1.15-5.54,1,1,0,1,0-1.73,1Z" transform="translate(-65.76 -36.43)"/><path class="cls-28" d="M400.58,138.54c-.29-2.72-.4-5.53.74-8.08a3.88,3.88,0,0,1,.3-.52c-3.17-2-6.15-2.56-8.52-.69a9.88,9.88,0,0,0-2.18,2.82l-6.25,10.52c6.14,5.95,11.78,10.54,16.84,17.41l.7,1Q401.75,149.75,400.58,138.54Z" transform="translate(-65.76 -36.43)"/><path class="cls-23" d="M410.13,220.22c-3.43,8.14-5.85,17.52-10.45,25-3.24,5.3-6.05,14.14-11.58,17.51-4,2.44-9.56,2.14-12.68,5.63-.62.71-1.26,1.61-2.2,1.61-2.63,0-7.43-2-10.17-2.57-4.56-1-9.11-2.25-13.57-3.68-9-2.84-18-5.17-27.21-7.12-8.31-1.76-12.71-6.22-13.06-15.1a40.48,40.48,0,0,1,8.41-26.15c2.23-2.86,4.85-5.42,7.06-8.3a75.87,75.87,0,0,0,5.82-9.37c5.77-10.37,11.35-21.16,18.45-30.63a84,84,0,0,1,19.85-21.56c4.67-3.56,9.9-6.69,15.72-7.48,27.44-3.73,39,40.23,33.49,60A180.64,180.64,0,0,1,410.13,220.22Z" transform="translate(-65.76 -36.43)"/><path class="cls-29" d="M539.54,135.19c.31,1.24.63,2.48,1,3.7A137.49,137.49,0,0,0,563,137c7.16-1.05,14-1.36,21.23-2q14.32-1.29,28.48-3.88c-.41-6.1-1.71-12.26-2.25-18.44-.88-7.79-1.52-15.54-2.52-23.32a1.3,1.3,0,0,0-.32-.83,1.35,1.35,0,0,0-1.07-.19l-38.07,4.24c-2.12.23-33.74,2.85-33.66,3.7C536,109,536.52,122.7,539.54,135.19Z" transform="translate(-65.76 -36.43)"/><path class="cls-22" d="M534.71,96.29l7.64,6.17,3.78,3.05c1.23,1,2.52,1.84,3.84,2.7,5.2,3.42,10.66,6.37,16.09,9.39a78.9,78.9,0,0,0,8.34,4.27,2.23,2.23,0,0,0,1.66.15,5.8,5.8,0,0,0,1.6-1.19c1.2-1,2.38-2.06,3.56-3.1q6.93-6.18,13.29-13,3.6-3.82,7-7.86c1.07-1.3,2.11-2.62,3.19-3.92s2.1-2.52,3.06-3.86c.38-.52-.49-1-.86-.51-1.68,2.34-3.59,4.53-5.41,6.75s-3.92,4.63-6,6.87q-6.07,6.63-12.71,12.71-1.65,1.52-3.34,3a40.1,40.1,0,0,1-3.43,3c-.69.48-1.52-.07-2.18-.38s-1.43-.67-2.13-1q-2-1-4-2.12c-5.23-2.89-10.51-5.71-15.55-8.93-1.43-.92-2.87-1.83-4.25-2.82s-2.79-2.22-4.17-3.33l-8.33-6.72c-.49-.4-1.21.31-.7.71Z" transform="translate(-65.76 -36.43)"/><path class="cls-25" d="M536,270.87c.3,1.82,1.39,3.21,2.23,4.8l3.07,5.78a2.68,2.68,0,0,1,.39,1.05,2.61,2.61,0,0,1-.13.91c-.94,3.37-3.4,6.27-5.64,8.87a10.52,10.52,0,0,1-2.93,2.64c-1.74.9-3.82.77-5.77.6l-6.91-.57a18.13,18.13,0,0,1-7.12-1.58c-2.89-1.55-4.32-5.42-5.77-8.24a67,67,0,0,1-4.7-11.75,9.19,9.19,0,0,0-1-2.6,8.68,8.68,0,0,0-1.65-1.72c-1.14-1-10.37-7.8-9.83-9.31A27.76,27.76,0,0,1,502.7,247l12.66,10.54c4.83,4,9.57,4.67,15.58,5.59,1.63.25,3.46.62,4.37,2,1,1.55.4,3.61.61,5.45C535.93,270.68,536,270.77,536,270.87Z" transform="translate(-65.76 -36.43)"/><path class="cls-21" d="M400.29,85.43c3.28-5.28,9-8.42,14.5-11.34,9.19-4.9,20.91-5.85,30.23-1.63-.83,3.93-6.63,8.22-8.51,12-2.66,5.33-4.2,11.59-6.23,17.19-1.42,3.94-2.87,8-2.86,12.17,0,5,2.1,9.84,4.44,14.32A123.82,123.82,0,0,0,444,147a20.41,20.41,0,0,1-5.4-2.32c-5.53-3-9.67-6.9-14.45-10.89-2.4-2-4.7-4.11-7.27-6-4.12-3.11-8.77-5.57-12.48-9.17-6.28-6.08-8.19-13.4-7.46-21.86A25.52,25.52,0,0,1,400.29,85.43Z" transform="translate(-65.76 -36.43)"/><path class="cls-27" d="M426.44,90.77c-2.09,1.51-4.42,2.22-5.42,5-.83,2.3-1,4.81-2.28,6.94a1.7,1.7,0,0,1-.82.79c-.84.28-1.55-.65-2-1.42a9.72,9.72,0,0,0-3.27-3.58,4.91,4.91,0,0,0-4.69-.33c-5.1,2.7-2.95,9.07-1.86,13.4,1.16,4.63,0,12-3.81,15.32a1.49,1.49,0,0,1-.71.4c-1.77.21-4.8-8.21-5.41-9.58l-2.84-6.41a39.51,39.51,0,0,1-2.86-7.9c-.85-4.11.08-7.67.5-11.71.29-2.78,0-5.7.13-8.51a18,18,0,0,1,6.32-13.26,31.63,31.63,0,0,1,7.48-4.05c13.45-5.78,27.22-10,41.18-2.68,4.09,2.15,8.47,5.69,9.49,10.47a2.7,2.7,0,0,1-.69,2.6,4,4,0,0,1-2.45.72c-3.58.29-7.16.73-10.71,1.33-2.72.46-6.12.65-8.25,2.62-2.7,2.51-3.3,6.5-6.07,9.06A9.81,9.81,0,0,1,426.44,90.77Z" transform="translate(-65.76 -36.43)"/><path class="cls-21" d="M416.61,103a20.14,20.14,0,0,0-4.8-4.51,6.76,6.76,0,0,0-6.32-.56,6.18,6.18,0,0,0-3.1,5.42,10.76,10.76,0,0,0,2.11,6.1,17.27,17.27,0,0,0,11.17,7.12" transform="translate(-65.76 -36.43)"/><path class="cls-27" d="M408.42,105a14.26,14.26,0,0,1,5.77,6.57,1,1,0,0,0,1.73-1,16.13,16.13,0,0,0-6.49-7.3,1,1,0,0,0-1,1.73Z" transform="translate(-65.76 -36.43)"/><path class="cls-22" d="M496.48,271l-.69-.83a1.12,1.12,0,0,1-.32-.63,1.14,1.14,0,0,1,.23-.6c.95-1.49,12.33-20.09,11.51-20.39,4.67,1.68,8.08,4.72,12,7.65A3.8,3.8,0,0,1,520.8,258c.34,1.08-.31,2.2-1,3.13a72.71,72.71,0,0,1-13.61,14.69c-1.09.89-2.43,1.81-3.8,1.47a4.75,4.75,0,0,1-2.33-1.84Z" transform="translate(-65.76 -36.43)"/><path class="cls-24" d="M405.06,192.5q-3.22-7.8-6.44-15.61c-4.82-11.69-9.65-25-4.55-36.57.21-.48.39-.94.56-1.4a22.24,22.24,0,0,0-10.11-.88c-5.82.79-11,3.92-15.72,7.48A84,84,0,0,0,349,167.08c-7.1,9.47-12.68,20.26-18.45,30.63a75.87,75.87,0,0,1-5.82,9.37c-2.21,2.88-4.83,5.44-7.06,8.3a40.48,40.48,0,0,0-8.41,26.15,16.39,16.39,0,0,0,2.84,9.35c1.79-5.2,2.85-10.74,6.32-14.93s8.48-6.21,12.63-9.49c9.68-7.65,13.16-20.58,19.88-30.93a25.8,25.8,0,0,1,7.85-8.28c3.28-2,7.45-2.82,11-1.43,3.85,1.5,6.33,5.15,8.9,8.38a69.94,69.94,0,0,0,25,19.87C417,220.06,407.22,197.75,405.06,192.5Z" transform="translate(-65.76 -36.43)"/><path class="cls-23" d="M436.66,193.89a91.66,91.66,0,0,0,7.65,8.77c5.43,5.43,11.71,9.91,18,14.36,7.3,5.19,13.59,10.68,21.72,14.83s16.77,7.54,23.21,14.17a9,9,0,0,1,2.79,7.31,13.08,13.08,0,0,1-1.88,4.52c-2.84,5-5.21,11.75-10.65,14.46-6.17,3.07-13.54,1.68-20.19-.09-12.82-3.41-26.46-11-37-19a127.72,127.72,0,0,1-10.65-9.49c-14.45-13.87-28.95-27.8-41.24-43.61-5.65-7.27-10.91-15.11-13.34-24-3.17-11.6,0-34.21,16.62-31.64,11.11,1.71,19.86,13.48,26.05,21.91C424.33,175.39,429.85,185.09,436.66,193.89Z" transform="translate(-65.76 -36.43)"/><path class="cls-21" d="M513.08,289c.9.67,1.85,1.69,2.91,1.34.91-.31,1.2-1.46,1.93-2.09a3,3,0,0,1,3.13-.24c1,.42,1.89,1.13,2.88,1.62a3.47,3.47,0,0,0,3.17.19c1-.58,1.42-1.85,2.2-2.74a3.83,3.83,0,0,1,2.8-1.27,7.67,7.67,0,0,0,1.66,0c1.22-.27,1.85-1.62,2.14-2.84s.46-2.57,1.36-3.44a3.52,3.52,0,0,1,2.52-.85l1.48,2.78a2.68,2.68,0,0,1,.39,1.05,2.61,2.61,0,0,1-.13.91c-.94,3.37-3.4,6.27-5.64,8.87a10.52,10.52,0,0,1-2.93,2.64c-1.74.9-3.82.77-5.77.6l-6.91-.57a18.13,18.13,0,0,1-7.12-1.58c-1.92-1-3.2-3.09-4.27-5.19A5.25,5.25,0,0,1,513.08,289Z" transform="translate(-65.76 -36.43)"/><path class="cls-22" d="M370.93,275.07l1.81.39a2,2,0,0,0,1.08,0,2,2,0,0,0,.95-1c1.39-2.43,2.67-4.94,3.82-7.51-2.86-2-8.29-2.22-11.65-3.22l-14.33-4.26L325,251.27c-4.54-1.35-10.7-1.44-14.61-3.8-.31,2.24-1.9,7.69-1.1,9.74,1,2.67,3.77,2.68,6.26,3.46,6.18,1.93,12.29,4.22,18.54,6,7.95,2.23,16,3.92,24.15,5.41C362.49,272.86,366.68,274.1,370.93,275.07Z" transform="translate(-65.76 -36.43)"/><path class="cls-24" d="M483.34,76.2c2.17-.64,4.87-2.1,4.37-4.32a128,128,0,0,0-24.95,5.77,3.11,3.11,0,0,1-2.07.22,3.08,3.08,0,0,1-1.41-1.48c-4.22-7.43-6.15-16.21-11.67-22.73a8.51,8.51,0,0,0-4.21-3,10,10,0,0,0-4.37.22c-15.71,3.16-46.89,6.38-51,25.67-1.18,5.52-.44,11.26.5,16.83a1.42,1.42,0,0,0,.31.78c2.28,2.34,17.66-1.52,20.67-1.94q12.83-1.83,25.54-4.28Q459.45,83.2,483.34,76.2Z" transform="translate(-65.76 -36.43)"/><path class="cls-23" d="M487.71,71.88a128,128,0,0,0-24.95,5.77,3.11,3.11,0,0,1-2.07.22,3.08,3.08,0,0,1-1.41-1.48c-4.22-7.43-6.15-16.21-11.67-22.73a8.51,8.51,0,0,0-4.21-3,10,10,0,0,0-4.37.22c-2,.41-4.34.82-6.81,1.27-1.42,4.21-.64,9.22.67,13.63,1.53,5.18,3.51,10.3,4.36,15.65a1.73,1.73,0,0,1-.11,1.19,1.76,1.76,0,0,1-1.15.59c-4.32.93-47.58,9.52-47.68,8.93.07.41.13.83.2,1.24a1.42,1.42,0,0,0,.31.78c2.28,2.34,17.66-1.52,20.67-1.94q12.83-1.83,25.54-4.28,24.42-4.71,48.31-11.71C485.51,75.56,488.21,74.1,487.71,71.88Z" transform="translate(-65.76 -36.43)"/><path class="cls-22" d="M359.79,248.12a60.94,60.94,0,0,0-2.12-8c3.89-2.86,10.15-4.37,14.69-6.37,5.09-2.24,10.24-4.11,15.34-6.33a2.09,2.09,0,0,1,1.87-.18,2,2,0,0,1,.71,1l1.59,3.65a1.76,1.76,0,0,1-.74,2.62,60.1,60.1,0,0,1-14.38,8.34C375.6,243.36,360,249.92,359.79,248.12Z" transform="translate(-65.76 -36.43)"/><path class="cls-30" d="M484,231.85c-8.13-4.15-14.42-9.64-21.72-14.83-6.26-4.45-12.54-8.93-18-14.36a91.66,91.66,0,0,1-7.65-8.77c-6.81-8.8-12.33-18.5-18.93-27.51-1.1-1.49-2.27-3.09-3.53-4.71q14.1,24,28.21,48.1c.95,1.62,1.93,3.37,1.79,5.24-.18,2.46-2.19,4.31-3.78,6.19s-2.87,4.65-1.51,6.7c3,.57,5.61-1.88,8.33-3.26,6-3,13.44-.85,19.16,2.73s10.64,8.46,16.73,11.37c6.54,3.13,14.55,4.09,19.27,9.59,2.38,2.78,3.62,6.4,5.87,9.26a12.43,12.43,0,0,0,1.73-4.26,9,9,0,0,0-2.79-7.31C500.77,239.39,492.09,236,484,231.85Z" transform="translate(-65.76 -36.43)"/><path class="cls-27" d="M431.84,121.25l.05,0c2,.85,4-.91,5.79-2.19,6-4.3,14-3.58,21.33-2.68a5.46,5.46,0,0,1,3.12,1,4.56,4.56,0,0,1,1.06,3.91c-.41,3.86,1,8.55-.1,12.2a29.78,29.78,0,0,1-1.58,3.33c-1.75,3.9-.76,8.41-1,12.68a5.22,5.22,0,0,1-.57,2.34,4.94,4.94,0,0,1-2.23,1.77c-4.45,2.12-8.83,1.18-13.46.79A23.26,23.26,0,0,1,431,148.91c-6.82-6-9.49-15.37-10.81-24.35s-1.67-18.26-5.21-26.62c1.54-3.06,3.28-3.19,6.14-4.4a5.7,5.7,0,0,1,1.33,3.92c.55,7.6,2.73,16.71,7.92,22.54A4.8,4.8,0,0,0,431.84,121.25Z" transform="translate(-65.76 -36.43)"/><path class="cls-21" d="M443.65,124.34a8.63,8.63,0,0,0,15.64,2.38c.71-1.07-1-2.08-1.73-1a6.63,6.63,0,0,1-12-1.9,1,1,0,0,0-1.93.53Z" transform="translate(-65.76 -36.43)"/><path class="cls-25" d="M534.57,143c-3.84,2.48-7.94.42-8.36-4.06a27.73,27.73,0,0,1,2.89-14,11.74,11.74,0,0,1,5.71-5.79,17.24,17.24,0,0,1,4.67-1l18.91-2.33a1.59,1.59,0,0,1,1.06.12,1.33,1.33,0,0,1,.48.82c.63,2.66-1.63,5.26-4.18,6.26s-5.38,1-8.06,1.49a3.71,3.71,0,0,0-2.17,1,4.4,4.4,0,0,0-.76,2.2A23.33,23.33,0,0,1,534.57,143Z" transform="translate(-65.76 -36.43)"/><path class="cls-13" d="M265.31,451.05a4.5,4.5,0,0,1-2.95-1.11l-81.43-70.25a10.15,10.15,0,0,1-3.51-7.67V355.26a10.13,10.13,0,0,1,10.13-10.13H314.29l4.26-7.95,3.52,1.89L318.38,346a6,6,0,0,1-5.29,3.17H289.88l-20.07,98.11a4.7,4.7,0,0,1-2.42,3.31A4.58,4.58,0,0,1,265.31,451.05ZM187.55,349.13a6.14,6.14,0,0,0-6.13,6.13V372a6.14,6.14,0,0,0,2.13,4.64L265,446.91a.54.54,0,0,0,.53.11.53.53,0,0,0,.36-.41l19.94-97.48Z" transform="translate(-65.76 -36.43)"/><path class="cls-31" d="M186.3,331c-9.06,1.26-19.12,3.5-24.12,11.16-2.79,4.25-3.49,9.49-4.09,14.54q-5.57,47.17-6.64,94.75c-.12,5.54-.15,11.34,2.36,16.29,2.23,4.41,6.25,7.65,10.49,10.2,10.37,6.21,22.45,8.93,34.43,10.55a218.09,218.09,0,0,0,91.15-7.09c8.13-2.42,17.17-6.37,19.55-14.51a27.41,27.41,0,0,0,.69-7.94l-1.2-111.64c0-4.07-.13-8.31-2.06-11.89-3-5.54-9.68-8.06-16-8.63-16.7-1.52-33.92.6-50.67.56A384.56,384.56,0,0,0,186.3,331Z" transform="translate(-65.76 -36.43)"/><path class="cls-27" d="M308.93,348.25v-.91c0-4.07-.13-8.31-2.06-11.89-3-5.54-9.68-8.06-16-8.63-16.7-1.52-33.92.6-50.67.56A384.56,384.56,0,0,0,186.3,331c-9.06,1.26-19.12,3.5-24.12,11.16-2.79,4.25-3.49,9.49-4.09,14.54q-3.33,28.17-5,56.49c5.85,5.24,13.84,7.87,22.26,9.78a193.44,193.44,0,0,0,110.06-7.31c4-1.51,8.1-3.24,11-6.36,5.58-5.93,5.52-15,5.8-23.15a145.33,145.33,0,0,1,4.94-32.78A31,31,0,0,1,308.93,348.25Z" transform="translate(-65.76 -36.43)"/><path class="cls-31" d="M299.49,375.87c-.06,10.73-.28,23.22-8.84,29.69-4.51,3.41-10.4,4.26-16,5-34.52,4.4-69.86,7.82-103.86.42-9.71-2.12-18.79-3.07-22.41-14.1-2.28-7-1.31-14.52.06-21.7A204.1,204.1,0,0,1,154.28,352c1.19-3.75,2.53-7.54,4.94-10.64,2.71-3.49,6.59-5.88,10.6-7.75,15.63-7.32,33.5-7.71,50.76-8l44.25-.66c11.55-.17,28.84-3.39,39.1,3.46,4.1,2.74,6.88,8,5.4,12.7a2,2,0,0,1-1,1.36,9.66,9.66,0,0,1-1.55-2.84c-1.47-3.2-4.42-3-5.77-.1s.18,7.44-.15,10.7Q299.57,363.05,299.49,375.87Z" transform="translate(-65.76 -36.43)"/><path class="cls-27" d="M194.75,327c-4,11.57-9,22.79-13.18,34.32-4.71,13.11-8.34,26.84-7.95,40.76.09,3.17.38,6.36.32,9.52q3.42.67,6.85,1.21,2.93-19.9,6.54-39.7a237.48,237.48,0,0,1,6.59-28.51,103.48,103.48,0,0,1,5.38-13.82c.69-1.43,1.29-2.91,1.88-4.4C199,326.54,196.88,326.74,194.75,327Z" transform="translate(-65.76 -36.43)"/><path class="cls-27" d="M183,485.23c-2.55-4.94-3-10.67-3.24-16.22q-1.38-26.86-.35-53.78c-2.76-.71-6.57-1.91-9.35-1.57-.91.11-1.65,23.74-1.72,25.6q-.51,14.63.35,29.26c.25,4.37.67,8.94,3.05,12.61a9.43,9.43,0,0,0,.66.9,79.12,79.12,0,0,0,10.16,3.39C182.73,485.36,182.88,485.31,183,485.23Z" transform="translate(-65.76 -36.43)"/><path class="cls-26" d="M166.08,468.52c.25,4.37.67,8.94,3,12.61s7.34,6.05,11.26,4.1c-2.55-4.94-3-10.67-3.24-16.22q-1-18.64-.76-37.34c.05-4,3-41.16,4-40.93l-8.65-2a2.56,2.56,0,0,0-.91-.08c-.93.15-1.31,1.27-1.49,2.2-3.14,15.9-3,32.23-3.6,48.36Q165.22,453.89,166.08,468.52Z" transform="translate(-65.76 -36.43)"/><path class="cls-26" d="M172.05,386.61a2,2,0,0,0,.09,1.27,2,2,0,0,0,1.61.73,50.33,50.33,0,0,0,9,.15c1.32-17.6,6.4-34.67,11.45-51.58.26-.87,4.22-9.84,4.45-9.64-1.94-1.63-4.75-1.5-7.26-1.28a11.34,11.34,0,0,0-3.43.66c-2.27,1-3,3.79-3.73,5.92C178.39,350,174.79,368.65,172.05,386.61Z" transform="translate(-65.76 -36.43)"/><path class="cls-27" d="M256.22,368.29c-.41-14.41-.75-28.79-1.9-43.11l-7.73.11a18.66,18.66,0,0,0-.65,2,111.82,111.82,0,0,0-2.4,17.08c-.92,10.7-.36,21.47.24,32.17a64.58,64.58,0,0,0,1.06,9.91c.62,2.91,1.63,5.73,2.41,8.6a96.7,96.7,0,0,1,2.66,18.34c3.34-.32,6.67-.68,10-1.05A403.17,403.17,0,0,1,256.22,368.29Z" transform="translate(-65.76 -36.43)"/><path class="cls-27" d="M266.79,483.08A616.32,616.32,0,0,1,259,416.71c-.83,0-12.91,0-12.95.18-1,4.88.21,10.71.6,15.71q.65,8.53,1.48,17,1.6,16.64,3.85,33.2c.29,2.12.66,4.38,1.95,6q7.42-.89,14.8-2.29A5.33,5.33,0,0,1,266.79,483.08Z" transform="translate(-65.76 -36.43)"/><path class="cls-26" d="M257.17,416.77l-.36-3.31c-.81-7.55-2-15.23-.69-22.79q-7.53.75-15.1.86c1.22,13.72,3.21,27.35,4.26,41.07q.66,8.53,1.48,17,1.62,16.64,3.86,33.2c.33,2.42.77,5,2.55,6.69,2.14,2,5.41,1.9,8.32,1.7,3.14-.22,7.2-1.36,7.25-4.5-1.77.58-2.95-1.81-3.27-3.66q-4.08-23.56-6.34-47.4C258.54,429.35,257.85,423.05,257.17,416.77Z" transform="translate(-65.76 -36.43)"/><path class="cls-26" d="M239.42,337.12c-.27,16.95-2.41,35.41,1.37,52.05.2.88,11.52-.78,12.47-1l-.77-51.41-.17-11.56c0-1.42-8.6-.45-9.71.25C238.66,328,239.48,333.11,239.42,337.12Z" transform="translate(-65.76 -36.43)"/><path class="cls-32" d="M183.65,399.09a4.84,4.84,0,0,0,.77-2.27l.89-6.32a8.15,8.15,0,0,0-.11-4.05c-1-2.47-5.52-2.49-7.64-2.64-1.81-.13-7.17-1.44-8.43-.69-1.08.64-1.48,2-1.76,3.21a90.68,90.68,0,0,0-1.63,9.12,2.26,2.26,0,0,0,.26,1.72,2.17,2.17,0,0,0,1,.6,37,37,0,0,0,14.68,2.09,3.32,3.32,0,0,0,1.43-.32A1.92,1.92,0,0,0,183.65,399.09Z" transform="translate(-65.76 -36.43)"/><path class="cls-32" d="M255.41,398.28l.93-.16a2.94,2.94,0,0,0,1.09-.33c2.38-1.45,0-9.57-.1-11.88-.08-1.31-.34-2.88-1.55-3.39a3.61,3.61,0,0,0-1.79-.1c-5.33.62-11.93-.08-16.93,1.74a2,2,0,0,0-1,.62,2,2,0,0,0-.24,1.21c0,1.44-.31,13.22,1.94,13.22C241.61,402.19,251.21,399,255.41,398.28Z" transform="translate(-65.76 -36.43)"/><path class="cls-33" d="M255.41,398.28l.93-.16a2.94,2.94,0,0,0,1.09-.33c2.38-1.45,0-9.57-.1-11.88-.08-1.31-.34-2.88-1.55-3.39a2.25,2.25,0,0,0-.81-.16,14.45,14.45,0,0,0,.11,2.79c.26,2.25.53,4.5.79,6.74a3.66,3.66,0,0,1-.48,2.88,3.58,3.58,0,0,1-2.33.9l-14.29,1.88a13.9,13.9,0,0,0-2.06.41c.27.77.62,1.25,1.07,1.25C241.61,402.19,251.21,399,255.41,398.28Z" transform="translate(-65.76 -36.43)"/><path class="cls-33" d="M181.69,399.86a3.32,3.32,0,0,0,1.43-.32,1.92,1.92,0,0,0,.53-.45,4.84,4.84,0,0,0,.77-2.27q.44-3.17.89-6.32a8.15,8.15,0,0,0-.11-4.05,2.78,2.78,0,0,0-1.06-1.27,37.16,37.16,0,0,0-2.18,8.36,6.07,6.07,0,0,1-1.15,3.41c-1,1-2.55,1.16-4,1.14a38.75,38.75,0,0,1-10.14-1.5,6.59,6.59,0,0,0-1-.22,1.4,1.4,0,0,0,.3.8,2.17,2.17,0,0,0,1,.6A37,37,0,0,0,181.69,399.86Z" transform="translate(-65.76 -36.43)"/><path class="cls-13" d="M590.34,454.4H558.11a6,6,0,0,1-5.79-4.41l-27-98a6,6,0,0,1,5.78-7.59h86.44a2,2,0,0,0,1.73-1l4.12-7.17,3.47,2-4.12,7.17a6,6,0,0,1-5.2,3H596.34v100A6,6,0,0,1,590.34,454.4Zm-59.26-106a2,2,0,0,0-1.59.79,2,2,0,0,0-.34,1.74l27,98a2,2,0,0,0,1.93,1.47h32.23a2,2,0,0,0,2-2v-100Z" transform="translate(-65.76 -36.43)"/><rect class="cls-13" x="480.35" y="384.21" width="48.23" height="4"/><rect class="cls-13" x="473.24" y="354.13" width="55.34" height="4"/><path class="cls-31" d="M539.58,414.17a9.14,9.14,0,0,0,2,3.74c1.37,1.31,3.33,1.74,5.19,2.1,20.62,3.95,42.63,5,62-3.13,3.37-1.42,6.84-3.33,8.43-6.62,1.13-2.34,1.13-5,1.11-7.63L618,358.71l-.13-18.85c0-4.59-.5-10-4.41-12.38-1.93-1.19-4.31-1.33-6.57-1.43-18.39-.83-37.16-2.4-55.5-.82a51.92,51.92,0,0,0-10.37,1.6c-2.24.65-4.62,1.39-6,3.22s-1.59,4.5-1.63,6.91c-.16,10.48.24,20.8.24,31.27C533.53,383.72,534.54,399.41,539.58,414.17Z" transform="translate(-65.76 -36.43)"/><path class="cls-27" d="M618,357.62l-.13-17.76c0-4.59-.5-10-4.41-12.38-1.93-1.19-4.31-1.33-6.57-1.43-18.39-.83-37.16-2.4-55.5-.82a51.92,51.92,0,0,0-10.37,1.6c-2.24.65-4.62,1.39-6,3.22a9.73,9.73,0,0,0-1.6,5.75c.36,3.13.94,6.34,1,8.8.29,6.19.82,12.38,1.59,18.53a6.85,6.85,0,0,0,1,3.22c.91,1.28,2.54,1.78,4.07,2.13a99.48,99.48,0,0,0,14.81,1.89c17.88,1.37,36.51,2.63,53.11-4.13,3.22-1.3,6.51-3.08,8.13-6.15A10.74,10.74,0,0,0,618,357.62Z" transform="translate(-65.76 -36.43)"/><path class="cls-31" d="M613.47,327.48c-1.93-1.19-4.31-1.33-6.57-1.43-18.39-.83-37.16-2.4-55.5-.82a51.92,51.92,0,0,0-10.37,1.6c-2.24.65-4.62,1.39-6,3.22a7.73,7.73,0,0,0-1.45,3.91c5.4,2.93,5.16,19.79,5.36,24a9.74,9.74,0,0,0,.77,4.09c1.33,2.52,4.56,3.23,7.38,3.6,18,2.36,37.43,2.44,55.31-.92,5.41-1,11.63-1.63,12.38-8.11.29-2.52-.08-5.08.2-7.61.15-1.32.48-2.61.66-3.93.44-3.19-.35-6.64.12-9.74.15-1-.19-1.45.47-2.44a3.35,3.35,0,0,1,.78-.59A8.35,8.35,0,0,0,613.47,327.48Z" transform="translate(-65.76 -36.43)"/><path class="cls-27" d="M577.42,423a22.37,22.37,0,0,0-.15-2.45c-1.62-16.36-2.88-33.48-1.14-49.8,0-.25,0-.63.08-1.14.37-6.71.9-35,.46-44.93q-3.69-.1-7.37-.11c-.61,8.22-.13,16.47,0,24.72.26,13-.85,25.76-.61,38.74q.25,13.61.07,27.21a28.07,28.07,0,0,0,.63,7.62Q573.43,423,577.42,423Z" transform="translate(-65.76 -36.43)"/><path class="cls-26" d="M570.73,420.13c.09,1.07.21,2.13.37,3.16.7,0,8.55-.31,8.56-.55.08-3.85.08-7.7.1-11.55q.13-22.65.2-45.29c0-6.23.25-12.46.38-18.69,0-1.83,1.28-23.43.44-23.73a13.52,13.52,0,0,0-7.81-.42c-2.18.54-.91,6.72-1,9-.15,4.38-.36,8.75-.42,13.13l-.33,24.59L570.84,399C570.75,405.77,570.14,413.3,570.73,420.13Z" transform="translate(-65.76 -36.43)"/><path class="cls-32" d="M581.62,359.54c2.42-1.87.76-6.68.79-9.21a3.1,3.1,0,0,0-.65-2.38,3,3,0,0,0-2.15-.54c-3.12,0-6.24,0-9.36,0a1.41,1.41,0,0,0-.84.18,1.37,1.37,0,0,0-.41,1.06c-.23,2.82-1,7.82.44,10.39.64,1.13,2.19,1.27,3.48,1.28l4.88,0a6.8,6.8,0,0,0,3.5-.62A3.62,3.62,0,0,0,581.62,359.54Z" transform="translate(-65.76 -36.43)"/><path class="cls-33" d="M578.5,359.57a29.62,29.62,0,0,1-6.06-1.08,1.73,1.73,0,0,1-.78-.38,1.75,1.75,0,0,1-.41-.94,41.77,41.77,0,0,1-.84-6.69,25.46,25.46,0,0,1,0-3h-.11a1.41,1.41,0,0,0-.84.18,1.37,1.37,0,0,0-.41,1.06c-.23,2.82-1,7.82.44,10.39.64,1.13,2.19,1.27,3.48,1.28l4.88,0a7,7,0,0,0,3.38-.57C580.3,359.67,579.39,359.63,578.5,359.57Z" transform="translate(-65.76 -36.43)"/></svg>