<svg xmlns="http://www.w3.org/2000/svg" xmlns:xlink="http://www.w3.org/1999/xlink" viewBox="0 0 651.42 457.28"><defs><style>.cls-1{isolation:isolate;}.cls-2{opacity:0.42;}.cls-3{fill:#fff;}.cls-4{opacity:0.94;}.cls-5{fill:url(#linear-gradient);}.cls-6{fill:url(#linear-gradient-2);}.cls-7{fill:url(#linear-gradient-3);}.cls-8{fill:url(#linear-gradient-4);}.cls-9{fill:url(#linear-gradient-5);}.cls-10{fill:url(#linear-gradient-6);}.cls-11{fill:url(#linear-gradient-7);}.cls-12{fill:url(#linear-gradient-8);}.cls-13{fill:url(#linear-gradient-9);}.cls-14{fill:url(#linear-gradient-10);}.cls-15{fill:#cec4d6;}.cls-16{fill:#e5dfe9;}.cls-17{fill:url(#linear-gradient-11);}.cls-18{fill:url(#linear-gradient-12);}.cls-19{fill:#5c479e;}.cls-20{fill:#aca5b5;}.cls-21{fill:#c0b8cc;}.cls-22{fill:#34254c;}.cls-23{fill:#51347f;}.cls-24{fill:url(#linear-gradient-13);}.cls-25{fill:url(#linear-gradient-14);}.cls-26{fill:url(#linear-gradient-15);}.cls-27{fill:url(#linear-gradient-16);}.cls-28{fill:url(#linear-gradient-17);}.cls-29{fill:url(#linear-gradient-18);}.cls-30{fill:url(#linear-gradient-19);}.cls-31{fill:url(#linear-gradient-20);}.cls-32{fill:url(#linear-gradient-21);}.cls-33{fill:url(#linear-gradient-22);}.cls-34{fill:url(#linear-gradient-23);}.cls-35{fill:url(#linear-gradient-24);}.cls-36{fill:url(#linear-gradient-25);}.cls-37{fill:url(#linear-gradient-26);}.cls-38{fill:#c8b8d3;}.cls-39{fill:url(#linear-gradient-27);}.cls-40{fill:url(#linear-gradient-28);}.cls-41{fill:url(#linear-gradient-29);}.cls-42{fill:url(#linear-gradient-30);}.cls-43{fill:url(#linear-gradient-31);}.cls-44{fill:url(#linear-gradient-32);}.cls-45{fill:url(#linear-gradient-33);}.cls-46{fill:url(#linear-gradient-34);}.cls-47{fill:url(#linear-gradient-35);}.cls-48{fill:#2d2244;}.cls-49{fill:url(#linear-gradient-36);}.cls-50{fill:url(#linear-gradient-37);}.cls-51{fill:url(#linear-gradient-38);}.cls-52{fill:url(#linear-gradient-39);}.cls-53{fill:url(#linear-gradient-40);}.cls-54{fill:url(#linear-gradient-41);}.cls-55{fill:url(#linear-gradient-42);}.cls-56{fill:url(#linear-gradient-43);}.cls-57{fill:url(#linear-gradient-44);}.cls-58{fill:url(#linear-gradient-45);}.cls-59{fill:url(#linear-gradient-46);}.cls-60{fill:url(#linear-gradient-47);}.cls-61{fill:url(#linear-gradient-48);}.cls-62{fill:url(#linear-gradient-49);}.cls-63{fill:url(#linear-gradient-50);}.cls-64{fill:url(#linear-gradient-51);}.cls-65{fill:url(#linear-gradient-52);}.cls-66{fill:url(#linear-gradient-53);}.cls-67{fill:url(#linear-gradient-54);}.cls-68{fill:url(#linear-gradient-55);}.cls-69{fill:url(#linear-gradient-56);}.cls-70{fill:url(#linear-gradient-57);}.cls-71{fill:url(#linear-gradient-58);}.cls-72{fill:url(#linear-gradient-59);}.cls-73{fill:url(#linear-gradient-60);}.cls-74{fill:url(#linear-gradient-61);}.cls-75{fill:url(#linear-gradient-62);}.cls-76{fill:url(#linear-gradient-63);}.cls-77{fill:url(#linear-gradient-64);}.cls-78{fill:url(#linear-gradient-65);}.cls-79{fill:url(#linear-gradient-66);}.cls-80{fill:#988ca5;}.cls-81{fill:url(#linear-gradient-67);}.cls-82{fill:url(#linear-gradient-68);}.cls-83,.cls-84{mix-blend-mode:overlay;}.cls-83{fill:url(#linear-gradient-69);}.cls-84{opacity:0.57;fill:url(#linear-gradient-70);}</style><linearGradient id="linear-gradient" x1="310.11" y1="195.34" x2="357.53" y2="195.34" gradientTransform="matrix(1, -0.07, 0.07, 1, -17.62, 23.55)" gradientUnits="userSpaceOnUse"><stop offset="0" stop-color="#34254c"/><stop offset="1" stop-color="#51397f"/></linearGradient><linearGradient id="linear-gradient-2" x1="302.23" y1="249.88" x2="357.35" y2="249.88" gradientTransform="matrix(1, -0.07, 0.07, 1, -17.62, 23.55)" gradientUnits="userSpaceOnUse"><stop offset="0" stop-color="#e1dae5"/><stop offset="1" stop-color="#f7f4f9"/></linearGradient><linearGradient id="linear-gradient-3" x1="285.59" y1="224.41" x2="301.1" y2="224.41" gradientTransform="matrix(1, -0.07, 0.07, 1, -17.62, 23.55)" gradientUnits="userSpaceOnUse"><stop offset="0" stop-color="#c8b8d3"/><stop offset="1" stop-color="#c8b8d3" stop-opacity="0.3"/></linearGradient><linearGradient id="linear-gradient-4" x1="283.44" y1="239.28" x2="348.67" y2="239.28" xlink:href="#linear-gradient-3"/><linearGradient id="linear-gradient-5" x1="306.55" y1="288.46" x2="319.95" y2="288.46" gradientTransform="matrix(1, -0.07, 0.07, 1, -17.62, 23.55)" gradientUnits="userSpaceOnUse"><stop offset="0" stop-color="#c8b8d3" stop-opacity="0.9"/><stop offset="1" stop-color="#c8b8d3" stop-opacity="0.3"/></linearGradient><linearGradient id="linear-gradient-6" x1="317.83" y1="260.5" x2="358.47" y2="260.5" xlink:href="#linear-gradient-5"/><linearGradient id="linear-gradient-7" x1="353.08" y1="281.24" x2="370.69" y2="281.24" xlink:href="#linear-gradient-5"/><linearGradient id="linear-gradient-8" x1="381.32" y1="249.02" x2="365.71" y2="257.22" gradientTransform="matrix(1, -0.07, 0.07, 1, -17.62, 23.55)" gradientUnits="userSpaceOnUse"><stop offset="0" stop-color="#fff"/><stop offset="1" stop-color="#fff" stop-opacity="0"/></linearGradient><linearGradient id="linear-gradient-9" x1="308.13" y1="196.28" x2="318.54" y2="213.55" xlink:href="#linear-gradient-3"/><linearGradient id="linear-gradient-10" x1="360.15" y1="187.43" x2="351.01" y2="203.67" xlink:href="#linear-gradient-8"/><linearGradient id="linear-gradient-11" x1="309.5" y1="237.69" x2="349.51" y2="237.69" xlink:href="#linear-gradient"/><linearGradient id="linear-gradient-12" x1="316.42" y1="238.94" x2="363.54" y2="236.97" gradientTransform="matrix(1, -0.07, 0.07, 1, -17.62, 23.55)" gradientUnits="userSpaceOnUse"><stop offset="0" stop-color="#2d2244"/><stop offset="1" stop-color="#3e2c5e" stop-opacity="0"/></linearGradient><linearGradient id="linear-gradient-13" x1="313.47" y1="195.31" x2="321.36" y2="221.28" gradientTransform="matrix(1, -0.07, 0.07, 1, -17.62, 23.55)" gradientUnits="userSpaceOnUse"><stop offset="0" stop-color="#ce1d3b"/><stop offset="1" stop-color="#ed202e"/></linearGradient><linearGradient id="linear-gradient-14" x1="347.74" y1="183.61" x2="352.58" y2="205.79" xlink:href="#linear-gradient-13"/><linearGradient id="linear-gradient-15" x1="320.19" y1="222.3" x2="343.42" y2="220.83" gradientTransform="matrix(1, -0.07, 0.07, 1, -17.62, 23.55)" gradientUnits="userSpaceOnUse"><stop offset="0" stop-color="#a193ad"/><stop offset="1" stop-color="#cec4d6"/></linearGradient><linearGradient id="linear-gradient-16" x1="336.94" y1="230.85" x2="333.77" y2="206.29" xlink:href="#linear-gradient-2"/><linearGradient id="linear-gradient-17" x1="321.3" y1="233.4" x2="334.02" y2="221.83" gradientTransform="matrix(1, -0.07, 0.07, 1, -17.62, 23.55)" gradientUnits="userSpaceOnUse"><stop offset="0" stop-color="#cec4d6"/><stop offset="1" stop-color="#cec4d6" stop-opacity="0"/></linearGradient><linearGradient id="linear-gradient-18" x1="327.35" y1="228.39" x2="325.66" y2="217.03" gradientTransform="matrix(1, -0.07, 0.07, 1, -17.62, 23.55)" gradientUnits="userSpaceOnUse"><stop offset="0" stop-color="#34254c"/><stop offset="1" stop-color="#432a68"/></linearGradient><linearGradient id="linear-gradient-19" x1="334.9" y1="227.27" x2="333.22" y2="215.91" xlink:href="#linear-gradient-18"/><linearGradient id="linear-gradient-20" x1="330" y1="223.86" x2="329.17" y2="215.19" xlink:href="#linear-gradient-15"/><linearGradient id="linear-gradient-21" x1="340.53" y1="217.51" x2="343.47" y2="214.36" gradientTransform="matrix(1, -0.07, 0.07, 1, -17.62, 23.55)" gradientUnits="userSpaceOnUse"><stop offset="0" stop-color="#3492b7"/><stop offset="1" stop-color="#4cc8e5"/></linearGradient><linearGradient id="linear-gradient-22" x1="341.5" y1="222.47" x2="344.81" y2="222.47" gradientTransform="matrix(1, -0.07, 0.07, 1, -17.62, 23.55)" gradientUnits="userSpaceOnUse"><stop offset="0" stop-color="#d733db"/><stop offset="1" stop-color="#f43ef9"/></linearGradient><linearGradient id="linear-gradient-23" x1="342.08" y1="203.34" x2="348.21" y2="201.75" gradientTransform="matrix(1, -0.07, 0.07, 1, -17.62, 23.55)" gradientUnits="userSpaceOnUse"><stop offset="0" stop-color="#1e45a5"/><stop offset="1" stop-color="#2265c6"/></linearGradient><linearGradient id="linear-gradient-24" x1="316.29" y1="207.55" x2="327.85" y2="204.71" xlink:href="#linear-gradient"/><linearGradient id="linear-gradient-25" x1="318.85" y1="192.77" x2="349.38" y2="192.77" xlink:href="#linear-gradient"/><linearGradient id="linear-gradient-26" x1="315.2" y1="184.17" x2="311.83" y2="185.01" xlink:href="#linear-gradient-2"/><linearGradient id="linear-gradient-27" x1="349.4" y1="175.81" x2="352.35" y2="175.2" xlink:href="#linear-gradient-2"/><linearGradient id="linear-gradient-28" x1="322.73" y1="161.38" x2="332.51" y2="161.38" xlink:href="#linear-gradient-2"/><linearGradient id="linear-gradient-29" x1="316.73" y1="180.28" x2="349.85" y2="169.13" xlink:href="#linear-gradient-2"/><linearGradient id="linear-gradient-30" x1="325.28" y1="190.33" x2="333.48" y2="161.26" gradientTransform="matrix(1, -0.07, 0.07, 1, -17.62, 23.55)" gradientUnits="userSpaceOnUse"><stop offset="0" stop-color="#c8b8d3"/><stop offset="1" stop-color="#c8b8d3" stop-opacity="0"/></linearGradient><linearGradient id="linear-gradient-31" x1="324.7" y1="194.9" x2="342.05" y2="190.59" xlink:href="#linear-gradient-2"/><linearGradient id="linear-gradient-32" x1="314.42" y1="184.01" x2="354.47" y2="176.86" gradientTransform="matrix(1, -0.07, 0.07, 1, -17.62, 23.55)" gradientUnits="userSpaceOnUse"><stop offset="0" stop-color="#201d21"/><stop offset="1" stop-color="#524b56"/></linearGradient><linearGradient id="linear-gradient-33" x1="309.08" y1="182.99" x2="327.79" y2="181.96" gradientTransform="matrix(1, -0.07, 0.07, 1, -17.62, 23.55)" gradientUnits="userSpaceOnUse"><stop offset="0" stop-color="#111011"/><stop offset="1" stop-color="#111011" stop-opacity="0"/></linearGradient><linearGradient id="linear-gradient-34" x1="336.6" y1="166.9" x2="341.85" y2="182.35" gradientTransform="matrix(1, -0.07, 0.07, 1, -17.62, 23.55)" gradientUnits="userSpaceOnUse"><stop offset="0" stop-color="#ede7f2"/><stop offset="1" stop-color="#ede7f2" stop-opacity="0"/></linearGradient><linearGradient id="linear-gradient-35" x1="343.96" y1="178.87" x2="349.22" y2="186.12" xlink:href="#linear-gradient-34"/><linearGradient id="linear-gradient-36" x1="354.82" y1="253.32" x2="375.67" y2="253.32" xlink:href="#linear-gradient"/><linearGradient id="linear-gradient-37" x1="315.08" y1="267.58" x2="293.55" y2="254.1" xlink:href="#linear-gradient"/><linearGradient id="linear-gradient-38" x1="366.44" y1="219.57" x2="364.23" y2="200.17" xlink:href="#linear-gradient"/><linearGradient id="linear-gradient-39" x1="302.05" y1="217.58" x2="305.73" y2="217.58" xlink:href="#linear-gradient"/><linearGradient id="linear-gradient-40" x1="316.5" y1="207.16" x2="328.07" y2="204.32" xlink:href="#linear-gradient-15"/><linearGradient id="linear-gradient-41" x1="299.94" y1="218.21" x2="281.33" y2="199.75" xlink:href="#linear-gradient-2"/><linearGradient id="linear-gradient-42" x1="281.3" y1="195.73" x2="286.5" y2="195.73" xlink:href="#linear-gradient-2"/><linearGradient id="linear-gradient-43" x1="277.33" y1="202.6" x2="282.9" y2="202.6" xlink:href="#linear-gradient-2"/><linearGradient id="linear-gradient-44" x1="273.98" y1="211.77" x2="282.1" y2="211.77" xlink:href="#linear-gradient-2"/><linearGradient id="linear-gradient-45" x1="274.47" y1="220" x2="284.44" y2="220" xlink:href="#linear-gradient-2"/><linearGradient id="linear-gradient-46" x1="293.67" y1="199.55" x2="289.41" y2="215.32" xlink:href="#linear-gradient-3"/><linearGradient id="linear-gradient-47" x1="305.88" y1="215.51" x2="293.26" y2="206.47" xlink:href="#linear-gradient-3"/><linearGradient id="linear-gradient-48" x1="297.85" y1="197.6" x2="298.9" y2="191.82" xlink:href="#linear-gradient"/><linearGradient id="linear-gradient-49" x1="282.62" y1="197" x2="286.5" y2="197" xlink:href="#linear-gradient"/><linearGradient id="linear-gradient-50" x1="278.04" y1="203.21" x2="282.85" y2="203.21" xlink:href="#linear-gradient"/><linearGradient id="linear-gradient-51" x1="278.2" y1="213.07" x2="282.1" y2="213.07" xlink:href="#linear-gradient"/><linearGradient id="linear-gradient-52" x1="279.68" y1="220.78" x2="284.44" y2="220.78" xlink:href="#linear-gradient"/><linearGradient id="linear-gradient-53" x1="-384.61" y1="233" x2="-403.22" y2="214.55" gradientTransform="matrix(-0.99, 0.12, 0.12, 0.99, -45.81, 25.36)" xlink:href="#linear-gradient-2"/><linearGradient id="linear-gradient-54" x1="-403.25" y1="210.52" x2="-398.05" y2="210.52" gradientTransform="matrix(-0.99, 0.12, 0.12, 0.99, -45.81, 25.36)" xlink:href="#linear-gradient-2"/><linearGradient id="linear-gradient-55" x1="-407.22" y1="217.39" x2="-401.65" y2="217.39" gradientTransform="matrix(-0.99, 0.12, 0.12, 0.99, -45.81, 25.36)" xlink:href="#linear-gradient-2"/><linearGradient id="linear-gradient-56" x1="-410.57" y1="226.57" x2="-402.45" y2="226.57" gradientTransform="matrix(-0.99, 0.12, 0.12, 0.99, -45.81, 25.36)" xlink:href="#linear-gradient-2"/><linearGradient id="linear-gradient-57" x1="-410.08" y1="234.79" x2="-400.11" y2="234.79" gradientTransform="matrix(-0.99, 0.12, 0.12, 0.99, -45.81, 25.36)" xlink:href="#linear-gradient-2"/><linearGradient id="linear-gradient-58" x1="-390.88" y1="214.35" x2="-395.14" y2="230.12" gradientTransform="matrix(-0.99, 0.12, 0.12, 0.99, -45.81, 25.36)" xlink:href="#linear-gradient-3"/><linearGradient id="linear-gradient-59" x1="-378.67" y1="230.3" x2="-391.29" y2="221.26" gradientTransform="matrix(-0.99, 0.12, 0.12, 0.99, -45.81, 25.36)" xlink:href="#linear-gradient-3"/><linearGradient id="linear-gradient-60" x1="-386.7" y1="212.39" x2="-385.65" y2="206.61" gradientTransform="matrix(-0.99, 0.12, 0.12, 0.99, -45.81, 25.36)" xlink:href="#linear-gradient"/><linearGradient id="linear-gradient-61" x1="-401.93" y1="211.8" x2="-398.05" y2="211.8" gradientTransform="matrix(-0.99, 0.12, 0.12, 0.99, -45.81, 25.36)" xlink:href="#linear-gradient"/><linearGradient id="linear-gradient-62" x1="-406.51" y1="218" x2="-401.7" y2="218" gradientTransform="matrix(-0.99, 0.12, 0.12, 0.99, -45.81, 25.36)" xlink:href="#linear-gradient"/><linearGradient id="linear-gradient-63" x1="-406.35" y1="227.86" x2="-402.45" y2="227.86" gradientTransform="matrix(-0.99, 0.12, 0.12, 0.99, -45.81, 25.36)" xlink:href="#linear-gradient"/><linearGradient id="linear-gradient-64" x1="-404.87" y1="235.57" x2="-400.11" y2="235.57" gradientTransform="matrix(-0.99, 0.12, 0.12, 0.99, -45.81, 25.36)" xlink:href="#linear-gradient"/><linearGradient id="linear-gradient-65" x1="359.67" y1="289.86" x2="396.3" y2="289.86" xlink:href="#linear-gradient-2"/><linearGradient id="linear-gradient-66" x1="358.67" y1="314.34" x2="401.25" y2="278.86" gradientTransform="matrix(1, -0.07, 0.07, 1, -17.62, 23.55)" gradientUnits="userSpaceOnUse"><stop offset="0" stop-color="#bbaec4"/><stop offset="1" stop-color="#ded1e8"/></linearGradient><linearGradient id="linear-gradient-67" x1="-1449.41" y1="877.12" x2="-1412.77" y2="877.12" gradientTransform="matrix(-0.82, 0.57, 0.57, 0.82, -1380.04, 412.95)" xlink:href="#linear-gradient-2"/><linearGradient id="linear-gradient-68" x1="270.22" y1="315.67" x2="320.31" y2="308.57" xlink:href="#linear-gradient-66"/><linearGradient id="linear-gradient-69" x1="388.66" y1="215.56" x2="284.47" y2="287.54" gradientTransform="matrix(1, -0.07, 0.07, 1, -17.62, 23.55)" gradientUnits="userSpaceOnUse"><stop offset="0" stop-color="#04074a"/><stop offset="0.89" stop-opacity="0"/></linearGradient><linearGradient id="linear-gradient-70" x1="379.28" y1="211.95" x2="275.85" y2="308.94" gradientTransform="matrix(1, -0.07, 0.07, 1, -17.62, 23.55)" gradientUnits="userSpaceOnUse"><stop offset="0" stop-color="#04074a"/><stop offset="1" stop-color="#04074a"/></linearGradient></defs><title>Asset 3</title><g class="cls-1"><g id="Layer_2" data-name="Layer 2"><g id="BACKGROUND"><g class="cls-2"><circle class="cls-3" cx="421.46" cy="74.79" r="1.18"/><circle class="cls-3" cx="284.27" cy="118.19" r="1.18"/><circle class="cls-3" cx="439.87" cy="183.1" r="1.18"/><circle class="cls-3" cx="474.35" cy="239.21" r="1.18"/><path class="cls-3" d="M406.26,158.61a1.18,1.18,0,1,1-1.18-1.18A1.17,1.17,0,0,1,406.26,158.61Z"/><circle class="cls-3" cx="537.46" cy="148.32" r="1.18"/><path class="cls-3" d="M375.13,42.67A1.18,1.18,0,1,1,374,41.49,1.18,1.18,0,0,1,375.13,42.67Z"/><path class="cls-3" d="M299.7,64.5a1.18,1.18,0,1,1-1.17-1.17A1.17,1.17,0,0,1,299.7,64.5Z"/><circle class="cls-3" cx="260.58" cy="65.48" r="1.18"/><path class="cls-3" d="M240.93,131.45a1.18,1.18,0,1,1-1.18-1.18A1.17,1.17,0,0,1,240.93,131.45Z"/><circle class="cls-3" cx="264.07" cy="167.67" r="1.18"/><path class="cls-3" d="M180.56,254.53a1.18,1.18,0,1,1-1.18-1.18A1.18,1.18,0,0,1,180.56,254.53Z"/><path class="cls-3" d="M189.06,231.64a1.18,1.18,0,1,1-1.18-1.18A1.17,1.17,0,0,1,189.06,231.64Z"/><path class="cls-3" d="M141.18,360.06a1.18,1.18,0,0,1-2.35,0,1.18,1.18,0,1,1,2.35,0Z"/><path class="cls-3" d="M160,321.41a1.18,1.18,0,0,1-2.35,0,1.18,1.18,0,1,1,2.35,0Z"/><circle class="cls-3" cx="172.23" cy="430.72" r="1.18"/><path class="cls-3" d="M131,456.11a1.18,1.18,0,1,1-1.18-1.18A1.17,1.17,0,0,1,131,456.11Z"/><path class="cls-3" d="M335.47,444.15a1.18,1.18,0,1,1-1.18-1.17A1.18,1.18,0,0,1,335.47,444.15Z"/><path class="cls-3" d="M413.85,434.79a1.18,1.18,0,1,1-1.18-1.18A1.18,1.18,0,0,1,413.85,434.79Z"/><path class="cls-3" d="M431.83,388.67a1.18,1.18,0,1,1-1.17-1.17A1.18,1.18,0,0,1,431.83,388.67Z"/><path class="cls-3" d="M346.76,377.44a1.18,1.18,0,1,1-1.18-1.18A1.18,1.18,0,0,1,346.76,377.44Z"/><path class="cls-3" d="M339.16,349.88A1.18,1.18,0,1,1,338,348.7,1.17,1.17,0,0,1,339.16,349.88Z"/><path class="cls-3" d="M321,350.85a1.18,1.18,0,0,1-2.35,0,1.18,1.18,0,1,1,2.35,0Z"/><circle class="cls-3" cx="542.1" cy="364.93" r="1.18"/><circle class="cls-3" cx="493.05" cy="356.53" r="1.18"/><path class="cls-3" d="M546.21,318.64a1.18,1.18,0,1,1-1.18-1.17A1.18,1.18,0,0,1,546.21,318.64Z"/><circle class="cls-3" cx="558.39" cy="262.92" r="1.18"/><circle class="cls-3" cx="532.93" cy="244.92" r="1.18"/><circle class="cls-3" cx="543.78" cy="194.69" r="1.18"/><circle class="cls-3" cx="550.27" cy="194.71" r="1.18"/><circle class="cls-3" cx="409.06" cy="105.03" r="1.18"/><circle class="cls-3" cx="320.29" cy="142.87" r="1.18"/><circle class="cls-3" cx="381.27" cy="156.94" r="1.18"/><path class="cls-3" d="M173.11,158a1.18,1.18,0,1,1-2.35,0,1.18,1.18,0,0,1,2.35,0Z"/><circle class="cls-3" cx="136.05" cy="210.88" r="1.18"/><path class="cls-3" d="M123.09,250.63a1.18,1.18,0,1,1-1.18-1.18A1.17,1.17,0,0,1,123.09,250.63Z"/><path class="cls-3" d="M131.65,133.5a1.18,1.18,0,1,1-1.18-1.17A1.18,1.18,0,0,1,131.65,133.5Z"/><path class="cls-3" d="M138.35,42.09a1.18,1.18,0,1,1-1.18-1.18A1.17,1.17,0,0,1,138.35,42.09Z"/><circle class="cls-3" cx="169.34" cy="34.46" r="1.18"/><path class="cls-3" d="M322.35,28.55a1.18,1.18,0,1,1-1.18-1.18A1.17,1.17,0,0,1,322.35,28.55Z"/><path class="cls-3" d="M275.06,40.79a1.18,1.18,0,0,1-2.35,0,1.18,1.18,0,1,1,2.35,0Z"/><circle class="cls-3" cx="410.94" cy="26.62" r="1.18"/><path class="cls-3" d="M399.76,63.45a1.18,1.18,0,1,1-1.18-1.18A1.17,1.17,0,0,1,399.76,63.45Z"/><circle class="cls-3" cx="376.73" cy="102.2" r="1.18"/><path class="cls-3" d="M296.86,147.62a1.18,1.18,0,1,1-1.18-1.18A1.17,1.17,0,0,1,296.86,147.62Z"/><circle class="cls-3" cx="268.62" cy="164.31" r="1.18"/><circle class="cls-3" cx="227.54" cy="215.61" r="1.18"/><circle class="cls-3" cx="220.06" cy="240.32" r="1.18"/><circle class="cls-3" cx="227.61" cy="280.04" r="1.18"/><path class="cls-3" d="M241.1,310.28a1.18,1.18,0,1,1-1.17-1.17A1.17,1.17,0,0,1,241.1,310.28Z"/><circle class="cls-3" cx="304.82" cy="327.99" r="1.18"/><circle class="cls-3" cx="355.88" cy="335.56" r="1.18"/><path class="cls-3" d="M376.12,340.5a1.18,1.18,0,1,1-1.17-1.17A1.17,1.17,0,0,1,376.12,340.5Z"/><circle class="cls-3" cx="433.53" cy="322.66" r="1.18"/><path class="cls-3" d="M438.43,286.79a1.18,1.18,0,0,1-2.35,0,1.18,1.18,0,1,1,2.35,0Z"/><circle class="cls-3" cx="424.64" cy="218.58" r="1.18"/><path class="cls-3" d="M409.65,205.22a1.18,1.18,0,1,1-1.17-1.17A1.17,1.17,0,0,1,409.65,205.22Z"/><circle class="cls-3" cx="408.73" cy="176.77" r="1.18"/><path class="cls-3" d="M258.05,187.38a1.18,1.18,0,1,1-1.17-1.17A1.17,1.17,0,0,1,258.05,187.38Z"/><path class="cls-3" d="M252.49,207.29a1.18,1.18,0,1,1-1.18-1.18A1.18,1.18,0,0,1,252.49,207.29Z"/><path class="cls-3" d="M253.51,257.32a1.18,1.18,0,1,1-1.18-1.18A1.18,1.18,0,0,1,253.51,257.32Z"/><circle class="cls-3" cx="394.44" cy="309.33" r="1.18"/><path class="cls-3" d="M407.88,296a1.18,1.18,0,1,1-1.17-1.17A1.18,1.18,0,0,1,407.88,296Z"/><circle class="cls-3" cx="419.1" cy="287.43" r="1.18"/><path class="cls-3" d="M446,274.28a1.18,1.18,0,1,1-1.18-1.17A1.18,1.18,0,0,1,446,274.28Z"/><path class="cls-3" d="M461.85,249.73a1.18,1.18,0,1,1-2.35,0,1.18,1.18,0,0,1,2.35,0Z"/><circle class="cls-3" cx="466.63" cy="224.94" r="1.18"/><path class="cls-3" d="M469.94,210.53a1.18,1.18,0,1,1-2.35,0,1.18,1.18,0,0,1,2.35,0Z"/><path class="cls-3" d="M444,209.88a1.18,1.18,0,1,1-2.35,0,1.18,1.18,0,0,1,2.35,0Z"/><circle class="cls-3" cx="454.09" cy="182.71" r="1.18"/><path class="cls-3" d="M459.06,185.27a1.18,1.18,0,1,1-1.18-1.18A1.18,1.18,0,0,1,459.06,185.27Z"/><path class="cls-3" d="M491,239.19a1.18,1.18,0,1,1-1.18-1.18A1.18,1.18,0,0,1,491,239.19Z"/><circle class="cls-3" cx="476.38" cy="264.93" r="1.18"/><path class="cls-3" d="M475.5,263.46a1.18,1.18,0,1,1-1.18-1.18A1.18,1.18,0,0,1,475.5,263.46Z"/><circle class="cls-3" cx="439.21" cy="348.18" r="1.18"/></g><circle class="cls-3" cx="264.54" cy="108.03" r="1.18"/><path class="cls-3" d="M331,129.94a1.18,1.18,0,0,1-2.35,0,1.18,1.18,0,1,1,2.35,0Z"/><circle class="cls-3" cx="256.06" cy="156.33" r="1.18"/><path class="cls-3" d="M268.65,136.44a1.18,1.18,0,1,1-1.18-1.18A1.17,1.17,0,0,1,268.65,136.44Z"/><path class="cls-3" d="M398.82,166.64a1.18,1.18,0,1,1-1.18-1.18A1.17,1.17,0,0,1,398.82,166.64Z"/><circle class="cls-3" cx="252.38" cy="194.92" r="1.18"/><path class="cls-3" d="M248.89,237.23a1.18,1.18,0,0,1-2.35,0,1.18,1.18,0,1,1,2.35,0Z"/><path class="cls-3" d="M415.74,223.26a1.18,1.18,0,0,1-2.35,0,1.18,1.18,0,1,1,2.35,0Z"/><circle class="cls-3" cx="426.94" cy="190.17" r="1.18"/><path class="cls-3" d="M378.09,131.73a1.18,1.18,0,1,1-1.17-1.17A1.17,1.17,0,0,1,378.09,131.73Z"/><circle class="cls-3" cx="398.65" cy="97.72" r="1.18"/><circle class="cls-3" cx="310.89" cy="84.37" r="1.18"/><path class="cls-3" d="M312.05,106.27a1.18,1.18,0,1,1-1.17-1.17A1.17,1.17,0,0,1,312.05,106.27Z"/><circle class="cls-3" cx="470.24" cy="255.2" r="1.18"/><path class="cls-3" d="M452.53,319.25a1.18,1.18,0,1,1-1.17-1.17A1.17,1.17,0,0,1,452.53,319.25Z"/><circle class="cls-3" cx="453.25" cy="367.38" r="1.18"/><path class="cls-3" d="M369.69,407.08a1.18,1.18,0,0,1-2.35,0,1.18,1.18,0,1,1,2.35,0Z"/><circle class="cls-3" cx="332.48" cy="411.85" r="1.18"/><circle class="cls-3" cx="315.38" cy="380.63" r="1.18"/><circle class="cls-3" cx="355.34" cy="374.95" r="1.18"/><path class="cls-3" d="M349,353a1.18,1.18,0,1,1-1.18-1.18A1.17,1.17,0,0,1,349,353Z"/><circle class="cls-3" cx="330.5" cy="356.87" r="1.18"/><circle class="cls-3" cx="170.35" cy="316.46" r="1.18"/><circle class="cls-3" cx="196.82" cy="342.94" r="1.18"/><path class="cls-3" d="M278.08,316.46a1.18,1.18,0,1,1-1.17-1.17A1.17,1.17,0,0,1,278.08,316.46Z"/><circle class="cls-3" cx="245.82" cy="257.23" r="1.18"/><path class="cls-3" d="M191.29,255.18a1.18,1.18,0,1,1-1.18-1.17A1.18,1.18,0,0,1,191.29,255.18Z"/><path class="cls-3" d="M96.54,24.83a1.18,1.18,0,1,1-1.17-1.17A1.17,1.17,0,0,1,96.54,24.83Z"/><path class="cls-3" d="M161.8,46.74a1.18,1.18,0,1,1-1.17-1.18A1.18,1.18,0,0,1,161.8,46.74Z"/><circle class="cls-3" cx="86.89" cy="73.13" r="1.18"/><circle class="cls-3" cx="98.3" cy="53.24" r="1.18"/><path class="cls-3" d="M229.64,83.44a1.18,1.18,0,1,1-1.17-1.18A1.17,1.17,0,0,1,229.64,83.44Z"/><circle class="cls-3" cx="83.21" cy="111.72" r="1.18"/><circle class="cls-3" cx="78.55" cy="154.03" r="1.18"/><path class="cls-3" d="M246.57,140.06a1.18,1.18,0,1,1-1.17-1.18A1.17,1.17,0,0,1,246.57,140.06Z"/><path class="cls-3" d="M259,107a1.18,1.18,0,1,1-1.18-1.17A1.18,1.18,0,0,1,259,107Z"/><path class="cls-3" d="M208.92,48.54a1.18,1.18,0,1,1-1.17-1.18A1.17,1.17,0,0,1,208.92,48.54Z"/><path class="cls-3" d="M230.65,14.52a1.18,1.18,0,1,1-1.18-1.18A1.18,1.18,0,0,1,230.65,14.52Z"/><path class="cls-3" d="M142.89,1.18A1.18,1.18,0,1,1,141.71,0,1.17,1.17,0,0,1,142.89,1.18Z"/><path class="cls-3" d="M142.88,23.08a1.18,1.18,0,1,1-1.18-1.18A1.17,1.17,0,0,1,142.88,23.08Z"/><circle class="cls-3" cx="301.06" cy="172.01" r="1.18"/><path class="cls-3" d="M283.36,236.06a1.18,1.18,0,1,1-1.18-1.18A1.17,1.17,0,0,1,283.36,236.06Z"/><path class="cls-3" d="M285.25,284.18a1.18,1.18,0,1,1-1.17-1.17A1.17,1.17,0,0,1,285.25,284.18Z"/><circle class="cls-3" cx="199.34" cy="323.88" r="1.18"/><circle class="cls-3" cx="163.3" cy="328.65" r="1.18"/><path class="cls-3" d="M147.38,297.44a1.18,1.18,0,1,1-1.18-1.18A1.17,1.17,0,0,1,147.38,297.44Z"/><path class="cls-3" d="M187.34,291.75a1.18,1.18,0,1,1-1.18-1.17A1.18,1.18,0,0,1,187.34,291.75Z"/><path class="cls-3" d="M179.8,269.8a1.18,1.18,0,1,1-2.35,0,1.18,1.18,0,0,1,2.35,0Z"/><path class="cls-3" d="M162.5,273.67a1.18,1.18,0,1,1-1.17-1.18A1.17,1.17,0,0,1,162.5,273.67Z"/><path class="cls-3" d="M2.35,233.26a1.18,1.18,0,1,1-1.17-1.18A1.17,1.17,0,0,1,2.35,233.26Z"/><circle class="cls-3" cx="27.65" cy="259.74" r="1.18"/><path class="cls-3" d="M108.91,233.26a1.18,1.18,0,1,1-1.18-1.17A1.18,1.18,0,0,1,108.91,233.26Z"/><circle class="cls-3" cx="76.65" cy="174.04" r="1.18"/><path class="cls-3" d="M22.11,172a1.18,1.18,0,0,1-2.35,0,1.18,1.18,0,1,1,2.35,0Z"/><path class="cls-3" d="M445.73,140.09a1.18,1.18,0,1,1-2.35,0,1.18,1.18,0,0,1,2.35,0Z"/><path class="cls-3" d="M511,162a1.18,1.18,0,1,1-1.17-1.18A1.17,1.17,0,0,1,511,162Z"/><path class="cls-3" d="M437.25,188.39a1.18,1.18,0,1,1-1.18-1.18A1.18,1.18,0,0,1,437.25,188.39Z"/><path class="cls-3" d="M448.66,168.5a1.18,1.18,0,1,1-1.18-1.18A1.18,1.18,0,0,1,448.66,168.5Z"/><circle class="cls-3" cx="577.65" cy="198.7" r="1.18"/><path class="cls-3" d="M433.57,227a1.18,1.18,0,1,1-1.18-1.18A1.18,1.18,0,0,1,433.57,227Z"/><path class="cls-3" d="M428.91,269.29a1.18,1.18,0,1,1-1.18-1.18A1.17,1.17,0,0,1,428.91,269.29Z"/><path class="cls-3" d="M595.76,255.32a1.18,1.18,0,1,1-1.18-1.18A1.18,1.18,0,0,1,595.76,255.32Z"/><circle class="cls-3" cx="606.95" cy="222.23" r="1.18"/><circle class="cls-3" cx="556.93" cy="163.8" r="1.18"/><circle class="cls-3" cx="578.66" cy="129.78" r="1.18"/><path class="cls-3" d="M492.07,116.44a1.18,1.18,0,0,1-2.35,0,1.18,1.18,0,1,1,2.35,0Z"/><path class="cls-3" d="M492.06,138.34a1.18,1.18,0,0,1-2.35,0,1.18,1.18,0,1,1,2.35,0Z"/><circle class="cls-3" cx="650.25" cy="287.27" r="1.18"/><path class="cls-3" d="M632.54,351.32a1.18,1.18,0,0,1-2.35,0,1.18,1.18,0,1,1,2.35,0Z"/><circle class="cls-3" cx="633.26" cy="399.44" r="1.18"/><path class="cls-3" d="M549.7,439.14a1.18,1.18,0,1,1-1.17-1.17A1.17,1.17,0,0,1,549.7,439.14Z"/><path class="cls-3" d="M513.66,443.91a1.18,1.18,0,1,1-1.17-1.17A1.17,1.17,0,0,1,513.66,443.91Z"/><circle class="cls-3" cx="495.39" cy="412.7" r="1.18"/><circle class="cls-3" cx="535.35" cy="407.01" r="1.18"/><path class="cls-3" d="M529,385.06a1.18,1.18,0,1,1-1.17-1.17A1.18,1.18,0,0,1,529,385.06Z"/><circle class="cls-3" cx="510.51" cy="388.93" r="1.18"/><circle class="cls-3" cx="350.36" cy="348.52" r="1.18"/><path class="cls-3" d="M378,375a1.18,1.18,0,1,1-1.18-1.18A1.18,1.18,0,0,1,378,375Z"/><path class="cls-3" d="M458.09,348.52a1.18,1.18,0,1,1-1.17-1.17A1.17,1.17,0,0,1,458.09,348.52Z"/><circle class="cls-3" cx="425.83" cy="289.3" r="1.18"/><path class="cls-3" d="M371.3,287.25a1.18,1.18,0,1,1-1.18-1.18A1.17,1.17,0,0,1,371.3,287.25Z"/><path class="cls-3" d="M278,153.86a1.18,1.18,0,1,1-1.17-1.18A1.17,1.17,0,0,1,278,153.86Z"/><path class="cls-3" d="M302.78,131.82a1.18,1.18,0,1,1-1.17-1.17A1.17,1.17,0,0,1,302.78,131.82Z"/><circle class="cls-3" cx="284.57" cy="145.06" r="1.18"/><path class="cls-3" d="M342.32,124.29a1.18,1.18,0,1,1-1.17-1.17A1.17,1.17,0,0,1,342.32,124.29Z"/><path class="cls-3" d="M367.8,146.1a1.18,1.18,0,1,1-1.18-1.18A1.17,1.17,0,0,1,367.8,146.1Z"/><path class="cls-3" d="M274.35,95A1.18,1.18,0,1,1,272,95a1.18,1.18,0,0,1,2.35,0Z"/><circle class="cls-3" cx="218.48" cy="140.4" r="1.18"/><path class="cls-3" d="M441,408.63a1.18,1.18,0,1,1-1.17-1.17A1.18,1.18,0,0,1,441,408.63Z"/></g><g id="OBJECTS"><path class="cls-3" d="M203.75,304.45V269.7H125.24V245.39l76-112.92h31.25V245.39H252V269.7H232.44v34.75Zm1-59.06,1.71-84-53.73,84Z"/><g class="cls-4"><path class="cls-3" d="M493,304.45V269.7H414.51V245.39l75.95-112.92h31.26V245.39h19.53V269.7H521.72v34.75Zm1-59.06,1.71-84-53.72,84Z"/></g><g class="cls-4"><path class="cls-3" d="M397.86,220.24q0,41.4-17.15,64.82t-47.19,23.43q-30.4,0-47.32-23.67t-16.91-66.48q0-42.45,17.1-66.18t47.49-23.72q30.78,0,47.38,23.78T397.86,220.24ZM333,284.17q17.82,0,26.8-16.55t9-49.51q0-32-8.85-48.81t-25.82-16.79q-17.72,0-26.74,16.73t-9,49.34q0,31.66,9,48.63T333,284.17Z"/></g><path class="cls-3" d="M163.1,85.74a1.83,1.83,0,0,1-.49-1.38V70.05a2,2,0,0,1,.54-1.44,2,2,0,0,1,1.46-.53,2,2,0,0,1,1.45.53,2,2,0,0,1,.54,1.44V83h6.55c1.24,0,1.86.55,1.86,1.64s-.62,1.61-1.86,1.61h-8.67A1.83,1.83,0,0,1,163.1,85.74Z"/><path class="cls-3" d="M179.1,85.63a5.66,5.66,0,0,1-2.32-2.28,7.71,7.71,0,0,1,0-6.92,5.58,5.58,0,0,1,2.32-2.27,8.17,8.17,0,0,1,7,0,5.58,5.58,0,0,1,2.32,2.27,7.71,7.71,0,0,1,0,6.92,5.66,5.66,0,0,1-2.32,2.28,8,8,0,0,1-7,0Zm6.32-5.74a4.28,4.28,0,0,0-.73-2.71,2.53,2.53,0,0,0-2.08-.9c-1.88,0-2.82,1.21-2.82,3.61s.94,3.6,2.82,3.6S185.42,82.29,185.42,79.89Z"/><path class="cls-3" d="M194.14,85.63a5.63,5.63,0,0,1-2.33-2.28,7.71,7.71,0,0,1,0-6.92,5.55,5.55,0,0,1,2.33-2.27,8.15,8.15,0,0,1,7,0,5.6,5.6,0,0,1,2.33,2.27,7.71,7.71,0,0,1,0,6.92,5.69,5.69,0,0,1-2.33,2.28,8,8,0,0,1-7,0Zm6.31-5.74a4.21,4.21,0,0,0-.73-2.71,2.52,2.52,0,0,0-2.08-.9c-1.88,0-2.81,1.21-2.81,3.61s.93,3.6,2.81,3.6S200.45,82.29,200.45,79.89Z"/><path class="cls-3" d="M219.06,84.52a1.84,1.84,0,0,1-.52,1.28,1.62,1.62,0,0,1-1.21.56,1.73,1.73,0,0,1-1.23-.54l-5.6-5.19v3.91A1.67,1.67,0,0,1,210,85.9a2.3,2.3,0,0,1-2.76,0,1.67,1.67,0,0,1-.55-1.36V69.89a1.65,1.65,0,0,1,.55-1.35,2.3,2.3,0,0,1,2.76,0,1.65,1.65,0,0,1,.55,1.35v9.16l5.11-5a1.78,1.78,0,0,1,1.26-.56,1.74,1.74,0,0,1,1.25.52,1.66,1.66,0,0,1,.53,1.24,1.75,1.75,0,0,1-.58,1.25l-3.4,3.25,3.81,3.53A1.72,1.72,0,0,1,219.06,84.52Z"/><path class="cls-3" d="M228.59,85.92a1.63,1.63,0,0,1-.55-1.35V69.89a1.65,1.65,0,0,1,.55-1.35,2.3,2.3,0,0,1,2.76,0,1.68,1.68,0,0,1,.55,1.35V84.57a1.66,1.66,0,0,1-.55,1.35,2.3,2.3,0,0,1-2.76,0Z"/><path class="cls-3" d="M235.2,70.85a1.78,1.78,0,0,1-.59-1.42,1.74,1.74,0,0,1,.59-1.4,2.76,2.76,0,0,1,3.21,0,1.75,1.75,0,0,1,.6,1.39,1.81,1.81,0,0,1-.59,1.42,2.71,2.71,0,0,1-3.22,0Zm.21,15.07a1.66,1.66,0,0,1-.55-1.35V75.24a1.65,1.65,0,0,1,.57-1.36,2.29,2.29,0,0,1,2.75,0,1.7,1.7,0,0,1,.55,1.36v9.33a1.66,1.66,0,0,1-.55,1.35,2.06,2.06,0,0,1-1.37.46A2.11,2.11,0,0,1,235.41,85.92Z"/><path class="cls-3" d="M254.12,84.52a1.85,1.85,0,0,1-.53,1.28,1.62,1.62,0,0,1-1.21.56,1.75,1.75,0,0,1-1.23-.54l-5.6-5.19v3.91A1.67,1.67,0,0,1,245,85.9a2,2,0,0,1-1.37.46,2.08,2.08,0,0,1-1.39-.46,1.67,1.67,0,0,1-.55-1.36V69.89a1.65,1.65,0,0,1,.55-1.35,2.08,2.08,0,0,1,1.39-.46,2,2,0,0,1,1.37.46,1.65,1.65,0,0,1,.55,1.35v9.16l5.11-5a1.78,1.78,0,0,1,1.26-.56,1.74,1.74,0,0,1,1.25.52,1.67,1.67,0,0,1,.54,1.24,1.77,1.77,0,0,1-.59,1.25l-3.4,3.25,3.81,3.53A1.73,1.73,0,0,1,254.12,84.52Z"/><path class="cls-3" d="M266.73,82.91a1.61,1.61,0,0,1,.32,1,1.38,1.38,0,0,1-.25.8,2,2,0,0,1-.72.63,9.15,9.15,0,0,1-2,.75,8.44,8.44,0,0,1-2.12.3,7.64,7.64,0,0,1-3.57-.8A5.6,5.6,0,0,1,256,83.38a7.75,7.75,0,0,1,0-6.86,5.85,5.85,0,0,1,2.2-2.32,6.17,6.17,0,0,1,3.19-.83,5.9,5.9,0,0,1,3,.75,5.13,5.13,0,0,1,2,2.15,7,7,0,0,1,.72,3.26,1.23,1.23,0,0,1-.27.86,1,1,0,0,1-.75.29H259a3.38,3.38,0,0,0,.92,2.19,3,3,0,0,0,2.12.68,4.51,4.51,0,0,0,1.33-.18,11.46,11.46,0,0,0,1.3-.49l.7-.27a2,2,0,0,1,.58-.11A1,1,0,0,1,266.73,82.91Zm-7-6.18a3.33,3.33,0,0,0-.79,2h4.93a3.32,3.32,0,0,0-.67-2,2.15,2.15,0,0,0-1.7-.69A2.31,2.31,0,0,0,259.74,76.73Z"/><path class="cls-3" d="M285.81,73.73a1.71,1.71,0,0,1,.9-.26A2,2,0,0,1,288,74a1.43,1.43,0,0,1,.56,1.13,1.6,1.6,0,0,1-.18.72l-6.88,14.11a1.85,1.85,0,0,1-.69.81,1.7,1.7,0,0,1-.92.27,1.91,1.91,0,0,1-1.25-.46,1.44,1.44,0,0,1-.54-1.13,1.71,1.71,0,0,1,.18-.77l1.69-3.5-4.55-9.33a1.79,1.79,0,0,1-.15-.69,1.48,1.48,0,0,1,.6-1.18,2.11,2.11,0,0,1,1.36-.48,1.78,1.78,0,0,1,1.64,1.07l3.17,6.9,3.09-6.9A1.69,1.69,0,0,1,285.81,73.73Z"/><path class="cls-3" d="M292.52,85.63a5.69,5.69,0,0,1-2.33-2.28,7.71,7.71,0,0,1,0-6.92,5.6,5.6,0,0,1,2.33-2.27,8.15,8.15,0,0,1,7,0,5.6,5.6,0,0,1,2.33,2.27,7.71,7.71,0,0,1,0,6.92,5.69,5.69,0,0,1-2.33,2.28,8,8,0,0,1-7,0Zm6.31-5.74a4.21,4.21,0,0,0-.73-2.71,2.52,2.52,0,0,0-2.08-.9c-1.87,0-2.81,1.21-2.81,3.61s.94,3.6,2.81,3.6S298.83,82.29,298.83,79.89Z"/><path class="cls-3" d="M316.59,73.91a1.7,1.7,0,0,1,.52,1.33v9.38a1.62,1.62,0,0,1-.55,1.28,2.06,2.06,0,0,1-1.41.48,1.81,1.81,0,0,1-1.31-.46,1.6,1.6,0,0,1-.48-1.22v-.26a4,4,0,0,1-1.55,1.48,4.54,4.54,0,0,1-2.16.52,4.46,4.46,0,0,1-3.54-1.32,5.84,5.84,0,0,1-1.17-4v-5.9a1.71,1.71,0,0,1,.53-1.33,2,2,0,0,1,1.42-.49,1.93,1.93,0,0,1,1.4.49,1.73,1.73,0,0,1,.51,1.33v6a2.44,2.44,0,0,0,.48,1.66,1.8,1.8,0,0,0,1.44.54,2.38,2.38,0,0,0,1.83-.77,2.85,2.85,0,0,0,.7-2V75.24a1.73,1.73,0,0,1,.51-1.33,2,2,0,0,1,1.41-.49A2,2,0,0,1,316.59,73.91Z"/><path class="cls-3" d="M323.48,68.81a3.18,3.18,0,0,1,.61,2.11,6.53,6.53,0,0,1-1.91,4.65,1.07,1.07,0,0,1-.8.36,1.09,1.09,0,0,1-.76-.3.88.88,0,0,1-.34-.7,1,1,0,0,1,.29-.66,4.64,4.64,0,0,0,1.12-1.92,2.16,2.16,0,0,1-1.41-.64,2,2,0,0,1-.53-1.43,2.21,2.21,0,0,1,.6-1.58,2.16,2.16,0,0,1,3.13.11Z"/><path class="cls-3" d="M335.43,73.77a1.5,1.5,0,0,1,.45,1.19,1.71,1.71,0,0,1-.41,1.25,2.41,2.41,0,0,1-1.46.51l-.76.08a2.92,2.92,0,0,0-2,.92,3,3,0,0,0-.62,2v4.88a1.66,1.66,0,0,1-.55,1.35,2.3,2.3,0,0,1-2.76,0,1.63,1.63,0,0,1-.55-1.35V75.19a1.58,1.58,0,0,1,.56-1.31,2,2,0,0,1,1.35-.46,1.85,1.85,0,0,1,1.28.45,1.56,1.56,0,0,1,.51,1.24v.69a3.61,3.61,0,0,1,1.4-1.69,4.32,4.32,0,0,1,2-.66l.36,0A1.58,1.58,0,0,1,335.43,73.77Z"/><path class="cls-3" d="M347.63,82.91a1.66,1.66,0,0,1,.32,1,1.39,1.39,0,0,1-.26.8,2.08,2.08,0,0,1-.71.63,9.35,9.35,0,0,1-2,.75,8.52,8.52,0,0,1-2.13.3,7.57,7.57,0,0,1-3.56-.8,5.49,5.49,0,0,1-2.34-2.26,7,7,0,0,1-.82-3.46,7.05,7.05,0,0,1,.79-3.4,5.85,5.85,0,0,1,2.2-2.32,6.2,6.2,0,0,1,3.2-.83,5.86,5.86,0,0,1,3,.75,5.22,5.22,0,0,1,2,2.15,7,7,0,0,1,.71,3.26,1.28,1.28,0,0,1-.26.86,1,1,0,0,1-.76.29h-7.16a3.43,3.43,0,0,0,.92,2.19,3.05,3.05,0,0,0,2.12.68,4.51,4.51,0,0,0,1.33-.18,11.56,11.56,0,0,0,1.31-.49l.69-.27a2,2,0,0,1,.59-.11A1,1,0,0,1,347.63,82.91Zm-7-6.18a3.4,3.4,0,0,0-.79,2h4.94a3.32,3.32,0,0,0-.68-2,2.14,2.14,0,0,0-1.7-.69A2.34,2.34,0,0,0,340.63,76.73Z"/><path class="cls-3" d="M358,85.92a1.66,1.66,0,0,1-.55-1.35V69.89a1.68,1.68,0,0,1,.55-1.35,2.09,2.09,0,0,1,1.4-.46,2,2,0,0,1,1.36.46,1.65,1.65,0,0,1,.55,1.35V84.57a1.63,1.63,0,0,1-.55,1.35,2,2,0,0,1-1.36.46A2.09,2.09,0,0,1,358,85.92Z"/><path class="cls-3" d="M366.84,85.63a5.69,5.69,0,0,1-2.33-2.28,7.79,7.79,0,0,1,0-6.92,5.6,5.6,0,0,1,2.33-2.27,8.17,8.17,0,0,1,7,0,5.58,5.58,0,0,1,2.32,2.27,7.71,7.71,0,0,1,0,6.92,5.66,5.66,0,0,1-2.32,2.28,8,8,0,0,1-7,0Zm6.32-5.74a4.28,4.28,0,0,0-.73-2.71,2.54,2.54,0,0,0-2.09-.9c-1.87,0-2.81,1.21-2.81,3.61s.94,3.6,2.81,3.6S373.16,82.29,373.16,79.89Z"/><path class="cls-3" d="M381.39,86.18a6,6,0,0,1-2-.82,1.57,1.57,0,0,1-.59-.61,1.8,1.8,0,0,1-.2-.87,1.52,1.52,0,0,1,.33-1,1,1,0,0,1,.82-.39,2.17,2.17,0,0,1,.66.11l.69.27a9.8,9.8,0,0,0,1.41.53,6.85,6.85,0,0,0,1.71.19,2.92,2.92,0,0,0,1.39-.28.85.85,0,0,0,.5-.77.81.81,0,0,0-.21-.58,2.16,2.16,0,0,0-.81-.39c-.39-.12-1-.27-1.87-.44a7.09,7.09,0,0,1-3.27-1.3,3.07,3.07,0,0,1-1-2.43,3.31,3.31,0,0,1,.71-2.07,4.72,4.72,0,0,1,1.93-1.45,7.15,7.15,0,0,1,2.76-.52,8.19,8.19,0,0,1,2.15.28,7,7,0,0,1,1.86.79,1.7,1.7,0,0,1,.46,2.46,1,1,0,0,1-.81.41,3,3,0,0,1-1.41-.46,8.1,8.1,0,0,0-1.16-.5,4.18,4.18,0,0,0-1.24-.17,2.3,2.3,0,0,0-1.26.3.91.91,0,0,0-.46.8.89.89,0,0,0,.54.82,8,8,0,0,0,2.07.56,10.76,10.76,0,0,1,2.68.81,3.19,3.19,0,0,1,1.41,1.19,3.42,3.42,0,0,1,.44,1.81,3.37,3.37,0,0,1-1.5,2.89,6.7,6.7,0,0,1-4,1.08A12.64,12.64,0,0,1,381.39,86.18Z"/><path class="cls-3" d="M399.77,84a1.41,1.41,0,0,1-.23,2.09,2.7,2.7,0,0,1-1.69.31l-.71,0c-3-.24-4.48-1.8-4.48-4.68V76.57h-1a2,2,0,0,1-1.28-.37,1.56,1.56,0,0,1,0-2.15,1.92,1.92,0,0,1,1.28-.37h1v-2a1.74,1.74,0,0,1,.53-1.33,2,2,0,0,1,1.42-.48,2,2,0,0,1,1.4.48,1.76,1.76,0,0,1,.51,1.33v2h1.79c1.16,0,1.74.48,1.74,1.45a1.34,1.34,0,0,1-.43,1.07,2,2,0,0,1-1.31.37h-1.79v5.34a1.66,1.66,0,0,0,.36,1.16,1.47,1.47,0,0,0,1.05.45l.72,0A1.77,1.77,0,0,1,399.77,84Z"/><path class="cls-3" d="M409,70.85a1.78,1.78,0,0,1-.59-1.42A1.74,1.74,0,0,1,409,68a2.76,2.76,0,0,1,3.21,0,1.78,1.78,0,0,1,.6,1.39,1.81,1.81,0,0,1-.59,1.42,2.71,2.71,0,0,1-3.22,0Zm.21,15.07a1.66,1.66,0,0,1-.55-1.35V75.24a1.65,1.65,0,0,1,.57-1.36,2.07,2.07,0,0,1,1.38-.46,2,2,0,0,1,1.36.46,1.67,1.67,0,0,1,.55,1.36v9.33a1.63,1.63,0,0,1-.55,1.35,2,2,0,0,1-1.36.46A2.09,2.09,0,0,1,409.24,85.92Z"/><path class="cls-3" d="M426.75,74.69a6.11,6.11,0,0,1,1.09,4v5.91a1.73,1.73,0,0,1-.52,1.33,2,2,0,0,1-1.42.48,2,2,0,0,1-1.4-.48,1.73,1.73,0,0,1-.52-1.33V78.84a2.92,2.92,0,0,0-.47-1.86,1.74,1.74,0,0,0-1.47-.59,2.55,2.55,0,0,0-1.93.76,2.9,2.9,0,0,0-.73,2v5.37a1.76,1.76,0,0,1-.51,1.33,2,2,0,0,1-1.41.48A2,2,0,0,1,416,85.9a1.77,1.77,0,0,1-.52-1.33V75.19a1.61,1.61,0,0,1,.55-1.28,2,2,0,0,1,1.42-.49,1.81,1.81,0,0,1,1.29.47,1.62,1.62,0,0,1,.5,1.22v.36A4.44,4.44,0,0,1,421,73.91a5.23,5.23,0,0,1,2.4-.54A4.12,4.12,0,0,1,426.75,74.69Z"/><path class="cls-3" d="M439.91,86.18a6,6,0,0,1-2-.82,1.64,1.64,0,0,1-.59-.61,1.92,1.92,0,0,1-.2-.87,1.52,1.52,0,0,1,.33-1,1,1,0,0,1,.82-.39,2.17,2.17,0,0,1,.66.11l.69.27a9.8,9.8,0,0,0,1.41.53,6.85,6.85,0,0,0,1.71.19,3,3,0,0,0,1.4-.28.87.87,0,0,0,.5-.77.82.82,0,0,0-.22-.58,2.16,2.16,0,0,0-.81-.39c-.39-.12-1-.27-1.86-.44a7.08,7.08,0,0,1-3.28-1.3,3.06,3.06,0,0,1-1-2.43,3.3,3.3,0,0,1,.7-2.07,4.72,4.72,0,0,1,1.93-1.45,7.15,7.15,0,0,1,2.76-.52,8.19,8.19,0,0,1,2.15.28,7,7,0,0,1,1.87.79,1.61,1.61,0,0,1,.79,1.44,1.58,1.58,0,0,1-.33,1,1,1,0,0,1-.82.41,3.11,3.11,0,0,1-1.41-.46,7.65,7.65,0,0,0-1.16-.5,4.18,4.18,0,0,0-1.24-.17,2.24,2.24,0,0,0-1.25.3.89.89,0,0,0-.46.8.88.88,0,0,0,.53.82,8,8,0,0,0,2.07.56,11,11,0,0,1,2.69.81,3.21,3.21,0,0,1,1.4,1.19,3.42,3.42,0,0,1,.44,1.81,3.37,3.37,0,0,1-1.5,2.89,6.68,6.68,0,0,1-4,1.08A12.64,12.64,0,0,1,439.91,86.18Z"/><path class="cls-3" d="M461,74.2a5.56,5.56,0,0,1,2,2.33,8,8,0,0,1,.71,3.44,7.81,7.81,0,0,1-.71,3.41,5.15,5.15,0,0,1-4.84,3.06,5,5,0,0,1-2.31-.53,3.74,3.74,0,0,1-1.6-1.47v4.83a1.58,1.58,0,0,1-.51,1.23,2,2,0,0,1-1.36.46,2,2,0,0,1-1.44-.49,1.6,1.6,0,0,1-.55-1.27v-14a1.73,1.73,0,0,1,.52-1.32,2.18,2.18,0,0,1,2.78,0,1.76,1.76,0,0,1,.51,1.32v.2a3.88,3.88,0,0,1,1.61-1.52,4.94,4.94,0,0,1,2.35-.55A5.19,5.19,0,0,1,461,74.2Zm-1.91,8.39A4.09,4.09,0,0,0,459.8,80a4.36,4.36,0,0,0-.74-2.7,2.49,2.49,0,0,0-2.1-1,2.51,2.51,0,0,0-2.09.93,4.21,4.21,0,0,0-.74,2.68,4.11,4.11,0,0,0,.74,2.64,2.51,2.51,0,0,0,2.09.93A2.56,2.56,0,0,0,459.06,82.59Z"/><path class="cls-3" d="M475.73,74.71a5.63,5.63,0,0,1,1.33,4.11v5.77a1.72,1.72,0,0,1-.49,1.32,1.82,1.82,0,0,1-1.35.47,1.7,1.7,0,0,1-1.82-1.79v-.17a3,3,0,0,1-1.27,1.48,4,4,0,0,1-2.1.54,5.16,5.16,0,0,1-2.31-.52,4,4,0,0,1-1.64-1.43,3.64,3.64,0,0,1-.6-2,3.17,3.17,0,0,1,.7-2.18,4.26,4.26,0,0,1,2.26-1.15,19.92,19.92,0,0,1,4.27-.36h.67V78.3a2.18,2.18,0,0,0-.47-1.55,2.12,2.12,0,0,0-1.58-.49,10.13,10.13,0,0,0-3.17.77,2.5,2.5,0,0,1-1,.28,1.1,1.1,0,0,1-.9-.4,1.55,1.55,0,0,1-.33-1,1.49,1.49,0,0,1,.23-.85,2.14,2.14,0,0,1,.74-.61,8.24,8.24,0,0,1,2.19-.77,11.69,11.69,0,0,1,2.54-.28A5.56,5.56,0,0,1,475.73,74.71Zm-3,8.31a2.77,2.77,0,0,0,.69-2v-.44h-.44A8.81,8.81,0,0,0,470,81a1.22,1.22,0,0,0-.83,1.21,1.55,1.55,0,0,0,.47,1.16,1.68,1.68,0,0,0,1.19.45A2.33,2.33,0,0,0,472.69,83Z"/><path class="cls-3" d="M482.35,85.64a5.38,5.38,0,0,1-2.23-2.25,7.69,7.69,0,0,1,.05-6.89,5.72,5.72,0,0,1,2.34-2.31,7.09,7.09,0,0,1,3.47-.82,7.74,7.74,0,0,1,2.06.28,6.88,6.88,0,0,1,1.85.79,1.6,1.6,0,0,1,.8,1.44,1.82,1.82,0,0,1-.31,1.08,1,1,0,0,1-.82.42,1.59,1.59,0,0,1-.62-.11c-.2-.08-.46-.19-.78-.35a9.11,9.11,0,0,0-1-.43,2.85,2.85,0,0,0-1-.15,2.69,2.69,0,0,0-2.19.9,5.07,5.07,0,0,0,0,5.31,2.67,2.67,0,0,0,2.19.92,3,3,0,0,0,.94-.14,6.18,6.18,0,0,0,1-.45c.32-.15.58-.27.77-.34a1.54,1.54,0,0,1,.61-.12,1,1,0,0,1,.81.44,1.82,1.82,0,0,1,.32,1.1,1.52,1.52,0,0,1-.8,1.4,6.48,6.48,0,0,1-1.89.79,8.67,8.67,0,0,1-2.25.29A7,7,0,0,1,482.35,85.64Z"/><path class="cls-3" d="M503.48,82.91a1.61,1.61,0,0,1,.32,1,1.38,1.38,0,0,1-.25.8,2,2,0,0,1-.72.63,9.15,9.15,0,0,1-2,.75,8.44,8.44,0,0,1-2.12.3,7.64,7.64,0,0,1-3.57-.8,5.6,5.6,0,0,1-2.34-2.26,7.67,7.67,0,0,1,0-6.86A5.85,5.85,0,0,1,495,74.2a6.17,6.17,0,0,1,3.19-.83,5.9,5.9,0,0,1,3,.75,5.13,5.13,0,0,1,2,2.15,7,7,0,0,1,.72,3.26,1.23,1.23,0,0,1-.27.86,1,1,0,0,1-.75.29H495.7a3.38,3.38,0,0,0,.92,2.19,3,3,0,0,0,2.12.68,4.55,4.55,0,0,0,1.33-.18,11.46,11.46,0,0,0,1.3-.49l.69-.27a2.07,2.07,0,0,1,.59-.11A1,1,0,0,1,503.48,82.91Zm-7-6.18a3.33,3.33,0,0,0-.79,2h4.93a3.32,3.32,0,0,0-.67-2,2.16,2.16,0,0,0-1.71-.69A2.3,2.3,0,0,0,496.49,76.73Z"/><path class="cls-5" d="M307.09,206.34s-2.68-8.15-1.81-9.31,12.7-6.32,27.81-9.52,15.82-2,17-1.13,2.58,10.1,2.55,12S307.09,206.34,307.09,206.34Z"/><path class="cls-6" d="M378.65,268.13l-1,2.31-7.32,16.15-7,15.47c-3.48-2.45-4.57-11.39-4.4-18.2a54.55,54.55,0,0,0-.77-11.32A15,15,0,0,1,353,268a24.84,24.84,0,0,1-2.07-3.21h0c-.45-.82-.68-1.35-.68-1.35-8.2.4-13.78-4.91-15.1-5.77s-3.8-.05-6.26,5.49c-2.22,5-7.85,7-8.95,7.36l-.19.06c-.24,1.34-.49,2.55-.75,3.64-2.09,8.83-4.64,10-4.64,10-.28,2.86,1.43,7,1.95,12.35a106.62,106.62,0,0,1,0,13.59l-7.37-4.57-14.42-9s-5.46-12.9-5.13-17.19a12.78,12.78,0,0,1,.73-3.26,15.52,15.52,0,0,1,1.4-2.83h0a12.68,12.68,0,0,1,1-1.4s0-.68,0-1.76c0-.48,0-1,.09-1.65a32.1,32.1,0,0,1,.62-4.54,10.39,10.39,0,0,1,.33-1.16,11.74,11.74,0,0,1,.84-1.9,15.64,15.64,0,0,1,1-1.56h0l0-.05,0,0v0h0l0,0,.08-.11a.76.76,0,0,0,.08-.11l.28-.35a10.91,10.91,0,0,1,1.12-1.23h0s.33-1.13.77-2.75c.33-1.25.74-2.79,1.12-4.34.86-3.53.78-4.79,3-6.52s2.77-3.15,4.07-4.18h0l.06-.05c.76-.58,2.14-1.46,3.21-2.11h0l1.47-.89a14.4,14.4,0,0,1,.79-4.63,6.26,6.26,0,0,1-.63-1.5c-.21-.67-.35-1.28-.35-1.28-.36.25-.72.47-1.07.67h0c-3.82,2.17-6.52,1.43-6.52,1.43a14.77,14.77,0,0,1-3,.91,13.77,13.77,0,0,1-3.86.19,18.75,18.75,0,0,1-10.79-5.27l3.32-4.71L296,212a8.66,8.66,0,0,1,2.92,1.05h0a6.8,6.8,0,0,1,.6.42h0l.27.23a3.06,3.06,0,0,1,.61.78h0l0,0h0a4.49,4.49,0,0,1,.1-.67,4.42,4.42,0,0,1,.42-1.26l.12-.2a2.57,2.57,0,0,1,.68-.76,2,2,0,0,1,.82-.4c0-.21.05-.42.08-.62,1.05-7.67,6-7.85,6-7.85,1-5.76,6.88-5.85,6.88-5.85s1.23.29,3.18.57h0a39.93,39.93,0,0,0,12.64-.07A17.37,17.37,0,0,0,341,192a10.62,10.62,0,0,0,1.06-1.35c4.82-1.12,8.56,5,8.56,5,2.76,0,5,1.85,6.24,3.22a11.65,11.65,0,0,1,1.19,1.49l.1-.12a6.9,6.9,0,0,1,1-1.06h0l0,0h0l.19-.16h0a9.68,9.68,0,0,1,1.79-1.11,10.92,10.92,0,0,1,2.78-.93l6.51,13.47,1.41,2.91a10.11,10.11,0,0,1-5.33,6.51,13,13,0,0,1-1.3.58,9,9,0,0,1-1,.3c-3.66.85-7.68-.78-10-2h0l-.09-.05-.05,0-.15-.08c-1-.53-1.58-.93-1.58-.93a11.48,11.48,0,0,1,.55,2h0c0,.13,0,.26.07.39a23.18,23.18,0,0,1,.11,6,19.06,19.06,0,0,1,1.12,4.56,4.46,4.46,0,0,1-.4,2.92l-.05.06a2.56,2.56,0,0,1,.37-.2h0a7.05,7.05,0,0,1,1.29-.43l.26-.06h0c.32-.06.67-.11,1.06-.15h0a13.71,13.71,0,0,1,5.64.83h0l.18.07.34.12c6,2.28,8.56,11.9,8.56,11.9a10.69,10.69,0,0,1,2.66,2.81,18,18,0,0,1,3.16,8.34C377.94,262.33,378.65,268.13,378.65,268.13Z"/><path class="cls-7" d="M296.07,232.35a18.75,18.75,0,0,1-10.79-5.27l3.32-4.71a13.73,13.73,0,0,0,7.13,4.94,10.35,10.35,0,0,0,3.31.3A16.22,16.22,0,0,1,296.07,232.35Z"/><path class="cls-8" d="M350.16,232.77l-5,7.59s-4.41,7.12-12.68,6.42-15.73-8.25-21.67-4.84S301.43,253,301.43,253l3.41-1s-6,4-7.06,6.47a1.14,1.14,0,0,0,.17,1.43l-3.61,1.06a15.64,15.64,0,0,1,1-1.56h0l0-.05,0,0v0h0l0,0,.08-.11a.76.76,0,0,0,.08-.11l.28-.35a10.91,10.91,0,0,1,1.12-1.23h0s.33-1.13.77-2.75c.33-1.25.74-2.79,1.12-4.34.86-3.53.78-4.79,3-6.52s2.77-3.15,4.07-4.18h0l.06-.05c.76-.58,2.14-1.46,3.21-2.11h0l1.47-.89a14.4,14.4,0,0,1,.79-4.63,6.26,6.26,0,0,1-.63-1.5c-.21-.67-.35-1.28-.35-1.28-.36.25-.72.47-1.07.67h0c-3.82,2.17-6.52,1.43-6.52,1.43a14.77,14.77,0,0,1-3,.91,17.22,17.22,0,0,0,1.84-5.18,7.51,7.51,0,0,0,2.08-1.17A4.1,4.1,0,0,0,307.4,227c2.52-.17,7.43-2.4,7.4-5.09A17.69,17.69,0,0,0,326.85,234C336.86,237.15,346,234.32,350.16,232.77Z"/><path class="cls-9" d="M314.31,284.22c-.28,2.86,1.43,7,1.95,12.35a106.62,106.62,0,0,1,0,13.59l-7.37-4.57c1.71-4.69-.51-11.76-.74-17-.29-6.46,3.65-6.73,3.65-6.73a10.88,10.88,0,0,1,3.36-12.1,22.83,22.83,0,0,1,3.81,4.45C316.86,283,314.31,284.22,314.31,284.22Z"/><path class="cls-10" d="M354,257.54a26,26,0,0,0-3.09,7.24c-.45-.82-.68-1.35-.68-1.35-8.2.4-13.78-4.91-15.1-5.77s-3.8-.05-6.26,5.49c-2.22,5-7.85,7-8.95,7.36-.47-.6-1.26-1.58-2.29-2.72,1.93-1.92,3.55-4.65,6.21-8.88a14.48,14.48,0,0,1,9.95-7c3.43-.71,5,1.4,12.82,4.81A12.12,12.12,0,0,0,354,257.54Z"/><path class="cls-11" d="M370.28,286.59l-7,15.47c-3.48-2.45-4.57-11.39-4.4-18.2a54.55,54.55,0,0,0-.77-11.32A15,15,0,0,1,353,268a60.8,60.8,0,0,1,6.69-10.84c-1.13,4.56,1.09,8.09,3.7,11.23a46,46,0,0,0,.57,13.08C364.8,285.41,368.09,286.39,370.28,286.59Z"/><path class="cls-12" d="M378.65,268.13l-1,2.31c-2-2.21-3.7-6.88-4.6-13.31-1.23-8.76-6.64-10-6.64-10,2.15-7-2.74-12.65-3.68-13.64l.34.12c6,2.28,8.56,11.9,8.56,11.9a10.69,10.69,0,0,1,2.66,2.81,18,18,0,0,1,3.16,8.34C377.94,262.33,378.65,268.13,378.65,268.13Z"/><path class="cls-13" d="M312.33,201.84c.53,3.13,5.75,3.24,5.75,3.24-3.25,1-6,.73-9.32.16s-5.63,5.45-4.72,5.84,1.78,1.95,1.78,1.95c-2.62-1.24-3,.05-2.18,2.84a24.41,24.41,0,0,1,.48,7.08c-.51-2.9-2.41-6.82-3.63-9.13a4.42,4.42,0,0,1,.42-1.26l.12-.2a2.57,2.57,0,0,1,.68-.76,2,2,0,0,1,.82-.4c0-.21.05-.42.08-.62,1.05-7.67,6-7.85,6-7.85,1-5.76,6.88-5.85,6.88-5.85s1.23.29,3.18.57C316.26,197.14,311.8,198.72,312.33,201.84Z"/><path class="cls-14" d="M358.16,200.18l-.13.6a10.59,10.59,0,0,0-8.37-3.07c-.6,2.73-5.31,3.21-5.31,3.21s3.66-2,3.18-4.33-6.47-4.46-6.47-4.46A1.21,1.21,0,0,0,341,192a10.62,10.62,0,0,0,1.06-1.35c4.82-1.12,8.56,5,8.56,5,2.76,0,5,1.85,6.24,3.22a11.65,11.65,0,0,1,1.19,1.49Z"/><path class="cls-15" d="M296.35,264.27c-.11.26-3.69,8.88-6.29,11.91h0a15.52,15.52,0,0,1,1.4-2.83h0a12.68,12.68,0,0,1,1-1.4s0-.68,0-1.76c0-.48,0-1,.09-1.65A12.18,12.18,0,0,0,296.35,264.27Z"/><path class="cls-16" d="M361.6,216.19a26.63,26.63,0,0,0,2.67,4.47c-3.66.85-7.68-.78-10-2h0l-.09-.05-.05,0-.15-.08c-1-.53-1.58-.93-1.58-.93a11.48,11.48,0,0,1,.55,2h0c0,.13,0,.26.07.39-4.7-6.52-6.79-15.08-6.88-15.49.14.41,3.15,8.85,10.39,11.13A13,13,0,0,0,361.6,216.19Z"/><path class="cls-16" d="M371.91,213.27a10.11,10.11,0,0,1-5.33,6.51,24.79,24.79,0,0,1-2.51-4.11,12.8,12.8,0,0,0,6.43-5.31Z"/><path class="cls-17" d="M355.51,232.83h0s-6.72,3.77-7.8,5-2,3.05-7.17,4.63a35.5,35.5,0,0,1-4.35,1c-4.49.76-10.08.79-14.67-1.79a13,13,0,0,0-5.85-4.86,45.59,45.59,0,0,0,6.06.94l.57,0c.31,0,.59,0,.85,0a3,3,0,0,1,1.05-.86,15.93,15.93,0,0,1,3.8-.22h.73c1.07,0,2.26-.06,3.51-.16,1.09-.09,2.16-.22,3.13-.35l.74-.1c1.73-.25,3-.49,3.33-.51a2.68,2.68,0,0,1,1.82.68,1.21,1.21,0,0,1,.13.13l.49-.17c.58-.21,1.63-.6,2.91-1.1l.54-.22,1.15-.46.4-.17h0c1-.4,2-.85,3-1.3l.32-.15a28.46,28.46,0,0,0,4.12-2.31,5.29,5.29,0,0,1,0,.66,3.8,3.8,0,0,1-.44,2.26l-.05.06a2.56,2.56,0,0,1,.37-.2h0A7.05,7.05,0,0,1,355.51,232.83Z"/><path class="cls-18" d="M354.33,231.15c-1.64,1-7.61,4.53-12.41,5.74l-.08,2.11c0-.23,0-2.63-5-1.85a76,76,0,0,1-10.21.86s1.39,6.11,9.54,5.46c-4.49.76-10.08.79-14.67-1.79a13,13,0,0,0-5.85-4.86,45.59,45.59,0,0,0,6.06.94l.57,0c.31,0,.59,0,.85,0a3,3,0,0,1,1.05-.86,15.93,15.93,0,0,1,3.8-.22h.73c1.07,0,2.26-.06,3.51-.16,1.09-.09,2.16-.22,3.13-.35l.74-.1c1.73-.25,3-.49,3.33-.51a2.68,2.68,0,0,1,1.82.68,1.21,1.21,0,0,1,.13.13l.49-.17c.58-.21,1.63-.6,2.91-1.1l.54-.22,1.15-.46.4-.17h0c1-.4,2-.85,3-1.3l.32-.15a28.46,28.46,0,0,0,4.12-2.31A5.29,5.29,0,0,1,354.33,231.15Z"/><path class="cls-19" d="M328.73,236.68v6.56l-.74-6.55Z"/><path class="cls-19" d="M336.11,236.07l-.29,6.69-.45-6.59Z"/><path class="cls-19" d="M322.3,237.79l-.38,2.75-.19-2.78Z"/><path class="cls-19" d="M341.56,241.1c0-1.9-.2-3.87-.3-4.86a1.21,1.21,0,0,1,.13.13l.49-.17A19.94,19.94,0,0,1,341.56,241.1Z"/><path class="cls-19" d="M345.33,234.88l-.28,4.09-.26-3.87Z"/><path class="cls-19" d="M346.88,234.25l-.21,3-.19-2.86Z"/><path class="cls-19" d="M350.17,232.8l-.16,2.35-.16-2.2Z"/><path class="cls-20" d="M326.43,244c-3.41,1-7.43-6.92-14-6.31a21.66,21.66,0,0,0-6.41,1.9l.06-.05c.76-.58,2.14-1.46,3.21-2.11h0a12.83,12.83,0,0,1,5.75-.7C319.78,237,323.08,243.63,326.43,244Z"/><path class="cls-20" d="M362.5,233.44c-9.28-1.16-18.07,8.1-18.07,8.1,3.83-4.95,7.2-7.15,9.46-8.13l.32-.14h0a11.91,11.91,0,0,1,1.55-.49h0a5,5,0,0,1,1.06-.15h0A13.71,13.71,0,0,1,362.5,233.44Z"/><polygon class="cls-20" points="295.31 259.38 295.32 259.38 295.31 259.38 295.31 259.38"/><path class="cls-20" d="M304.83,252a24.66,24.66,0,0,0-9.48,7.34,14,14,0,0,1,1.64-1.91s.33-1.13.77-2.75A36.29,36.29,0,0,1,304.83,252Z"/><path class="cls-20" d="M294.4,268.19a18,18,0,0,1-2.95,5.16,12.68,12.68,0,0,1,1-1.4s0-.68,0-1.76A6.55,6.55,0,0,0,294.4,268.19Z"/><path class="cls-21" d="M359.19,199.12c-.36.33-3.33,3.33-2.42,12.33,0,0-1.9-6.74.1-12.64a11.65,11.65,0,0,1,1.19,1.49A7.47,7.47,0,0,1,359.19,199.12Z"/><path class="cls-20" d="M359.21,199.11h0Z"/><path class="cls-20" d="M300.36,214.46a6.15,6.15,0,0,0-.88-1A3.26,3.26,0,0,1,300.36,214.46Z"/><path class="cls-20" d="M304.12,223c-1.44-4.64-2.77-7.13-3.73-8.45h0a5,5,0,0,1,.52-1.93A35.08,35.08,0,0,1,304.12,223Z"/><path class="cls-20" d="M305.79,212.56a4.17,4.17,0,0,0-4.08-1,2,2,0,0,1,.82-.4c0-.21.05-.42.08-.62A5,5,0,0,1,305.79,212.56Z"/><path class="cls-20" d="M314.92,226a39.76,39.76,0,0,1-4,4.42c-.21-.67-.35-1.28-.35-1.28Z"/><path class="cls-20" d="M352.44,217.6a11.48,11.48,0,0,1,.55,2,15,15,0,0,1-2.86-5.19,10.28,10.28,0,0,0,3.89,4.17C353,218,352.44,217.6,352.44,217.6Z"/><path class="cls-22" d="M319.51,229.53l1.5,2.22c-2.4,1.91-6.66,4.41-9,4.73s-3.8-.06-4.05-1.46c-.19-1.07,1.7-2.9,2.62-3.72.29-.26.48-.41.48-.41l.48,1s-2.77,2.86-.91,3.2l.2,0c2.23.18,8.6-5.82,8.6-5.82"/><path class="cls-23" d="M310.62,235.13h0s-1.7.14-1.63-1.13a6.47,6.47,0,0,1,1.58-2.7c.29-.26.48-.41.48-.41l.48,1S308.76,234.79,310.62,235.13Z"/><path class="cls-22" d="M358.18,227.26a7.15,7.15,0,0,1-2.41,2c-3,1.69-9.15.3-9.15.3l-.7-3.27a16.92,16.92,0,0,0,7.87,1.84,7.26,7.26,0,0,0,2.1-.41c1.35-.5,1.6-1.33,1.22-1.88-.52-.75-3.91-.16-3.91-.16l.08-2.74a15.51,15.51,0,0,1,3,.49,3.4,3.4,0,0,1,1.89,1.08A2.33,2.33,0,0,1,358.18,227.26Z"/><path class="cls-23" d="M358.18,227.26a3.35,3.35,0,0,1-2.29.43c2.57-.77,1-3.35.35-4.29a3.4,3.4,0,0,1,1.89,1.08A2.33,2.33,0,0,1,358.18,227.26Z"/><path class="cls-24" d="M313.61,194.29s-4.66,2.09-4.11,12.48,9.14,15.82,9.14,15.82l.15,2.2s-6.62-2.07-10.36-10.51-.81-18.92,5.05-21.05Z"/><path class="cls-25" d="M341.85,187.18s6,2.28,8.6,10.48-2.05,13.89-6.71,17.53l1.51,3.53s8.19-5,9-13.73-5.26-16.87-11.34-20.25Z"/><path class="cls-26" d="M346.87,230.94c0,.47-4.15,1.19-5.75,1.48a176.71,176.71,0,0,1-19.8,2.47.52.52,0,0,1-.54-.36,91.63,91.63,0,0,1-3.51-16.13c-.21-1.63-.38-3.26-.51-4.91a1.09,1.09,0,0,1,.79-1.13,95.35,95.35,0,0,1,26-3.86,1.08,1.08,0,0,1,1.06.85C346,215.65,347.11,227.45,346.87,230.94Z"/><path class="cls-27" d="M346.62,229.53c0,.48-4.16,1.19-5.76,1.49a178.59,178.59,0,0,1-19.79,2.47.52.52,0,0,1-.54-.37A91.43,91.43,0,0,1,317,217c-.21-1.62-.38-3.26-.51-4.9a1.08,1.08,0,0,1,.79-1.13,95.7,95.7,0,0,1,26-3.87,1.1,1.1,0,0,1,1.06.86C345.75,214.24,346.85,226,346.62,229.53Z"/><path class="cls-28" d="M340.86,231a176.69,176.69,0,0,1-19.52,2.45.88.88,0,0,1-.9-.61A92.25,92.25,0,0,1,317,217C320.44,222.93,328,232.37,340.86,231Z"/><path class="cls-29" d="M320.2,215.37s1.42,9.23,2.89,14.5l1.88-.28s-1.58-9.22-2-14.88Z"/><path class="cls-30" d="M327.84,213.74s1.31,10,2.59,14.84l2.19-.3s-1.58-9.38-2-15Z"/><path class="cls-31" d="M324.5,215.71s.39,3.45.86,5.79l1.88-.29-.87-5.79A12,12,0,0,0,324.5,215.71Z"/><path class="cls-32" d="M340.41,215a1.65,1.65,0,1,1-1.76-1.54A1.65,1.65,0,0,1,340.41,215Z"/><path class="cls-33" d="M341.52,222.06a1.64,1.64,0,0,1-1.53,1.76,1.65,1.65,0,1,1,1.53-1.76Z"/><path class="cls-34" d="M344.87,201.6a3.39,3.39,0,1,1-3.61-3.16A3.39,3.39,0,0,1,344.87,201.6Z"/><path class="cls-35" d="M316,210c1.55-.35,5.31-1.11,9.42-2a1,1,0,0,0,.8-1.33l-.78-2.59a.81.81,0,0,0-.92-.63c-1.85.31-6.66.63-9.63,1.62-.38.12-.78.21-.56,1.42a22,22,0,0,0,.73,3A.79.79,0,0,0,316,210Z"/><path class="cls-36" d="M313.61,194.29a15.79,15.79,0,0,0,1.62,3.72s16.15,7.43,28.74-7.34a20.38,20.38,0,0,0-1.92-4.93S334.49,198.21,313.61,194.29Z"/><path class="cls-37" d="M307.48,179.41s-3.19,1.8-3.65,2.14c-1,.75,2.85,11.52,4.27,11.57a19.45,19.45,0,0,0,3.72-1Z"/><path class="cls-38" d="M306.43,182.64a.62.62,0,0,1-.58.67.63.63,0,1,1-.09-1.25A.61.61,0,0,1,306.43,182.64Z"/><path class="cls-39" d="M339.93,169.06s3.64-.46,4.21-.46c1.23,0,4.59,10.94,3.49,11.83a19.2,19.2,0,0,1-3.58,1.41Z"/><path class="cls-38" d="M342.7,171a.63.63,0,1,0,.19-.87A.63.63,0,0,0,342.7,171Z"/><path class="cls-40" d="M315.76,164.36l-.39-1.3a14.7,14.7,0,0,1,9-2.82l.74,1.69Z"/><path class="cls-41" d="M344.45,183.84l-7.9,2.55-23.81,7.68c-9.21-10-7-26.23,5.15-31.18q.84-.34,1.68-.6h0C333,158.07,345.53,168.6,344.45,183.84Z"/><path class="cls-42" d="M336.55,186.39l-23.81,7.68c-9.21-10-7-26.23,5.15-31.18q.84-.34,1.68-.6c-8.14,3.38-8.86,8.84-1.59,6.6s12.5-.82,12.5-.82Z"/><path class="cls-43" d="M344.45,183.84a19.52,19.52,0,0,1-14.31,12.68c-11.51,2.68-17.4-2.45-17.4-2.45Z"/><path class="cls-44" d="M344.45,183.84a24.08,24.08,0,0,1-6.87,7c-5.1,3.49-13.21,6.38-24.84,3.23-5.05-9.51-2.13-19.12,5-23.7a17.2,17.2,0,0,1,1.68-.94C328.27,165.12,341.51,168.55,344.45,183.84Z"/><path class="cls-45" d="M337.58,190.84c-5.1,3.49-13.21,6.38-24.84,3.23-5.05-9.51-2.13-19.12,5-23.7-.91,2.24-2.11,6.75-1.12,13.63,1.5,10.33,8.65,13.42,20.93,6.84Z"/><path class="cls-46" d="M324.34,169.41s9.85-1.69,15.35,7.38a1.61,1.61,0,0,1-.44,2.15h0a1.61,1.61,0,0,1-2.33-.52A18.58,18.58,0,0,0,324.34,169.41Z"/><path class="cls-47" d="M341.32,181a1.26,1.26,0,1,1-1.72-.46A1.26,1.26,0,0,1,341.32,181Z"/><path class="cls-48" d="M361.69,254.67a18.72,18.72,0,0,1-2.05,2.48h0A60.8,60.8,0,0,0,353,268a24.84,24.84,0,0,1-2.07-3.21h0a26,26,0,0,1,3.09-7.24A28.92,28.92,0,0,0,361.69,254.67Z"/><path class="cls-49" d="M374.24,248.34a23.14,23.14,0,0,0-14.6,8.81A14.69,14.69,0,0,0,361.4,255a30,30,0,0,1-7.43,2.54,29.79,29.79,0,0,1,3-4.05c5.42-6.22,14.63-8,14.63-8A10.69,10.69,0,0,1,374.24,248.34Z"/><path class="cls-48" d="M319.89,270.51l-.19.06c-.24,1.34-.49,2.55-.75,3.64a22.83,22.83,0,0,0-3.81-4.45c.23-.19.45-.35.68-.51a12.34,12.34,0,0,0,1.78-1.46C318.63,268.93,319.42,269.91,319.89,270.51Z"/><path class="cls-50" d="M317.6,267.79a12.34,12.34,0,0,1-1.78,1.46c-.23.16-.45.32-.68.51a32.65,32.65,0,0,0-6.23-4.46,21.41,21.41,0,0,0-15.41-2.46,11.74,11.74,0,0,1,.84-1.9,15.64,15.64,0,0,1,1-1.56h0l0-.05,0,0v0h0l0,0,.08-.11a.76.76,0,0,0,.08-.11l.28-.35c.55-.08,1.19-.16,1.91-.2a20.9,20.9,0,0,1,10.15,1.7A32.57,32.57,0,0,1,317.6,267.79Z"/><path class="cls-48" d="M366.58,219.78a13,13,0,0,1-1.3.58,9,9,0,0,1-1,.3,26.63,26.63,0,0,1-2.67-4.47,10.5,10.5,0,0,0,2.47-.52A24.79,24.79,0,0,0,366.58,219.78Z"/><path class="cls-51" d="M364.07,215.67a10.5,10.5,0,0,1-2.47.52,29.36,29.36,0,0,1-2.18-17.26h0a9.68,9.68,0,0,1,1.79-1.11,31.25,31.25,0,0,0,1.66,15.11C363.26,213.94,363.66,214.85,364.07,215.67Z"/><path class="cls-48" d="M301.77,227a17.22,17.22,0,0,1-1.84,5.18,13.77,13.77,0,0,1-3.86.19,16.22,16.22,0,0,0,3-4.74A9.56,9.56,0,0,0,301.77,227Z"/><path class="cls-52" d="M301.77,227a9.56,9.56,0,0,1-2.73.63c2.32-5.64,1.27-11.61.71-13.93a3.06,3.06,0,0,1,.61.78h0l0,0h0a5,5,0,0,1,.52-1.93l.12-.2C302.58,218.77,302.46,223.57,301.77,227Z"/><path class="cls-53" d="M316.07,209.37c1.54-.35,5.48-1.25,9.42-2a.8.8,0,0,0,.63-1l-.62-3a.8.8,0,0,0-.91-.63,74.93,74.93,0,0,0-9.66,2.15.79.79,0,0,0-.53.89,20.56,20.56,0,0,0,.73,3A.79.79,0,0,0,316.07,209.37Z"/><path class="cls-54" d="M290.9,226.06a12.54,12.54,0,0,1-4.5.87,12,12,0,0,1-5.32-1.15,1.5,1.5,0,0,1-.61.56h0a6.6,6.6,0,0,1-4.06.4c-4-.52-5.39-2.64-5.34-4.22a1.26,1.26,0,0,1,.68-1.05h0a8.9,8.9,0,0,1,3.62-.82c1.1-.07,1.39-.41.87-1.16a.52.52,0,0,0-.1-.11c-.66-.65-2.87-.68-4.11-1.35a4.49,4.49,0,0,1-2-4.13c0-.85.79-1.34,1.82-1.5a6.53,6.53,0,0,1,3.48.51c2.12,1,2.89.59,3-.52.06-.79-1.57-1.86-3.06-2.88-.62-.43-1.2-.84-1.65-1.22-1.51-1.32-.59-4.07,2.06-4.57a2.1,2.1,0,0,1,.79,0h0c2.07.4,2.95,4,4.19,3.45s.36-1.76-1.51-3.69c-.25-.25-.5-.52-.75-.82-1.63-1.93-3-4.56-1.22-5.92a1.88,1.88,0,0,1,1.52-.29c2.32.42,5.62,3.91,7.56,8.21a19.55,19.55,0,0,0,1.67,3.13c.73,1,1.07.9,1.2.74a.41.41,0,0,0,.07-.12c.51-.75.81-5.51,1.08-8.53,0-.49.1-1,.17-1.42.38-2.33,1.16-4.1,2.59-4.46a3.19,3.19,0,0,1,.71-.1c1.24,0,1.9,1,2.2,3.38a9.11,9.11,0,0,1,.05,1.72c-.12,2-.81,3.87-.77,6.23.05,3,1.85,6.2,2.43,10.11S296.29,224,290.9,226.06Z"/><path class="cls-55" d="M281.6,200.93c-.2,1.7-2,1.83-3.26,1.72-.18-.21-.35-.43-.52-.65-1.38-1.84-2.32-4.05-.7-5.27a1.88,1.88,0,0,1,1.52-.29c.5.61,1.52,1.38,2.22,2.32A3,3,0,0,1,281.6,200.93Z"/><path class="cls-56" d="M278.4,207.32a2.8,2.8,0,0,1-3.19,2.18c-.52-.36-1-.71-1.42-1l-.23-.18c-1.51-1.32-.59-4.07,2.06-4.57a2.1,2.1,0,0,1,.79,0h0a12.78,12.78,0,0,1,1.54,2h0A2.29,2.29,0,0,1,278.4,207.32Z"/><path class="cls-57" d="M277,219.42a2.56,2.56,0,0,1-.88,0l-1.46-.36a11.5,11.5,0,0,1-2.65-1,4.49,4.49,0,0,1-2-4.13c0-.85.79-1.34,1.82-1.5a11.43,11.43,0,0,0,2.95,2,9.36,9.36,0,0,1,.89.37c1.22.55,2.42,1.33,2.6,2.08C278.48,217.74,278.42,219.17,277,219.42Z"/><path class="cls-58" d="M280.47,226.34h0a6,6,0,0,1-3.49.46l-.57-.06c-4-.52-5.39-2.64-5.34-4.22a1.26,1.26,0,0,1,.68-1.05h0c.1,0,1.69-.63,5.48.95l.33.14C281.18,224.11,282.06,225.19,280.47,226.34Z"/><path class="cls-59" d="M286.53,218.85c-.1-.2-3.11-6,1.34-11.07.73,1,1.07.9,1.2.74l.09.19S285,214.69,286.53,218.85Z"/><path class="cls-60" d="M290.9,226.06a12.54,12.54,0,0,1-4.5.87c9.69-2.21,8.47-11.28,7.31-14.1a17.5,17.5,0,0,1,.1-12.49c1.27-3.46.42-5.57-.12-6.45,1.24,0,1.9,1,2.2,3.38a9.11,9.11,0,0,1,.05,1.72c-.12,2-.81,3.87-.77,6.23.05,3,1.85,6.2,2.43,10.11S296.29,224,290.9,226.06Z"/><path class="cls-61" d="M295.94,199a5.6,5.6,0,0,1-5.55-.54c.38-2.33,1.16-4.1,2.59-4.46,1.71-.43,2.56.46,2.91,3.28A9.11,9.11,0,0,1,295.94,199Z"/><path class="cls-62" d="M281.6,200.93c-.2,1.7-3.38,2.53-3.78,1.07.32-3.13,2.1-3.36,3-3.24A3,3,0,0,1,281.6,200.93Z"/><path class="cls-63" d="M278.4,207.32c-.07,2.52-3.68,2.85-4.61,1.14a2.58,2.58,0,0,1,.4-2.6c1.57-2,3.67-.25,3.76-.18h0A3,3,0,0,1,278.4,207.32Z"/><path class="cls-64" d="M277,219.42a2.56,2.56,0,0,1-.88,0l-1.46-.36a4.24,4.24,0,0,1,1-4.28c1.22.55,2.42,1.33,2.6,2.08C278.48,217.74,278.42,219.17,277,219.42Z"/><path class="cls-65" d="M280.47,226.34h0a6,6,0,0,1-3.49.46,3.33,3.33,0,0,1-.42-2.6,3,3,0,0,1,1-1.65C281.18,224.11,282.06,225.19,280.47,226.34Z"/><path class="cls-66" d="M370.16,215.14a12.35,12.35,0,0,0,4.58,0,11.94,11.94,0,0,0,5-2.11,1.55,1.55,0,0,0,.71.43h0a6.6,6.6,0,0,0,4.06-.37c3.82-1.25,4.81-3.59,4.47-5.14a1.31,1.31,0,0,0-.87-.9h0a8.76,8.76,0,0,0-3.71-.14c-1.09.13-1.44-.14-1.07-1l.07-.12c.54-.77,2.7-1.2,3.8-2.09a4.52,4.52,0,0,0,1.22-4.43c-.18-.84-1-1.18-2.08-1.14a6.42,6.42,0,0,0-3.32,1.15c-1.91,1.33-2.73,1.12-3,0-.2-.77,1.2-2.12,2.48-3.41a19.63,19.63,0,0,0,1.38-1.5c1.25-1.58-.17-4.11-2.87-4.1a2.11,2.11,0,0,0-.77.14h0c-2,.78-2.17,4.44-3.48,4.18s-.67-1.67.81-3.91c.19-.3.39-.61.58-.95,1.24-2.2,2.14-5.05.09-6a1.87,1.87,0,0,0-1.54,0c-2.21.84-4.8,4.89-5.9,9.47a20.18,20.18,0,0,1-1.06,3.39c-.53,1.15-.88,1.08-1,.95a.38.38,0,0,1-.1-.1c-.63-.64-1.82-5.26-2.64-8.18-.14-.48-.28-.93-.44-1.36-.8-2.23-1.89-3.82-3.37-3.91a4,4,0,0,0-.71,0c-1.23.21-1.69,1.32-1.54,3.74a9.78,9.78,0,0,0,.27,1.69c.5,2,1.51,3.66,1.92,6,.51,2.95-.66,6.43-.51,10.38S364.47,214.07,370.16,215.14Z"/><path class="cls-67" d="M374.62,188.72c.52,1.63,2.35,1.41,3.53,1.08.13-.24.26-.48.39-.74,1-2.06,1.53-4.41-.3-5.3a1.87,1.87,0,0,0-1.54,0c-.38.7-1.24,1.65-1.76,2.69A3.05,3.05,0,0,0,374.62,188.72Z"/><path class="cls-68" d="M379,194.39a2.79,2.79,0,0,0,3.54,1.55c.44-.44.86-.88,1.2-1.28a1.74,1.74,0,0,0,.18-.22c1.25-1.58-.17-4.11-2.87-4.1a2.11,2.11,0,0,0-.77.14h0a12.23,12.23,0,0,0-1.14,2.22h0A2.3,2.3,0,0,0,379,194.39Z"/><path class="cls-69" d="M382.57,206a2.78,2.78,0,0,0,.85-.21l1.38-.63a12.16,12.16,0,0,0,2.42-1.46,4.52,4.52,0,0,0,1.22-4.43c-.18-.84-1-1.18-2.08-1.14a11.7,11.7,0,0,1-2.53,2.48c-.26.16-.54.33-.81.53-1.09.77-2.12,1.76-2.16,2.52C380.82,204.65,381.14,206,382.57,206Z"/><path class="cls-70" d="M380.46,213.47h0a6,6,0,0,0,3.51-.2c.18-.05.36-.1.55-.17,3.82-1.25,4.81-3.59,4.47-5.14a1.31,1.31,0,0,0-.87-.9h0c-.1,0-1.78-.31-5.2,1.95a3.28,3.28,0,0,0-.31.2C379.35,211.41,378.69,212.64,380.46,213.47Z"/><path class="cls-71" d="M373.11,207.24c.06-.21,1.94-6.49-3.37-10.63-.53,1.15-.88,1.08-1,.95l-.06.21S373.85,202.86,373.11,207.24Z"/><path class="cls-72" d="M370.16,215.14a12.35,12.35,0,0,0,4.58,0c-9.93-.36-10.42-9.51-9.81-12.49a17.46,17.46,0,0,0-2.41-12.26c-1.9-3.16-1.45-5.39-1.08-6.36-1.23.21-1.69,1.32-1.54,3.74a9.78,9.78,0,0,0,.27,1.69c.5,2,1.51,3.66,1.92,6,.51,2.95-.66,6.43-.51,10.38S364.47,214.07,370.16,215.14Z"/><path class="cls-73" d="M360.17,189.47a5.58,5.58,0,0,0,5.35-1.55c-.8-2.23-1.89-3.82-3.37-3.91-1.76-.1-2.43.93-2.25,3.77A9.78,9.78,0,0,0,360.17,189.47Z"/><path class="cls-74" d="M374.62,188.72c.52,1.63,3.8,1.85,3.92.34-.9-3-2.69-2.91-3.6-2.62A3.05,3.05,0,0,0,374.62,188.72Z"/><path class="cls-75" d="M379,194.39c.53,2.47,4.14,2.13,4.74.27a2.59,2.59,0,0,0-.88-2.48c-1.91-1.63-3.65.44-3.72.52h0A3.05,3.05,0,0,0,379,194.39Z"/><path class="cls-76" d="M382.57,206a2.78,2.78,0,0,0,.85-.21l1.38-.63a4.25,4.25,0,0,0-1.78-4c-1.09.77-2.12,1.76-2.16,2.52C380.82,204.65,381.14,206,382.57,206Z"/><path class="cls-77" d="M380.46,213.47h0a6,6,0,0,0,3.51-.2,3.27,3.27,0,0,0-.07-2.63,2.82,2.82,0,0,0-1.29-1.43C379.35,211.41,378.69,212.64,380.46,213.47Z"/><path class="cls-20" d="M361.91,302.6s-1.37-4.55-1.06-6.94,14-35.73,31.87-35.68Z"/><path class="cls-78" d="M366.14,314.11s-4-3.18-4.36-13.68,21-47,34-39.4Z"/><path class="cls-79" d="M399.15,274.12c0,.43,0,.86,0,1.31a67.18,67.18,0,0,1-.65,7.05c-.06.42-.13.84-.2,1.26-.36,2.18-.83,4.46-1.43,6.82-.11.4-.21.81-.33,1.22-.72,2.62-1.6,5.33-2.66,8.09-.15.39-.31.78-.47,1.18-.94,2.33-2,4.7-3.23,7.09-.2.38-.39.76-.6,1.14-1.08,2-2.28,4.1-3.59,6.15-.1.17-.21.34-.32.51h0c-.27.16-.53.31-.81.45-9.46,5-20.87-1.49-20.92-6.25a.86.86,0,0,1,0-.15,10.84,10.84,0,0,1,.16-1.27c.27-1.51.85-3.89,1.67-6.75l.35-1.21c.67-2.26,1.46-4.77,2.35-7.36.13-.4.27-.79.41-1.19.93-2.67,2-5.38,3-8l.5-1.17c1-2.26,2-4.41,3-6.33l.63-1.13c.25-.44.5-.86.75-1.27a54.43,54.43,0,0,1,3.3-4.74c.28-.36.57-.72.85-1.06a31.4,31.4,0,0,1,6.51-6.09,15,15,0,0,1,1.45-.87c2.6-1.41,5-1.78,6.87-1,.93.37,1.76,1.72,2.36,3.84.13.45.25.92.35,1.43A39.2,39.2,0,0,1,399.15,274.12Z"/><path class="cls-80" d="M398.47,265.83l-11-3.38a15,15,0,0,1,1.45-.87l9.23,2.82C398.25,264.85,398.37,265.32,398.47,265.83Z"/><path class="cls-80" d="M399.15,274.12c0,.43,0,.86,0,1.31l-19-5.83c.28-.36.57-.72.85-1.06Z"/><path class="cls-80" d="M398.46,282.48c-.06.42-.13.84-.2,1.26l-22.86-7,.63-1.13Z"/><path class="cls-80" d="M396.83,290.56c-.11.4-.21.81-.33,1.22l-24.62-7.54.5-1.17Z"/><path class="cls-80" d="M393.84,299.87c-.15.39-.31.78-.47,1.18l-24.94-7.64c.13-.4.27-.79.41-1.19Z"/><path class="cls-80" d="M390.14,308.14c-.2.38-.39.76-.6,1.14L365.73,302l.35-1.21Z"/><path class="cls-80" d="M386,315.43c-.1.17-.21.34-.32.51h0c-.27.16-.53.31-.81.45L363.9,310a10.84,10.84,0,0,1,.16-1.27Z"/><path class="cls-20" d="M318.55,311.41s-1.79-4.41-3.53-6.07-33.34-19-47.21-7.75Z"/><path class="cls-81" d="M322.49,323s1.11-5-5.2-13.39-45.9-23.41-51.21-9.28Z"/><path class="cls-82" d="M271.69,312.63l.84,1a66.52,66.52,0,0,0,5,5.08l.94.86q2.47,2.21,5.4,4.4c.33.25.67.5,1,.74a81.58,81.58,0,0,0,7.15,4.62l1.1.63c2.2,1.22,4.53,2.39,7,3.48l1.17.52c2.13.91,4.35,1.76,6.66,2.53l.58.19h0c.31,0,.62-.09.92-.15,10.51-2.06,15.31-14.27,12.35-18l-.1-.12a9.3,9.3,0,0,0-.93-.89c-1.16-1-3.1-2.49-5.53-4.2l-1-.72c-1.93-1.34-4.13-2.8-6.45-4.26l-1.07-.66c-2.4-1.49-4.9-2.95-7.37-4.3l-1.12-.59c-2.19-1.15-4.33-2.19-6.33-3l-1.2-.49-1.38-.51a53.68,53.68,0,0,0-5.55-1.62c-.45-.11-.89-.2-1.33-.29a31.18,31.18,0,0,0-8.88-.65c-.59.06-1.15.13-1.68.23-2.91.54-5,1.75-6,3.53-.48.87-.28,2.44.58,4.47.18.43.39.87.62,1.33A38.65,38.65,0,0,0,271.69,312.63Z"/><path class="cls-80" d="M267,305.76l6.47-9.56c-.59.06-1.15.13-1.68.23l-5.41,8C266.56,304.86,266.77,305.3,267,305.76Z"/><path class="cls-80" d="M271.69,312.63l.84,1,11.15-16.49c-.45-.11-.89-.2-1.33-.29Z"/><path class="cls-80" d="M277.48,318.71l.94.86,13.39-19.81-1.2-.49Z"/><path class="cls-80" d="M283.82,324c.33.25.67.5,1,.74l14.42-21.33-1.12-.59Z"/><path class="cls-80" d="M292,329.33l1.1.63,14.61-21.62-1.07-.66Z"/><path class="cls-80" d="M300.07,333.44l1.17.52,13.95-20.64-1-.72Z"/><path class="cls-80" d="M307.9,336.49l.58.19h0c.31,0,.62-.09.92-.15l12.25-18.12a9.3,9.3,0,0,0-.93-.89Z"/><path class="cls-83" d="M398.47,265.83c-.1-.51-.22-1-.35-1.43-.6-2.12-1.43-3.47-2.36-3.84a5.67,5.67,0,0,0-2.12-.38,7.39,7.39,0,0,0-1-.15l0,0h-.64a9.31,9.31,0,0,0-2.53.33c-4,.85-7.7,3.26-11.06,6.44-.25-2.05-.71-6.1-1.09-10.08a18,18,0,0,0-3.16-8.34,10.69,10.69,0,0,0-2.66-2.81s-2.56-9.62-8.56-11.9l-.34-.12-.18-.07h0a13.71,13.71,0,0,0-5.64-.83h0a5,5,0,0,0-1.06.15h0l-.26.06a7.05,7.05,0,0,0-1.29.43h0l-.32.14,0,0,0,0h0l0-.05h0l0-.06v0a.25.25,0,0,1,0-.07v0l0-.09h0a3.63,3.63,0,0,0,.14-.51v0a.59.59,0,0,1,0-.13v-.06s0-.09,0-.13v-.07a.76.76,0,0,0,0-.15v-.07c0-.05,0-.11,0-.16v-.08c0-.06,0-.12,0-.18v0c0-.16,0-.33,0-.52s0-.23,0-.36-.05-.44-.08-.69a6.13,6.13,0,0,0,1.56-.57,7.15,7.15,0,0,0,2.41-2,2.33,2.33,0,0,0-.05-2.78,3.4,3.4,0,0,0-1.89-1.08,14.88,14.88,0,0,0-2.93-.48,20.07,20.07,0,0,0-.25-3c0-.13-.05-.26-.07-.39h0a11.48,11.48,0,0,0-.55-2s.6.4,1.58.93l.15.08.05,0,.09.05h0c2.28,1.19,6.3,2.82,10,2a9,9,0,0,0,1-.3,13,13,0,0,0,1.3-.58,10.34,10.34,0,0,0,4.57-4.5,12.38,12.38,0,0,0,3.59-.13,11.94,11.94,0,0,0,5-2.11,1.55,1.55,0,0,0,.71.43h0l.13,0h0l.1,0h.05l.11,0h1.32l.55-.07h0l.29,0h.07l.25-.06.1,0,.24-.06.11,0,.14,0,.13,0h.05l.37-.12c3.82-1.25,4.81-3.59,4.47-5.14a1.31,1.31,0,0,0-.87-.9h0a8.76,8.76,0,0,0-3.71-.14c-1.09.13-1.44-.14-1.07-1l.07-.12,1.38-.63a12.16,12.16,0,0,0,2.42-1.46,4.52,4.52,0,0,0,1.22-4.43c-.18-.84-1-1.18-2.08-1.14a6.42,6.42,0,0,0-3.32,1.15c-1.91,1.33-2.73,1.12-3,0-.2-.77,1.2-2.12,2.48-3.41l.08-.09a2,2,0,0,0,1.12-1.19l0,0a1.56,1.56,0,0,0,.16-.2c1.25-1.58-.17-4.11-2.87-4.1a2.11,2.11,0,0,0-.77.14h0c-2,.78-2.17,4.44-3.48,4.18s-.67-1.67.81-3.91c.19-.3.39-.61.58-.95a.41.41,0,0,1,.05-.09.93.93,0,0,0,.34-.65h0a1.3,1.3,0,0,0,.08-.17l0,0a.77.77,0,0,0,.07-.16l0,0,.06-.16,0,0c.07-.16.14-.32.2-.49l0-.08a.76.76,0,0,1,0-.11l0-.1,0-.11a1,1,0,0,0,0-.1l0-.1,0-.11s0-.07,0-.1l0-.1a.43.43,0,0,0,0-.11l0-.1a.36.36,0,0,1,0-.1.43.43,0,0,1,0-.11s0-.06,0-.09l0-.18v-.1a.37.37,0,0,0,0-.11.28.28,0,0,0,0-.09v-.38a3225414727107.13,3225414727107.13,0,0,1,0-.18.28.28,0,0,0,0-.09s0-.06,0-.09,0-.06,0-.09,0-.05,0-.08,0-.06,0-.09l0-.08,0-.1a.61.61,0,0,1-.05-.12l0-.08,0-.07a.56.56,0,0,0-.05-.08l0-.07-.06-.07-.05-.07-.06-.06,0-.06-.07-.07-.06-.05-.08-.07-.07-.05-.1-.06-.06,0-.17-.09a1.87,1.87,0,0,0-1.54,0c-2.21.84-4.8,4.89-5.9,9.47a20.18,20.18,0,0,1-1.06,3.39c-.53,1.15-.89,1.08-1,.95a.38.38,0,0,1-.1-.1c-.63-.64-1.82-5.26-2.64-8.18-.14-.48-.28-.93-.44-1.36-.8-2.23-1.89-3.82-3.37-3.91h-.73l-.18,0h-.05l-.17.06,0,0a.61.61,0,0,0-.14.07h0l-.14.1,0,0-.12.11,0,0-.11.12,0,0-.09.15,0,0c0,.05-.05.11-.08.17l0,.05a1.59,1.59,0,0,0-.07.2v0l-.06.2a.13.13,0,0,1,0,.06c0,.08,0,.16,0,.24v.07a1.09,1.09,0,0,0,0,.26v.07c0,.08,0,.17,0,.27v0c0,.1,0,.21,0,.32V187c0,.11,0,.22,0,.34v.07c0,.13,0,.26,0,.4a9.78,9.78,0,0,0,.27,1.69c.5,2,1.51,3.66,1.92,6a10.15,10.15,0,0,1,.13,1.93c-.32.12-.66.26-1,.43a9.68,9.68,0,0,0-1.79,1.11h0l-.19.16h0l0,0h0l-.29.26-.09.09-.18.17-.14.15-.11.13c-.06.06-.11.13-.17.2l0,.06-.1.12a11.65,11.65,0,0,0-1.19-1.49A10.45,10.45,0,0,0,352.8,196c-.17-.4-.34-.78-.53-1.17-.49-3.38-1.4-7.84-2.19-8.43s-1.33-1.28-5.8-.82l-.39-.25a12.07,12.07,0,0,0,.56-1.47c.05-.72.07-1.44.06-2.14a15.9,15.9,0,0,0,3.12-1.27c1.1-.89-2.26-11.82-3.49-11.83-.44,0-2.69.28-3.71.4a18.39,18.39,0,0,0-15.58-7.64l-.5-1.12a14.7,14.7,0,0,0-9,2.82l.28.93a17.83,17.83,0,0,0-8.58,15.65c-.88.5-2.89,1.65-3.24,1.91-1,.75,2.85,11.52,4.27,11.57a14.64,14.64,0,0,0,3.18-.82c.33.45.68.88,1.05,1.31-4.08,1.58-6.66,2.89-7.05,3.42-.54.71.28,4.08,1,6.56-1.43.95-3.09,2.91-3.65,7,0,.2-.06.41-.08.62a2,2,0,0,0-.82.4,2.57,2.57,0,0,0-.68.76l-.12.2-.11.24,0,.06-.09.23v0a1.71,1.71,0,0,0-.09.3l0,.06c0,.09-.05.19-.07.29v.06c0,.08,0,.16,0,.24s0,0,0,.08,0,.22,0,.33h0l0,0h0a.15.15,0,0,0,0-.06v0l0,0,0,0,0-.06,0,0-.06-.08,0,0-.1-.13,0,0-.09-.1a.38.38,0,0,1-.09-.09l0,0,0,0-.08-.07-.17-.14h0a6.8,6.8,0,0,0-.6-.42h0a7.87,7.87,0,0,0-2-.84c-.74-2.55-1.68-4.8-1.71-7,0-2.36.65-4.19.77-6.23a9.11,9.11,0,0,0-.05-1.72c0-.13,0-.26-.05-.39v-.07l-.06-.34,0-.08-.06-.31V196c0-.09-.05-.18-.07-.26l0-.06a2,2,0,0,0-.08-.26l0-.06-.09-.23,0,0-.09-.19,0,0-.11-.18,0,0c0-.05-.07-.11-.11-.15l0,0a.49.49,0,0,0-.12-.13l0,0-.13-.1,0,0-.15-.09,0,0-.15-.07h0l-.15,0h0a1.13,1.13,0,0,0-.18,0h-.62l-.09,0h-.08l-.17,0c-1.43.36-2.21,2.13-2.59,4.46-.07.46-.13.93-.17,1.42-.27,3-.57,7.78-1.08,8.53a.41.41,0,0,1-.07.12c-.13.16-.47.29-1.2-.74a19.55,19.55,0,0,1-1.67-3.13c-1.94-4.3-5.24-7.79-7.56-8.21a1.88,1.88,0,0,0-1.52.29l-.15.13-.05,0-.09.09-.05.06-.07.07,0,.07a.56.56,0,0,0-.05.08l-.05.07,0,.07,0,.08a.59.59,0,0,0,0,.08l0,.07,0,.09,0,.07a.44.44,0,0,1,0,.1l0,.12s0,.07,0,.11a.19.19,0,0,0,0,.08.28.28,0,0,0,0,.09v.35a146609760321.83,146609760321.83,0,0,0,0,.18s0,.07,0,.1,0,.06,0,.09,0,.06,0,.09a.36.36,0,0,1,0,.1.29.29,0,0,1,0,.09l0,.1,0,.1.06.17,0,.09,0,.1a1,1,0,0,1,0,.1l0,.09a1,1,0,0,0,0,.1l.05.1a.93.93,0,0,0,.05.1l0,.09a.47.47,0,0,1,.05.1.41.41,0,0,1,.05.09l.06.1a.41.41,0,0,0,.05.09l.06.11,0,.07c.09.15.19.3.29.44l0,0,.09.14,0,0,.1.14,0,0,.11.15h0a.9.9,0,0,0,.45.57l.07.08c.25.3.5.57.75.82,1.87,1.93,2.9,3.13,1.51,3.69s-2.12-3-4.19-3.45h0a2.1,2.1,0,0,0-.79,0c-2.65.5-3.57,3.25-2.06,4.57l.21.17h0a2.06,2.06,0,0,0,1.32,1l.1.07c1.49,1,3.12,2.09,3.06,2.88-.08,1.11-.85,1.48-3,.52a6.53,6.53,0,0,0-3.48-.51c-1,.16-1.8.65-1.82,1.5a4.49,4.49,0,0,0,2,4.13,11.5,11.5,0,0,0,2.65,1l1.46.36a.52.52,0,0,1,.1.11c.52.75.23,1.09-.87,1.16a8.9,8.9,0,0,0-3.62.82h0a1.26,1.26,0,0,0-.68,1.05c-.05,1.58,1.36,3.7,5.34,4.22l.39,0h1.42a4.86,4.86,0,0,0,.56,0h.05l.2,0h.07l.15,0,.08,0,.14,0h.07l.12,0,.07,0,.12,0,.06,0,.1,0,.06,0,.1,0,0,0,.09-.05h0l.12-.07h0a1.5,1.5,0,0,0,.61-.56,11.68,11.68,0,0,0,4.33,1.12l-.13.18a18.75,18.75,0,0,0,10.79,5.27,13.77,13.77,0,0,0,3.86-.19,14.77,14.77,0,0,0,3-.91s2.7.74,6.52-1.43h0c.35-.2.71-.42,1.07-.67,0,0,.14.61.35,1.28.05.16.1.31.16.47h0L311,231l-.12.11-.28.24c-.92.82-2.81,2.65-2.62,3.72s1.18,1.59,2.76,1.56l-1.44.87h0c-1.07.65-2.45,1.53-3.21,2.11l-.06.05h0c-1.3,1-1.85,2.47-4.07,4.18s-2.17,3-3,6.52c-.38,1.55-.79,3.09-1.12,4.34-.44,1.62-.77,2.75-.77,2.75a13,13,0,0,0-1.51,1.74l-.05.06v0l-.07.09,0,.05h0a15.64,15.64,0,0,0-1,1.56,11.74,11.74,0,0,0-.84,1.9,10.39,10.39,0,0,0-.33,1.16,32.1,32.1,0,0,0-.62,4.54c-.05.61-.07,1.17-.09,1.65,0,1.08,0,1.76,0,1.76a12.68,12.68,0,0,0-1,1.4h0a15.52,15.52,0,0,0-1.4,2.83,12.78,12.78,0,0,0-.73,3.26c-.29,3.76,3.87,14.15,4.9,16.65-8.22-2.41-17.24-3.5-23.74-.22a9.08,9.08,0,0,0-2.17,1.33l-.5.39.05,0a7.41,7.41,0,0,0-.65.72A5.72,5.72,0,0,0,265.8,300c-.48.87-.28,2.44.58,4.47.18.43.39.87.62,1.33a38.65,38.65,0,0,0,4.69,6.87l.84,1a66.52,66.52,0,0,0,5,5.08l.94.86q2.47,2.21,5.4,4.4c.33.25.67.5,1,.74a81.58,81.58,0,0,0,7.15,4.62l1.1.63c2.2,1.22,4.53,2.39,7,3.48l1.17.52c2.13.91,4.35,1.76,6.66,2.53l.58.19h0c.31,0,.62-.09.92-.15,7.68-1.5,12.31-8.43,13.09-13.51a2.13,2.13,0,0,0,.05-.33,6.72,6.72,0,0,0-.31-3.34,24.31,24.31,0,0,0-3.68-7.94,32.38,32.38,0,0,0-2.16-4.29,87.29,87.29,0,0,0-.13-10.55c-.52-5.34-2.23-9.49-1.95-12.35,0,0,2.55-1.18,4.64-10,.26-1.09.51-2.3.75-3.64l.19-.06c1.1-.35,6.73-2.37,8.95-7.36,2.46-5.54,4.94-6.34,6.26-5.49s6.9,6.17,15.1,5.77c0,0,.23.53.68,1.35h0A24.84,24.84,0,0,0,353,268a15,15,0,0,0,5.14,4.55,54.55,54.55,0,0,1,.77,11.32c-.13,5.12.46,11.45,2.24,15.31a32.8,32.8,0,0,0,.81,3.43,24.65,24.65,0,0,0,2.13,8.5,6.79,6.79,0,0,0,1.86,2.79,2.92,2.92,0,0,0,.24.22c3.8,3.46,11.75,5.95,18.67,2.29.28-.14.54-.29.81-.45h0c.11-.17.22-.34.32-.51,1.31-2.05,2.51-4.11,3.59-6.15.21-.38.4-.76.6-1.14,1.22-2.39,2.29-4.76,3.23-7.09.16-.4.32-.79.47-1.18,1.06-2.76,1.94-5.47,2.66-8.09.12-.41.22-.82.33-1.22.6-2.36,1.07-4.64,1.43-6.82.07-.42.14-.84.2-1.26a67.18,67.18,0,0,0,.65-7.05c0-.45,0-.88,0-1.31A39.2,39.2,0,0,0,398.47,265.83ZM295.4,259.27h0v0Zm15.42-24.12-.2,0a1.21,1.21,0,0,1-.41-.16.61.61,0,0,1-.15-.17l-.05-.09a.85.85,0,0,1,0-.23,1.85,1.85,0,0,1,.24-.8c0-.09.1-.19.16-.28a5.28,5.28,0,0,1,.37-.55,1.13,1.13,0,0,0,.1-.13l.19-.23a7.22,7.22,0,0,1,.49-.56A14.08,14.08,0,0,0,310.82,235.15Zm42.38-9.5h0s3.39-.59,3.91.16c.38.55.13,1.38-1.22,1.88a7.06,7.06,0,0,1-2.05.4c-.16-.65-.39-1.36-.67-2.16Z"/><path class="cls-84" d="M398.47,265.83c-.1-.51-.22-1-.35-1.43-.6-2.12-1.43-3.47-2.36-3.84a5.67,5.67,0,0,0-2.12-.38,7.39,7.39,0,0,0-1-.15l0,0h-.64a9.31,9.31,0,0,0-2.53.33c-4,.85-7.7,3.26-11.06,6.44-.25-2.05-.71-6.1-1.09-10.08a18,18,0,0,0-3.16-8.34,10.69,10.69,0,0,0-2.66-2.81s-2.56-9.62-8.56-11.9l-.34-.12-.18-.07h0a13.71,13.71,0,0,0-5.64-.83h0a5,5,0,0,0-1.06.15h0l-.26.06a7.05,7.05,0,0,0-1.29.43h0l-.32.14,0,0,0,0h0l0-.05h0l0-.06v0a.25.25,0,0,1,0-.07v0l0-.09h0a3.63,3.63,0,0,0,.14-.51v0a.59.59,0,0,1,0-.13v-.06s0-.09,0-.13v-.07a.76.76,0,0,0,0-.15v-.07c0-.05,0-.11,0-.16v-.08c0-.06,0-.12,0-.18v0c0-.16,0-.33,0-.52s0-.23,0-.36-.05-.44-.08-.69a6.13,6.13,0,0,0,1.56-.57,7.15,7.15,0,0,0,2.41-2,2.33,2.33,0,0,0-.05-2.78,3.4,3.4,0,0,0-1.89-1.08,14.88,14.88,0,0,0-2.93-.48,20.07,20.07,0,0,0-.25-3c0-.13-.05-.26-.07-.39h0a11.48,11.48,0,0,0-.55-2s.6.4,1.58.93l.15.08.05,0,.09.05h0c2.28,1.19,6.3,2.82,10,2a9,9,0,0,0,1-.3,13,13,0,0,0,1.3-.58,10.34,10.34,0,0,0,4.57-4.5,12.38,12.38,0,0,0,3.59-.13,11.94,11.94,0,0,0,5-2.11,1.55,1.55,0,0,0,.71.43h0l.13,0h0l.1,0h.05l.11,0h1.32l.55-.07h0l.29,0h.07l.25-.06.1,0,.24-.06.11,0,.14,0,.13,0h.05l.37-.12c3.82-1.25,4.81-3.59,4.47-5.14a1.31,1.31,0,0,0-.87-.9h0a8.76,8.76,0,0,0-3.71-.14c-1.09.13-1.44-.14-1.07-1l.07-.12,1.38-.63a12.16,12.16,0,0,0,2.42-1.46,4.52,4.52,0,0,0,1.22-4.43c-.18-.84-1-1.18-2.08-1.14a6.42,6.42,0,0,0-3.32,1.15c-1.91,1.33-2.73,1.12-3,0-.2-.77,1.2-2.12,2.48-3.41l.08-.09a2,2,0,0,0,1.12-1.19l0,0a1.56,1.56,0,0,0,.16-.2c1.25-1.58-.17-4.11-2.87-4.1a2.11,2.11,0,0,0-.77.14h0c-2,.78-2.17,4.44-3.48,4.18s-.67-1.67.81-3.91c.19-.3.39-.61.58-.95a.41.41,0,0,1,.05-.09.93.93,0,0,0,.34-.65h0a1.3,1.3,0,0,0,.08-.17l0,0a.77.77,0,0,0,.07-.16l0,0,.06-.16,0,0c.07-.16.14-.32.2-.49l0-.08a.76.76,0,0,1,0-.11l0-.1,0-.11a1,1,0,0,0,0-.1l0-.1,0-.11s0-.07,0-.1l0-.1a.43.43,0,0,0,0-.11l0-.1a.36.36,0,0,1,0-.1.43.43,0,0,1,0-.11s0-.06,0-.09l0-.18v-.1a.37.37,0,0,0,0-.11.28.28,0,0,0,0-.09v-.38a3225414727107.13,3225414727107.13,0,0,1,0-.18.28.28,0,0,0,0-.09s0-.06,0-.09,0-.06,0-.09,0-.05,0-.08,0-.06,0-.09l0-.08,0-.1a.61.61,0,0,1-.05-.12l0-.08,0-.07a.56.56,0,0,0-.05-.08l0-.07-.06-.07-.05-.07-.06-.06,0-.06-.07-.07-.06-.05-.08-.07-.07-.05-.1-.06-.06,0-.17-.09a1.87,1.87,0,0,0-1.54,0c-2.21.84-4.8,4.89-5.9,9.47a20.18,20.18,0,0,1-1.06,3.39c-.53,1.15-.89,1.08-1,.95a.38.38,0,0,1-.1-.1c-.63-.64-1.82-5.26-2.64-8.18-.14-.48-.28-.93-.44-1.36-.8-2.23-1.89-3.82-3.37-3.91h-.73l-.18,0h-.05l-.17.06,0,0a.61.61,0,0,0-.14.07h0l-.14.1,0,0-.12.11,0,0-.11.12,0,0-.09.15,0,0c0,.05-.05.11-.08.17l0,.05a1.59,1.59,0,0,0-.07.2v0l-.06.2a.13.13,0,0,1,0,.06c0,.08,0,.16,0,.24v.07a1.09,1.09,0,0,0,0,.26v.07c0,.08,0,.17,0,.27v0c0,.1,0,.21,0,.32V187c0,.11,0,.22,0,.34v.07c0,.13,0,.26,0,.4a9.78,9.78,0,0,0,.27,1.69c.5,2,1.51,3.66,1.92,6a10.15,10.15,0,0,1,.13,1.93c-.32.12-.66.26-1,.43a9.68,9.68,0,0,0-1.79,1.11h0l-.19.16h0l0,0h0l-.29.26-.09.09-.18.17-.14.15-.11.13c-.06.06-.11.13-.17.2l0,.06-.1.12a11.65,11.65,0,0,0-1.19-1.49A10.45,10.45,0,0,0,352.8,196c-.17-.4-.34-.78-.53-1.17-.49-3.38-1.4-7.84-2.19-8.43s-1.33-1.28-5.8-.82l-.39-.25a12.07,12.07,0,0,0,.56-1.47c.05-.72.07-1.44.06-2.14a15.9,15.9,0,0,0,3.12-1.27c1.1-.89-2.26-11.82-3.49-11.83-.44,0-2.69.28-3.71.4a18.39,18.39,0,0,0-15.58-7.64l-.5-1.12a14.7,14.7,0,0,0-9,2.82l.28.93a17.83,17.83,0,0,0-8.58,15.65c-.88.5-2.89,1.65-3.24,1.91-1,.75,2.85,11.52,4.27,11.57a14.64,14.64,0,0,0,3.18-.82c.33.45.68.88,1.05,1.31-4.08,1.58-6.66,2.89-7.05,3.42-.54.71.28,4.08,1,6.56-1.43.95-3.09,2.91-3.65,7,0,.2-.06.41-.08.62a2,2,0,0,0-.82.4,2.57,2.57,0,0,0-.68.76l-.12.2-.11.24,0,.06-.09.23v0a1.71,1.71,0,0,0-.09.3l0,.06c0,.09-.05.19-.07.29v.06c0,.08,0,.16,0,.24s0,0,0,.08,0,.22,0,.33h0l0,0h0a.15.15,0,0,0,0-.06v0l0,0,0,0,0-.06,0,0-.06-.08,0,0-.1-.13,0,0-.09-.1a.38.38,0,0,1-.09-.09l0,0,0,0-.08-.07-.17-.14h0a6.8,6.8,0,0,0-.6-.42h0a7.87,7.87,0,0,0-2-.84c-.74-2.55-1.68-4.8-1.71-7,0-2.36.65-4.19.77-6.23a9.11,9.11,0,0,0-.05-1.72c0-.13,0-.26-.05-.39v-.07l-.06-.34,0-.08-.06-.31V196c0-.09-.05-.18-.07-.26l0-.06a2,2,0,0,0-.08-.26l0-.06-.09-.23,0,0-.09-.19,0,0-.11-.18,0,0c0-.05-.07-.11-.11-.15l0,0a.49.49,0,0,0-.12-.13l0,0-.13-.1,0,0-.15-.09,0,0-.15-.07h0l-.15,0h0a1.13,1.13,0,0,0-.18,0h-.62l-.09,0h-.08l-.17,0c-1.43.36-2.21,2.13-2.59,4.46-.07.46-.13.93-.17,1.42-.27,3-.57,7.78-1.08,8.53a.41.41,0,0,1-.07.12c-.13.16-.47.29-1.2-.74a19.55,19.55,0,0,1-1.67-3.13c-1.94-4.3-5.24-7.79-7.56-8.21a1.88,1.88,0,0,0-1.52.29l-.15.13-.05,0-.09.09-.05.06-.07.07,0,.07a.56.56,0,0,0-.05.08l-.05.07,0,.07,0,.08a.59.59,0,0,0,0,.08l0,.07,0,.09,0,.07a.44.44,0,0,1,0,.1l0,.12s0,.07,0,.11a.19.19,0,0,0,0,.08.28.28,0,0,0,0,.09v.35a146609760321.83,146609760321.83,0,0,0,0,.18s0,.07,0,.1,0,.06,0,.09,0,.06,0,.09a.36.36,0,0,1,0,.1.29.29,0,0,1,0,.09l0,.1,0,.1.06.17,0,.09,0,.1a1,1,0,0,1,0,.1l0,.09a1,1,0,0,0,0,.1l.05.1a.93.93,0,0,0,.05.1l0,.09a.47.47,0,0,1,.05.1.41.41,0,0,1,.05.09l.06.1a.41.41,0,0,0,.05.09l.06.11,0,.07c.09.15.19.3.29.44l0,0,.09.14,0,0,.1.14,0,0,.11.15h0a.9.9,0,0,0,.45.57l.07.08c.25.3.5.57.75.82,1.87,1.93,2.9,3.13,1.51,3.69s-2.12-3-4.19-3.45h0a2.1,2.1,0,0,0-.79,0c-2.65.5-3.57,3.25-2.06,4.57l.21.17h0a2.06,2.06,0,0,0,1.32,1l.1.07c1.49,1,3.12,2.09,3.06,2.88-.08,1.11-.85,1.48-3,.52a6.53,6.53,0,0,0-3.48-.51c-1,.16-1.8.65-1.82,1.5a4.49,4.49,0,0,0,2,4.13,11.5,11.5,0,0,0,2.65,1l1.46.36a.52.52,0,0,1,.1.11c.52.75.23,1.09-.87,1.16a8.9,8.9,0,0,0-3.62.82h0a1.26,1.26,0,0,0-.68,1.05c-.05,1.58,1.36,3.7,5.34,4.22l.39,0h1.42a4.86,4.86,0,0,0,.56,0h.05l.2,0h.07l.15,0,.08,0,.14,0h.07l.12,0,.07,0,.12,0,.06,0,.1,0,.06,0,.1,0,0,0,.09-.05h0l.12-.07h0a1.5,1.5,0,0,0,.61-.56,11.68,11.68,0,0,0,4.33,1.12l-.13.18a18.75,18.75,0,0,0,10.79,5.27,13.77,13.77,0,0,0,3.86-.19,14.77,14.77,0,0,0,3-.91s2.7.74,6.52-1.43h0c.35-.2.71-.42,1.07-.67,0,0,.14.61.35,1.28.05.16.1.31.16.47h0L311,231l-.12.11-.28.24c-.92.82-2.81,2.65-2.62,3.72s1.18,1.59,2.76,1.56l-1.44.87h0c-1.07.65-2.45,1.53-3.21,2.11l-.06.05h0c-1.3,1-1.85,2.47-4.07,4.18s-2.17,3-3,6.52c-.38,1.55-.79,3.09-1.12,4.34-.44,1.62-.77,2.75-.77,2.75a13,13,0,0,0-1.51,1.74l-.05.06v0l-.07.09,0,.05h0a15.64,15.64,0,0,0-1,1.56,11.74,11.74,0,0,0-.84,1.9,10.39,10.39,0,0,0-.33,1.16,32.1,32.1,0,0,0-.62,4.54c-.05.61-.07,1.17-.09,1.65,0,1.08,0,1.76,0,1.76a12.68,12.68,0,0,0-1,1.4h0a15.52,15.52,0,0,0-1.4,2.83,12.78,12.78,0,0,0-.73,3.26c-.29,3.76,3.87,14.15,4.9,16.65-8.22-2.41-17.24-3.5-23.74-.22a9.08,9.08,0,0,0-2.17,1.33l-.5.39.05,0a7.41,7.41,0,0,0-.65.72A5.72,5.72,0,0,0,265.8,300c-.48.87-.28,2.44.58,4.47.18.43.39.87.62,1.33a38.65,38.65,0,0,0,4.69,6.87l.84,1a66.52,66.52,0,0,0,5,5.08l.94.86q2.47,2.21,5.4,4.4c.33.25.67.5,1,.74a81.58,81.58,0,0,0,7.15,4.62l1.1.63c2.2,1.22,4.53,2.39,7,3.48l1.17.52c2.13.91,4.35,1.76,6.66,2.53l.58.19h0c.31,0,.62-.09.92-.15,7.68-1.5,12.31-8.43,13.09-13.51a2.13,2.13,0,0,0,.05-.33,6.72,6.72,0,0,0-.31-3.34,24.31,24.31,0,0,0-3.68-7.94,32.38,32.38,0,0,0-2.16-4.29,87.29,87.29,0,0,0-.13-10.55c-.52-5.34-2.23-9.49-1.95-12.35,0,0,2.55-1.18,4.64-10,.26-1.09.51-2.3.75-3.64l.19-.06c1.1-.35,6.73-2.37,8.95-7.36,2.46-5.54,4.94-6.34,6.26-5.49s6.9,6.17,15.1,5.77c0,0,.23.53.68,1.35h0A24.84,24.84,0,0,0,353,268a15,15,0,0,0,5.14,4.55,54.55,54.55,0,0,1,.77,11.32c-.13,5.12.46,11.45,2.24,15.31a32.8,32.8,0,0,0,.81,3.43,24.65,24.65,0,0,0,2.13,8.5,6.79,6.79,0,0,0,1.86,2.79,2.92,2.92,0,0,0,.24.22c3.8,3.46,11.75,5.95,18.67,2.29.28-.14.54-.29.81-.45h0c.11-.17.22-.34.32-.51,1.31-2.05,2.51-4.11,3.59-6.15.21-.38.4-.76.6-1.14,1.22-2.39,2.29-4.76,3.23-7.09.16-.4.32-.79.47-1.18,1.06-2.76,1.94-5.47,2.66-8.09.12-.41.22-.82.33-1.22.6-2.36,1.07-4.64,1.43-6.82.07-.42.14-.84.2-1.26a67.18,67.18,0,0,0,.65-7.05c0-.45,0-.88,0-1.31A39.2,39.2,0,0,0,398.47,265.83ZM295.4,259.27h0v0Zm15.42-24.12-.2,0a1.21,1.21,0,0,1-.41-.16.61.61,0,0,1-.15-.17l-.05-.09a.85.85,0,0,1,0-.23,1.85,1.85,0,0,1,.24-.8c0-.09.1-.19.16-.28a5.28,5.28,0,0,1,.37-.55,1.13,1.13,0,0,0,.1-.13l.19-.23a7.22,7.22,0,0,1,.49-.56A14.08,14.08,0,0,0,310.82,235.15Zm42.38-9.5h0s3.39-.59,3.91.16c.38.55.13,1.38-1.22,1.88a7.06,7.06,0,0,1-2.05.4c-.16-.65-.39-1.36-.67-2.16Z"/></g></g></g></svg>