<?xml version="1.0" standalone="no"?>
<!DOCTYPE svg PUBLIC "-//W3C//DTD SVG 20010904//EN"
 "http://www.w3.org/TR/2001/REC-SVG-20010904/DTD/svg10.dtd">
<svg version="1.0" xmlns="http://www.w3.org/2000/svg"
 width="869.000000pt" height="869.000000pt" viewBox="0 0 869.000000 869.000000"
 preserveAspectRatio="xMidYMid meet">
<metadata>
Created by potrace 1.14, written by Peter Selinger 2001-2017
</metadata>
<g transform="translate(0.000000,869.000000) scale(0.100000,-0.100000)"
fill="#000000" stroke="none">
<path d="M4060 8501 c-25 -3 -66 -6 -92 -6 -27 0 -48 -2 -48 -5 0 -3 -15 -6
-32 -6 -63 -3 -178 -17 -236 -29 -12 -3 -42 -8 -66 -11 -23 -2 -132 -25 -242
-50 -208 -47 -210 -48 -234 -57 -8 -3 -67 -21 -130 -41 -105 -33 -196 -66
-275 -97 -16 -7 -32 -13 -35 -14 -31 -11 -237 -103 -325 -146 -82 -40 -173
-89 -235 -127 -19 -12 -42 -25 -50 -29 -8 -4 -34 -19 -57 -33 l-42 -27 174
-171 173 -171 84 47 c45 26 101 56 123 67 22 11 42 23 43 28 2 4 11 7 21 7 9
0 25 6 36 14 11 7 65 32 120 56 55 23 114 48 130 55 39 18 231 85 245 87 3 0
16 5 30 10 29 12 112 37 210 63 8 2 47 11 85 19 39 9 79 19 90 21 19 5 44 10
95 19 14 3 41 8 60 10 19 3 44 7 55 10 11 2 49 7 85 11 36 4 72 8 80 10 19 4
174 17 215 19 l30 1 2 -3053 c1 -2286 4 -3061 13 -3087 59 -180 307 -189 395
-16 17 33 18 207 18 3093 l0 3058 21 1 c11 1 25 1 29 0 5 -1 34 -4 65 -6 98
-9 146 -13 188 -19 75 -10 219 -34 234 -40 8 -3 33 -8 55 -11 22 -3 101 -22
175 -41 74 -20 142 -37 150 -39 37 -9 264 -90 361 -130 59 -24 173 -76 254
-115 l145 -72 176 176 176 177 -74 40 c-126 68 -362 181 -458 219 -30 12 -68
28 -85 35 -36 17 -264 96 -285 100 -8 1 -22 5 -30 8 -83 31 -337 94 -490 121
-14 3 -25 5 -25 6 0 1 -13 3 -30 5 -16 2 -46 6 -65 9 -19 3 -55 9 -80 12 -25
3 -56 7 -70 10 -14 2 -52 7 -85 9 -33 3 -78 8 -100 11 -59 8 -612 12 -665 5z"/>
<path d="M6626 7829 c-20 -21 -40 -39 -46 -39 -5 0 -10 -4 -10 -8 0 -9 -139
-151 -149 -153 -3 -1 -27 -25 -53 -53 l-48 -53 48 -30 c26 -17 72 -46 102 -64
30 -18 60 -37 65 -42 6 -4 57 -41 115 -82 58 -40 118 -85 134 -99 16 -14 32
-26 35 -26 3 0 22 -15 42 -33 20 -17 60 -52 89 -77 140 -119 355 -346 480
-506 39 -49 76 -96 82 -104 7 -8 18 -22 23 -31 6 -9 37 -57 70 -106 68 -101
69 -103 126 -198 98 -166 294 -604 314 -704 2 -9 8 -29 15 -46 6 -16 11 -32
11 -35 -1 -3 3 -18 9 -35 5 -16 11 -39 13 -50 2 -11 7 -27 10 -35 3 -8 8 -28
12 -45 3 -16 10 -50 16 -75 20 -88 24 -107 34 -179 3 -25 8 -47 10 -50 3 -7
17 -148 19 -196 l1 -30 -75 -1 c-101 -2 -729 -13 -1070 -20 -151 -3 -376 -7
-500 -9 -124 -2 -234 -6 -245 -8 -153 -37 -229 -208 -151 -340 24 -41 85 -93
126 -107 18 -6 422 -4 875 4 187 4 346 7 353 6 6 0 18 0 25 0 6 -1 138 2 292
5 580 12 673 13 769 14 l98 1 -6 233 c-5 235 -7 266 -27 417 -11 87 -14 110
-24 168 -3 17 -7 44 -9 60 -6 31 -24 120 -36 172 -5 19 -11 46 -14 60 -10 44
-28 115 -33 130 -4 8 -7 22 -9 31 -2 9 -21 69 -43 132 -21 64 -36 118 -33 122
3 3 0 5 -6 5 -7 0 -11 3 -10 8 1 8 -9 39 -23 64 -5 10 -9 22 -9 28 0 6 -11 33
-25 62 -14 28 -25 55 -25 60 0 21 -194 401 -245 478 -12 19 -44 69 -70 110
-42 66 -181 264 -210 297 -5 7 -14 18 -20 25 -27 35 -103 127 -130 157 -64 71
-79 88 -140 151 -81 85 -215 212 -289 275 -33 28 -66 57 -75 65 -61 56 -313
238 -463 333 l-57 36 -35 -40z"/>
<path d="M1868 7763 c-1 -5 -32 -28 -68 -53 -36 -24 -66 -48 -68 -52 -2 -4
-10 -8 -17 -8 -7 0 -15 -3 -17 -7 -1 -5 -30 -28 -63 -53 -61 -45 -65 -48 -150
-120 -136 -115 -350 -321 -425 -410 -12 -14 -34 -39 -48 -55 -15 -17 -47 -55
-72 -85 -25 -30 -47 -57 -50 -60 -35 -31 -249 -343 -326 -475 -65 -111 -167
-300 -169 -315 0 -3 -13 -32 -29 -65 -15 -33 -32 -69 -36 -80 -4 -11 -16 -38
-25 -59 -20 -44 -105 -273 -110 -296 -2 -8 -18 -62 -35 -120 -33 -112 -78
-295 -85 -345 -2 -16 -10 -64 -18 -105 -8 -41 -15 -82 -15 -90 0 -8 -3 -26 -5
-40 -6 -30 -15 -104 -24 -209 -15 -162 -8 -635 12 -766 2 -16 7 -52 10 -80 5
-48 8 -71 21 -145 4 -19 8 -44 10 -55 1 -11 5 -31 8 -45 3 -14 8 -36 11 -50 3
-14 8 -36 11 -50 3 -14 7 -35 10 -48 16 -76 86 -311 134 -447 30 -85 30 -85
29 -91 0 -4 3 -10 8 -13 4 -3 14 -24 22 -46 13 -36 44 -106 126 -280 16 -33
50 -98 77 -144 26 -46 48 -85 48 -87 0 -2 16 -28 35 -58 19 -30 35 -59 35 -65
0 -5 3 -11 8 -13 4 -1 34 -43 67 -92 82 -121 165 -235 196 -270 8 -9 19 -21
24 -28 88 -117 332 -373 465 -488 34 -30 68 -60 74 -65 6 -6 56 -47 111 -90
55 -44 104 -84 110 -88 5 -4 48 -35 95 -67 47 -33 90 -63 96 -67 20 -15 49
-33 64 -40 8 -4 17 -9 20 -12 3 -4 43 -29 90 -57 350 -209 705 -361 1099 -470
136 -38 156 -43 186 -49 11 -2 67 -13 125 -25 58 -12 119 -24 135 -26 17 -3
59 -9 95 -14 143 -22 146 -22 320 -36 130 -11 552 -11 680 -1 52 4 118 10 145
12 47 4 97 10 155 21 14 2 45 7 70 10 25 3 52 7 60 9 16 5 69 14 110 20 14 2
54 10 91 19 36 9 75 17 87 19 12 2 25 6 28 10 4 4 16 7 26 7 10 0 57 12 105
26 49 14 115 34 148 44 33 9 94 30 135 45 41 15 81 28 88 28 6 0 12 4 12 9 0
4 3 7 8 6 6 -3 26 4 117 43 194 82 411 190 565 283 51 31 97 56 102 56 4 0 8
5 8 10 0 6 4 10 10 10 5 0 41 22 80 50 39 27 72 50 75 50 3 0 13 7 22 15 10 8
54 41 98 74 178 134 292 234 460 405 176 178 204 209 332 372 77 99 230 319
257 373 10 18 20 44 22 57 10 56 11 84 2 84 -5 0 -6 4 -3 10 9 15 -29 94 -61
124 -87 84 -231 90 -319 15 -15 -13 -63 -78 -107 -144 -186 -277 -357 -475
-603 -700 -48 -44 -95 -87 -104 -95 -28 -26 -235 -186 -266 -206 -17 -10 -32
-21 -35 -24 -28 -31 -440 -270 -466 -270 -8 0 -14 -3 -14 -7 0 -9 -48 -33 -66
-33 -7 0 -14 -3 -16 -8 -3 -8 -261 -117 -303 -128 -5 -1 -28 -10 -49 -19 -22
-9 -47 -19 -55 -21 -9 -2 -61 -18 -116 -35 -55 -17 -116 -35 -135 -39 -19 -5
-62 -15 -96 -24 -34 -8 -72 -17 -85 -20 -13 -2 -44 -9 -69 -14 -48 -11 -120
-24 -160 -28 -14 -1 -25 -3 -25 -4 0 -2 -14 -4 -105 -15 -186 -23 -636 -41
-663 -27 -5 2 -54 6 -110 8 -56 3 -115 6 -132 8 -16 2 -59 7 -95 10 -36 4 -72
8 -80 10 -8 2 -31 6 -50 10 -19 3 -51 8 -70 10 -19 2 -42 7 -50 10 -8 3 -31 7
-50 10 -19 3 -50 10 -67 15 -18 5 -33 8 -33 6 0 -3 -11 0 -25 5 -14 5 -36 12
-48 14 -50 11 -67 15 -138 36 -225 65 -498 171 -669 259 -166 86 -337 186
-423 247 -26 19 -49 34 -52 34 -7 0 -235 173 -262 199 -12 12 -24 21 -26 21
-9 0 -127 110 -247 230 -130 130 -164 167 -240 260 -25 30 -49 60 -55 66 -5 6
-17 22 -25 34 -8 12 -20 28 -25 34 -6 6 -26 34 -45 61 -19 28 -38 55 -42 60
-27 32 -110 166 -177 284 -77 137 -93 169 -151 294 -58 128 -144 361 -165 447
0 3 -9 32 -19 65 -11 33 -20 67 -21 75 -1 13 -17 84 -42 190 -3 14 -7 34 -9
45 -1 11 -5 31 -8 45 -4 22 -9 55 -22 155 -15 112 -27 299 -26 435 0 103 10
313 16 345 2 11 7 50 10 87 8 71 10 89 27 178 6 30 12 66 14 80 3 14 6 32 8
40 30 133 34 149 37 153 2 2 5 15 13 52 3 11 13 47 23 80 10 33 19 65 20 70 1
6 8 24 15 40 6 17 13 36 15 43 6 30 89 237 96 240 4 2 8 10 8 18 0 8 4 22 10
32 5 9 27 54 49 99 43 90 131 255 140 263 8 7 30 41 38 60 21 49 212 314 308
429 82 97 290 312 391 402 69 62 265 219 273 219 5 0 20 12 35 26 14 15 26 23
26 18 0 -5 4 -4 8 2 4 6 45 36 90 66 l84 56 -167 166 c-153 152 -187 180 -197
159z"/>
</g>
</svg>
